<svg fill="none" xmlns="http://www.w3.org/2000/svg" viewBox="0 0 584 206">
  <rect x="272" y="99" width="40" height="40" rx="10" fill="#F5F7FA"/>
  <path fill-rule="evenodd" clip-rule="evenodd" d="M306 125h-2v-1c0-6.627-5.373-11.999-12-11.999s-11.999 5.372-11.999 11.999l-.001 1h-2a1 1 0 01-1-1c0-8.284 6.716-15 15-15 8.284 0 15 6.716 15 15a1 1 0 01-1 1z" fill="url(#Ud9RZpg1Aa)"/>
  <path d="M298.999 124A7 7 0 00285 124v1h2a1 1 0 001-1 4 4 0 018 0 1 1 0 001 1h2l-.001-1z" fill="url(#Ud9RZpg1Ab)"/>
  <path d="M302.999 124c0-6.075-4.924-10.999-10.999-10.999s-10.999 4.924-10.999 10.999H281v1h3v-1a8 8 0 0116 0v1h3v-1h-.001z" fill="url(#Ud9RZpg1Ac)"/>
  <path fill="#DDFBE5" d="M368 87h88v32h-88z"/>
  <path d="M377.103 108v-8.376h3.048c.776 0 1.368.212 1.776.636.408.424.612 1.016.612 1.776s-.204 1.352-.612 1.776c-.408.424-1 .636-1.776.636h-2.04V108h-1.008zm1.008-4.428h2.016c.424 0 .752-.104.984-.312.24-.216.36-.52.36-.912v-.624c0-.392-.12-.692-.36-.9-.232-.216-.56-.324-.984-.324h-2.016v3.072zm6.032 3.612h1.812v-4.56h-1.812v-.816h2.772v1.56h.06c.128-.488.368-.868.72-1.14.36-.28.816-.42 1.368-.42h.864v.96h-1.164c-.552 0-1 .16-1.344.48-.336.32-.504.74-.504 1.26v2.676h2.4V108h-5.172v-.816zm9.871.96c-.432 0-.824-.076-1.176-.228a2.548 2.548 0 01-.888-.648 3.055 3.055 0 01-.552-1.02 4.398 4.398 0 01-.192-1.344c0-.488.064-.932.192-1.332s.312-.74.552-1.02c.248-.288.544-.508.888-.66a2.937 2.937 0 011.176-.228c.432 0 .82.076 1.164.228.352.152.648.372.888.66.248.28.436.62.564 1.02.128.4.192.844.192 1.332 0 .496-.064.944-.192 1.344a2.943 2.943 0 01-.564 1.02 2.41 2.41 0 01-.888.648 2.851 2.851 0 01-1.164.228zm0-.828c.536 0 .968-.16 1.296-.48.328-.32.492-.816.492-1.488v-.888c0-.672-.164-1.168-.492-1.488-.328-.32-.76-.48-1.296-.48s-.968.16-1.296.48c-.328.32-.492.816-.492 1.488v.888c0 .672.164 1.168.492 1.488.328.32.76.48 1.296.48zm8.695-.324h-.048c-.4.768-1.036 1.152-1.908 1.152-.76 0-1.356-.284-1.788-.852-.424-.568-.636-1.364-.636-2.388 0-1.024.212-1.82.636-2.388.432-.568 1.028-.852 1.788-.852.872 0 1.508.384 1.908 1.152h.048V99.12h.96V108h-.96v-1.008zm-1.584.3c.216 0 .42-.028.612-.084.192-.056.36-.136.504-.24.144-.112.256-.244.336-.396.088-.16.132-.344.132-.552v-2.232a1.06 1.06 0 00-.132-.54 1.073 1.073 0 00-.336-.396 1.492 1.492 0 00-.504-.252 2.176 2.176 0 00-.612-.084c-.56 0-.996.172-1.308.516-.304.336-.456.784-.456 1.344v1.056c0 .56.152 1.012.456 1.356.312.336.748.504 1.308.504zm8.744-.3h-.048c-.064.152-.144.3-.24.444a1.538 1.538 0 01-.36.36c-.136.104-.3.188-.492.252a2.127 2.127 0 01-.672.096c-.648 0-1.168-.204-1.56-.612-.392-.416-.588-1-.588-1.752v-3.972h.96v3.804c0 .568.124.992.372 1.272.248.272.612.408 1.092.408.192 0 .38-.024.564-.072.184-.048.348-.12.492-.216.144-.096.26-.216.348-.36a1.06 1.06 0 00.132-.54v-4.296h.96V108h-.96v-1.008zm5.947 1.152a3 3 0 01-1.2-.228 2.56 2.56 0 01-.876-.66c-.24-.28-.424-.62-.552-1.02-.12-.4-.18-.844-.18-1.332 0-.488.064-.932.192-1.332s.312-.74.552-1.02c.24-.288.532-.508.876-.66a2.882 2.882 0 011.176-.228c.6 0 1.088.132 1.464.396.376.264.652.608.828 1.032l-.768.408c-.112-.32-.3-.568-.564-.744-.256-.176-.576-.264-.96-.264-.28 0-.532.048-.756.144-.216.088-.4.216-.552.384a1.716 1.716 0 00-.348.6 2.54 2.54 0 00-.108.756v1.056c0 .272.036.524.108.756a1.597 1.597 0 00.912.996c.224.088.48.132.768.132.416 0 .76-.096 1.032-.288.272-.192.488-.456.648-.792l.684.468c-.184.416-.472.76-.864 1.032-.384.272-.888.408-1.512.408zm7.279-.144c-.472 0-.82-.132-1.044-.396-.216-.264-.324-.604-.324-1.02v-3.96h-2.064v-.816h1.536c.208 0 .352-.04.432-.12.088-.088.132-.236.132-.444v-1.62h.924v2.184h2.82v.816h-2.82v4.56h2.82V108h-2.412zm7.28-7.56c-.28 0-.476-.056-.588-.168a.626.626 0 01-.168-.444v-.192c0-.176.056-.32.168-.432.112-.12.308-.18.588-.18.28 0 .476.06.588.18a.585.585 0 01.168.432v.192a.626.626 0 01-.168.444c-.112.112-.308.168-.588.168zm-2.712 6.744h2.232v-4.56h-2.232v-.816h3.192v5.376h2.088V108h-5.28v-.816zm9.523.96c-.432 0-.824-.076-1.176-.228a2.548 2.548 0 01-.888-.648 3.055 3.055 0 01-.552-1.02 4.398 4.398 0 01-.192-1.344c0-.488.064-.932.192-1.332s.312-.74.552-1.02c.248-.288.544-.508.888-.66a2.937 2.937 0 011.176-.228c.432 0 .82.076 1.164.228.352.152.648.372.888.66.248.28.436.62.564 1.02.128.4.192.844.192 1.332 0 .496-.064.944-.192 1.344a2.943 2.943 0 01-.564 1.02 2.41 2.41 0 01-.888.648 2.851 2.851 0 01-1.164.228zm0-.828c.536 0 .968-.16 1.296-.48.328-.32.492-.816.492-1.488v-.888c0-.672-.164-1.168-.492-1.488-.328-.32-.76-.48-1.296-.48s-.968.16-1.296.48c-.328.32-.492.816-.492 1.488v.888c0 .672.164 1.168.492 1.488.328.32.76.48 1.296.48zm4.771.684v-6.192h.96v1.008h.048c.064-.152.144-.296.24-.432a1.54 1.54 0 01.348-.372c.144-.104.312-.188.504-.252s.416-.096.672-.096c.648 0 1.168.208 1.56.624.392.408.588.988.588 1.74V108h-.96v-3.804c0-.568-.124-.988-.372-1.26-.248-.28-.612-.42-1.092-.42-.192 0-.38.024-.564.072-.184.048-.348.12-.492.216-.144.096-.26.22-.348.372a1.035 1.035 0 00-.132.528V108h-.96z" fill="#000"/>
  <path fill="#DDFBE5" d="M498 0h52v32h-52z"/>
  <path d="M508.1 21h-1.008v-8.376h3.048c.776 0 1.368.212 1.776.636.408.424.612 1.016.612 1.776 0 .68-.176 1.224-.528 1.632-.352.408-.864.644-1.536.708L512.6 21h-1.128l-2.04-3.576H508.1V21zm2.016-4.428c.424 0 .752-.104.984-.312.24-.216.36-.52.36-.912v-.624c0-.392-.12-.692-.36-.9-.232-.216-.56-.324-.984-.324H508.1v3.072h2.016zm6.799 4.572c-.448 0-.852-.076-1.212-.228a2.638 2.638 0 01-.912-.648 3.103 3.103 0 01-.576-1.02 4.119 4.119 0 01-.204-1.332c0-.496.068-.944.204-1.344.144-.4.34-.74.588-1.02.248-.288.544-.508.888-.66.352-.152.74-.228 1.164-.228.416 0 .792.076 1.128.228.344.152.636.364.876.636.24.264.424.58.552.948.128.368.192.772.192 1.212v.456h-4.584v.288c0 .272.044.524.132.756.088.232.212.432.372.6.168.168.368.3.6.396.24.088.504.132.792.132.416 0 .776-.096 1.08-.288.304-.192.536-.456.696-.792l.708.48c-.184.416-.492.76-.924 1.032-.424.264-.944.396-1.56.396zm-.06-5.688a1.839 1.839 0 00-1.32.54 1.93 1.93 0 00-.384.6 2.019 2.019 0 00-.132.744v.084h3.552v-.132c0-.272-.044-.52-.132-.744a1.61 1.61 0 00-.348-.576 1.389 1.389 0 00-.54-.384 1.77 1.77 0 00-.696-.132zM526.342 21c-.376 0-.644-.096-.804-.288a1.399 1.399 0 01-.3-.72h-.06c-.136.36-.356.644-.66.852-.296.2-.696.3-1.2.3-.648 0-1.164-.168-1.548-.504-.384-.336-.576-.796-.576-1.38 0-.576.208-1.02.624-1.332.424-.312 1.104-.468 2.04-.468h1.32v-.612c0-.456-.128-.796-.384-1.02-.256-.232-.62-.348-1.092-.348-.416 0-.756.084-1.02.252a1.8 1.8 0 00-.636.66l-.648-.48c.08-.16.188-.316.324-.468a1.94 1.94 0 01.504-.396 2.5 2.5 0 01.684-.276c.256-.072.54-.108.852-.108.728 0 1.304.184 1.728.552.432.368.648.88.648 1.536v3.408h.864V21h-.66zm-2.856-.66c.248 0 .472-.028.672-.084.208-.064.388-.144.54-.24.152-.104.268-.224.348-.36a.86.86 0 00.132-.456v-1.02h-1.32c-.576 0-.996.08-1.26.24a.767.767 0 00-.396.696v.252c0 .32.112.564.336.732.232.16.548.24.948.24zm7.928.804a3 3 0 01-1.2-.228 2.56 2.56 0 01-.876-.66c-.24-.28-.424-.62-.552-1.02-.12-.4-.18-.844-.18-1.332 0-.488.064-.932.192-1.332s.312-.74.552-1.02c.24-.288.532-.508.876-.66a2.882 2.882 0 011.176-.228c.6 0 1.088.132 1.464.396.376.264.652.608.828 1.032l-.768.408c-.112-.32-.3-.568-.564-.744-.256-.176-.576-.264-.96-.264-.28 0-.532.048-.756.144-.216.088-.4.216-.552.384a1.716 1.716 0 00-.348.6 2.54 2.54 0 00-.108.756v1.056c0 .272.036.524.108.756a1.597 1.597 0 00.912.996c.224.088.48.132.768.132.416 0 .76-.096 1.032-.288.272-.192.488-.456.648-.792l.684.468c-.184.416-.472.76-.864 1.032-.384.272-.888.408-1.512.408zm7.279-.144c-.472 0-.82-.132-1.044-.396-.216-.264-.324-.604-.324-1.02v-3.96h-2.064v-.816h1.536c.208 0 .352-.04.432-.12.088-.088.132-.236.132-.444v-1.62h.924v2.184h2.82v.816h-2.82v4.56h2.82V21h-2.412z" fill="#000"/>
  <path fill="#DDFBE5" d="M524 40h60v32h-60z"/>
  <path d="M537.742 59.884h-.06c-.072.16-.156.316-.252.468-.096.152-.22.288-.372.408-.144.112-.32.204-.528.276a2.282 2.282 0 01-.744.108c-.912 0-1.592-.368-2.04-1.104-.44-.736-.66-1.792-.66-3.168 0-1.44.244-2.532.732-3.276.488-.744 1.24-1.116 2.256-1.116.392 0 .732.052 1.02.156.288.104.532.244.732.42.208.176.38.376.516.6.136.216.248.436.336.66l-.864.396a3.43 3.43 0 00-.252-.516 1.495 1.495 0 00-.336-.432 1.345 1.345 0 00-.468-.3 1.774 1.774 0 00-.648-.108c-.672 0-1.168.252-1.488.756-.312.504-.468 1.176-.468 2.016v1.296c0 .424.032.812.096 1.164.064.344.168.644.312.9.152.256.344.456.576.6.24.136.532.204.876.204.544 0 .968-.164 1.272-.492.304-.328.456-.752.456-1.272v-.864h-1.764v-.804h2.7V61h-.936v-1.116zM545.549 61c-.376 0-.644-.096-.804-.288a1.399 1.399 0 01-.3-.72h-.06c-.136.36-.356.644-.66.852-.296.2-.696.3-1.2.3-.648 0-1.164-.168-1.548-.504-.384-.336-.576-.796-.576-1.38 0-.576.208-1.02.624-1.332.424-.312 1.104-.468 2.04-.468h1.32v-.612c0-.456-.128-.796-.384-1.02-.256-.232-.62-.348-1.092-.348-.416 0-.756.084-1.02.252a1.8 1.8 0 00-.636.66l-.648-.48c.08-.16.188-.316.324-.468a1.94 1.94 0 01.504-.396 2.5 2.5 0 01.684-.276c.256-.072.54-.108.852-.108.728 0 1.304.184 1.728.552.432.368.648.88.648 1.536v3.408h.864V61h-.66zm-2.856-.66c.248 0 .472-.028.672-.084.208-.064.388-.144.54-.24.152-.104.268-.224.348-.36a.86.86 0 00.132-.456v-1.02h-1.32c-.576 0-.996.08-1.26.24a.767.767 0 00-.396.696v.252c0 .32.112.564.336.732.232.16.548.24.948.24zm8.012.66c-.472 0-.82-.132-1.044-.396-.216-.264-.324-.604-.324-1.02v-3.96h-2.064v-.816h1.536c.208 0 .352-.04.432-.12.088-.088.132-.236.132-.444v-1.62h.924v2.184h2.82v.816h-2.82v4.56h2.82V61h-2.412zm6.967.144c-.648 0-1.208-.108-1.68-.324a3.763 3.763 0 01-1.188-.888l.648-.564c.296.312.62.552.972.72.352.168.776.252 1.272.252.48 0 .872-.084 1.176-.252.312-.176.468-.448.468-.816a.745.745 0 00-.096-.396.638.638 0 00-.24-.264 1.227 1.227 0 00-.348-.144 3.046 3.046 0 00-.408-.096l-.972-.144a10.613 10.613 0 01-.708-.132 2.431 2.431 0 01-.684-.264 1.76 1.76 0 01-.528-.504c-.136-.208-.204-.48-.204-.816 0-.312.06-.58.18-.804.128-.232.304-.424.528-.576.224-.16.488-.276.792-.348.304-.08.636-.12.996-.12.56 0 1.044.088 1.452.264.416.176.772.42 1.068.732l-.624.588a1.758 1.758 0 00-.276-.264 1.465 1.465 0 00-.396-.252 2.24 2.24 0 00-.54-.192 3.222 3.222 0 00-.72-.072c-.488 0-.864.084-1.128.252-.256.168-.384.412-.384.732 0 .16.028.296.084.408a.759.759 0 00.252.252c.104.064.22.116.348.156.136.032.272.06.408.084l.972.144c.224.032.46.076.708.132.248.056.476.148.684.276.208.12.38.284.516.492.144.208.216.48.216.816 0 .616-.24 1.092-.72 1.428-.472.336-1.104.504-1.896.504zm4.663-9.024h.96v3.696h.048c.4-.768 1.036-1.152 1.908-1.152.76 0 1.352.284 1.776.852.432.568.648 1.364.648 2.388 0 1.024-.216 1.82-.648 2.388-.424.568-1.016.852-1.776.852-.872 0-1.508-.384-1.908-1.152h-.048V61h-.96v-8.88zm2.544 8.172c.56 0 .992-.168 1.296-.504.312-.344.468-.796.468-1.356v-1.056c0-.56-.156-1.008-.468-1.344-.304-.344-.736-.516-1.296-.516-.216 0-.42.028-.612.084-.192.056-.36.14-.504.252-.144.104-.26.236-.348.396-.08.152-.12.332-.12.54v2.232c0 .208.04.392.12.552.088.152.204.284.348.396.144.104.312.184.504.24.192.056.396.084.612.084zm9.116-5.484h.96l-3.072 7.548a2.425 2.425 0 01-.24.456 1.1 1.1 0 01-.312.324c-.12.088-.264.152-.432.192a2.201 2.201 0 01-.6.072h-.912v-.816h1.44l.696-1.704-2.496-6.072h.984l1.044 2.592.924 2.352h.048l.924-2.352 1.044-2.592z" fill="#000"/>
  <path fill="#DDFBE5" d="M505 80h45v32h-45z"/>
  <path d="M515.065 93.908h-.084V101h-.912v-8.376h1.428l2.856 7.02h.084v-7.02h.912V101h-1.428l-2.856-7.092zm8.948 7.236c-.448 0-.852-.076-1.212-.228a2.638 2.638 0 01-.912-.648 3.103 3.103 0 01-.576-1.02 4.119 4.119 0 01-.204-1.332c0-.496.068-.944.204-1.344.144-.4.34-.74.588-1.02.248-.288.544-.508.888-.66.352-.152.74-.228 1.164-.228.416 0 .792.076 1.128.228.344.152.636.364.876.636.24.264.424.58.552.948.128.368.192.772.192 1.212v.456h-4.584v.288c0 .272.044.524.132.756.088.232.212.432.372.6.168.168.368.3.6.396.24.088.504.132.792.132.416 0 .776-.096 1.08-.288.304-.192.536-.456.696-.792l.708.48c-.184.416-.492.76-.924 1.032-.424.264-.944.396-1.56.396zm-.06-5.688a1.839 1.839 0 00-1.32.54 1.93 1.93 0 00-.384.6 2.019 2.019 0 00-.132.744v.084h3.552v-.132c0-.272-.044-.52-.132-.744a1.61 1.61 0 00-.348-.576 1.389 1.389 0 00-.54-.384 1.77 1.77 0 00-.696-.132zm4.279 5.544l2.304-3.144-2.244-3.048h1.152l.936 1.308.744 1.032h.048l.72-1.032.924-1.308h1.104l-2.268 3.036L533.98 101h-1.152l-1.044-1.452-.708-.984h-.048l-.684.984-1.008 1.452h-1.104zm10.363 0c-.472 0-.82-.132-1.044-.396-.216-.264-.324-.604-.324-1.02v-3.96h-2.064v-.816h1.536c.208 0 .352-.04.432-.12.088-.088.132-.236.132-.444v-1.62h.924v2.184h2.82v.816h-2.82v4.56h2.82V101h-2.412z" fill="#000"/>
  <path fill="#DDFBE5" d="M513 120h67v32h-67z"/>
  <path d="M523.272 133.908h-.084V141h-.912v-8.376h1.428l2.856 7.02h.084v-7.02h.912V141h-1.428l-2.856-7.092zm8.948 7.236c-.448 0-.852-.076-1.212-.228a2.638 2.638 0 01-.912-.648 3.103 3.103 0 01-.576-1.02 4.119 4.119 0 01-.204-1.332c0-.496.068-.944.204-1.344.144-.4.34-.74.588-1.02.248-.288.544-.508.888-.66.352-.152.74-.228 1.164-.228.416 0 .792.076 1.128.228.344.152.636.364.876.636.24.264.424.58.552.948.128.368.192.772.192 1.212v.456h-4.584v.288c0 .272.044.524.132.756.088.232.212.432.372.6.168.168.368.3.6.396.24.088.504.132.792.132.416 0 .776-.096 1.08-.288.304-.192.536-.456.696-.792l.708.48c-.184.416-.492.76-.924 1.032-.424.264-.944.396-1.56.396zm-.06-5.688a1.839 1.839 0 00-1.32.54 1.93 1.93 0 00-.384.6 2.019 2.019 0 00-.132.744v.084h3.552v-.132c0-.272-.044-.52-.132-.744a1.61 1.61 0 00-.348-.576 1.389 1.389 0 00-.54-.384 1.77 1.77 0 00-.696-.132zm7.447 5.544c-.472 0-.82-.132-1.044-.396-.216-.264-.324-.604-.324-1.02v-3.96h-2.064v-.816h1.536c.208 0 .352-.04.432-.12.088-.088.132-.236.132-.444v-1.62h.924v2.184h2.82v.816h-2.82v4.56h2.82V141h-2.412zm4.255-.816h2.16v-7.248h-2.16v-.816h3.12v8.064h2.16V141h-5.28v-.816zm10.22-6.744c-.28 0-.476-.056-.588-.168a.626.626 0 01-.168-.444v-.192c0-.176.056-.32.168-.432.112-.12.308-.18.588-.18.28 0 .476.06.588.18a.585.585 0 01.168.432v.192a.626.626 0 01-.168.444c-.112.112-.308.168-.588.168zm-2.712 6.744h2.232v-4.56h-2.232v-.816h3.192v5.376h2.088V141h-5.28v-.816zm6.919 0h2.088v-4.56h-2.208v-.816h2.208v-1.272c0-.416.108-.756.324-1.02.224-.264.572-.396 1.044-.396h2.076v.816h-2.484v1.872h2.484v.816h-2.484v4.56h2.208V141h-5.256v-.816zm11.803-5.376h.96l-3.072 7.548a2.425 2.425 0 01-.24.456 1.1 1.1 0 01-.312.324c-.12.088-.264.152-.432.192a2.201 2.201 0 01-.6.072h-.912v-.816h1.44l.696-1.704-2.496-6.072h.984l1.044 2.592.924 2.352h.048l.924-2.352 1.044-2.592z" fill="#000"/>
  <path fill="#DDFBE5" d="M480 160h88v32h-88z"/>
  <path d="M492.127 173.5v7.5h-1.008v-7.5h-2.796v-.876h6.6v.876h-2.796zm8.696 1.308h.96l-3.072 7.548a2.425 2.425 0 01-.24.456 1.1 1.1 0 01-.312.324c-.12.088-.264.152-.432.192a2.201 2.201 0 01-.6.072h-.912v-.816h1.44l.696-1.704-2.496-6.072h.984l1.044 2.592.924 2.352h.048l.924-2.352 1.044-2.592zm2.731 0h.96v1.008h.048c.4-.768 1.036-1.152 1.908-1.152.76 0 1.352.284 1.776.852.432.568.648 1.364.648 2.388 0 1.024-.216 1.82-.648 2.388-.424.568-1.016.852-1.776.852-.872 0-1.508-.384-1.908-1.152h-.048v3.408h-.96v-8.592zm2.544 5.484c.56 0 .992-.168 1.296-.504.312-.344.468-.796.468-1.356v-1.056c0-.56-.156-1.008-.468-1.344-.304-.344-.736-.516-1.296-.516-.216 0-.42.028-.612.084-.192.056-.36.14-.504.252-.144.104-.26.236-.348.396-.08.152-.12.332-.12.54v2.232c0 .208.04.392.12.552.088.152.204.284.348.396.144.104.312.184.504.24.192.056.396.084.612.084zm7.219.852c-.448 0-.852-.076-1.212-.228a2.638 2.638 0 01-.912-.648 3.103 3.103 0 01-.576-1.02 4.119 4.119 0 01-.204-1.332c0-.496.068-.944.204-1.344.144-.4.34-.74.588-1.02.248-.288.544-.508.888-.66.352-.152.74-.228 1.164-.228.416 0 .792.076 1.128.228.344.152.636.364.876.636.24.264.424.58.552.948.128.368.192.772.192 1.212v.456h-4.584v.288c0 .272.044.524.132.756.088.232.212.432.372.6.168.168.368.3.6.396.24.088.504.132.792.132.416 0 .776-.096 1.08-.288.304-.192.536-.456.696-.792l.708.48c-.184.416-.492.76-.924 1.032-.424.264-.944.396-1.56.396zm-.06-5.688a1.839 1.839 0 00-1.32.54 1.93 1.93 0 00-.384.6 2.019 2.019 0 00-.132.744v.084h3.552v-.132c0-.272-.044-.52-.132-.744a1.61 1.61 0 00-.348-.576 1.389 1.389 0 00-.54-.384 1.77 1.77 0 00-.696-.132zm7.124 5.688c-.752 0-1.368-.136-1.848-.408a3.817 3.817 0 01-1.188-1.068l.732-.6c.328.408.672.712 1.032.912.368.2.804.3 1.308.3.608 0 1.072-.14 1.392-.42.32-.28.48-.672.48-1.176 0-.408-.116-.724-.348-.948-.232-.232-.636-.396-1.212-.492l-.936-.156a3.646 3.646 0 01-1.032-.324 2.18 2.18 0 01-.66-.516 1.96 1.96 0 01-.36-.672 2.74 2.74 0 01-.108-.768c0-.768.252-1.348.756-1.74.504-.392 1.184-.588 2.04-.588.672 0 1.236.112 1.692.336.464.224.836.54 1.116.948l-.708.612a2.873 2.873 0 00-.84-.744c-.328-.192-.752-.288-1.272-.288-.568 0-1.004.12-1.308.36-.304.24-.456.6-.456 1.08 0 .376.112.684.336.924.232.232.644.4 1.236.504l.9.156c.408.072.752.18 1.032.324.28.144.504.316.672.516.176.2.3.424.372.672.072.248.108.508.108.78 0 .776-.256 1.384-.768 1.824-.504.44-1.224.66-2.16.66zm7.435 0a3 3 0 01-1.2-.228 2.56 2.56 0 01-.876-.66c-.24-.28-.424-.62-.552-1.02-.12-.4-.18-.844-.18-1.332 0-.488.064-.932.192-1.332s.312-.74.552-1.02c.24-.288.532-.508.876-.66a2.882 2.882 0 011.176-.228c.6 0 1.088.132 1.464.396.376.264.652.608.828 1.032l-.768.408c-.112-.32-.3-.568-.564-.744-.256-.176-.576-.264-.96-.264-.28 0-.532.048-.756.144-.216.088-.4.216-.552.384a1.716 1.716 0 00-.348.6 2.54 2.54 0 00-.108.756v1.056c0 .272.036.524.108.756a1.597 1.597 0 00.912.996c.224.088.48.132.768.132.416 0 .76-.096 1.032-.288.272-.192.488-.456.648-.792l.684.468c-.184.416-.472.76-.864 1.032-.384.272-.888.408-1.512.408zm4.303-.96h1.812v-4.56h-1.812v-.816h2.772v1.56h.06c.128-.488.368-.868.72-1.14.36-.28.816-.42 1.368-.42h.864v.96h-1.164c-.552 0-1 .16-1.344.48-.336.32-.504.74-.504 1.26v2.676h2.4V181h-5.172v-.816zm10.256-6.744c-.28 0-.476-.056-.588-.168a.626.626 0 01-.168-.444v-.192c0-.176.056-.32.168-.432.112-.12.308-.18.588-.18.28 0 .476.06.588.18a.585.585 0 01.168.432v.192a.626.626 0 01-.168.444c-.112.112-.308.168-.588.168zm-2.712 6.744h2.232v-4.56h-2.232v-.816h3.192v5.376h2.088V181h-5.28v-.816zm7.063-5.376h.96v1.008h.048c.4-.768 1.036-1.152 1.908-1.152.76 0 1.352.284 1.776.852.432.568.648 1.364.648 2.388 0 1.024-.216 1.82-.648 2.388-.424.568-1.016.852-1.776.852-.872 0-1.508-.384-1.908-1.152h-.048v3.408h-.96v-8.592zm2.544 5.484c.56 0 .992-.168 1.296-.504.312-.344.468-.796.468-1.356v-1.056c0-.56-.156-1.008-.468-1.344-.304-.344-.736-.516-1.296-.516-.216 0-.42.028-.612.084-.192.056-.36.14-.504.252-.144.104-.26.236-.348.396-.08.152-.12.332-.12.54v2.232c0 .208.04.392.12.552.088.152.204.284.348.396.144.104.312.184.504.24.192.056.396.084.612.084zm7.411.708c-.472 0-.82-.132-1.044-.396-.216-.264-.324-.604-.324-1.02v-3.96h-2.064v-.816h1.536c.208 0 .352-.04.432-.12.088-.088.132-.236.132-.444v-1.62h.924v2.184h2.82v.816h-2.82v4.56h2.82V181h-2.412z" fill="#000"/>
  <path d="M456 103c24.75 0 17.25-87 42-87" stroke="#45BD62" stroke-width="2" stroke-dasharray="4 6"/>
  <circle cx="498" cy="16" r="3" fill="#fff" stroke="#45BD62" stroke-width="2"/>
  <circle cx="456" cy="103" r="3" fill="#fff" stroke="#45BD62" stroke-width="2"/>
  <path d="M456 103c16.083 0 7.917 73 24 73" stroke="#45BD62" stroke-width="2" stroke-dasharray="4 6"/>
  <circle cx="480" cy="176" r="3" fill="#fff" stroke="#45BD62" stroke-width="2"/>
  <circle cx="456" cy="103" r="3" fill="#fff" stroke="#45BD62" stroke-width="2"/>
  <path d="M456 103c26.5 0 30.5 33 57 33" stroke="#45BD62" stroke-width="2" stroke-dasharray="4 6"/>
  <circle cx="513" cy="136" r="3" fill="#fff" stroke="#45BD62" stroke-width="2"/>
  <circle cx="456" cy="103" r="3" fill="#fff" stroke="#45BD62" stroke-width="2"/>
  <path d="M456 103c21 0 28-7 49-7" stroke="#04A4F4" stroke-width="2" stroke-dasharray="4 6"/>
  <circle cx="505" cy="96" r="3" fill="#fff" stroke="#04A4F4" stroke-width="2"/>
  <circle cx="456" cy="103" r="3" fill="#fff" stroke="#04A4F4" stroke-width="2"/>
  <path d="M456 103c21 0 28-7 49-7" stroke="#45BD62" stroke-width="2" stroke-dasharray="4 6"/>
  <circle cx="505" cy="96" r="3" fill="#fff" stroke="#45BD62" stroke-width="2"/>
  <circle cx="456" cy="103" r="3" fill="#fff" stroke="#45BD62" stroke-width="2"/>
  <path d="M456 103c32.25 0 35.75-47 68-47" stroke="#45BD62" stroke-width="2" stroke-dasharray="4 6"/>
  <circle cx="524" cy="56" r="3" fill="#fff" stroke="#45BD62" stroke-width="2"/>
  <circle cx="456" cy="103" r="3" fill="#fff" stroke="#45BD62" stroke-width="2"/>
  <path fill="#E0F7FF" d="M156 119h60v32h-60z"/>
  <path d="M165.494 140v-8.376h3.048c.776 0 1.368.212 1.776.636.408.424.612 1.016.612 1.776s-.204 1.352-.612 1.776c-.408.424-1 .636-1.776.636h-2.04V140h-1.008zm1.008-4.428h2.016c.424 0 .752-.104.984-.312.24-.216.36-.52.36-.912v-.624c0-.392-.12-.692-.36-.9-.232-.216-.56-.324-.984-.324h-2.016v3.072zm9.091-3.132c-.28 0-.476-.056-.588-.168a.626.626 0 01-.168-.444v-.192c0-.176.056-.32.168-.432.112-.12.308-.18.588-.18.28 0 .476.06.588.18a.585.585 0 01.168.432v.192a.626.626 0 01-.168.444c-.112.112-.308.168-.588.168zm-2.712 6.744h2.232v-4.56h-2.232v-.816h3.192v5.376h2.088V140h-5.28v-.816zm6.656.816l2.304-3.144-2.244-3.048h1.152l.936 1.308.744 1.032h.048l.72-1.032.924-1.308h1.104l-2.268 3.036 2.328 3.156h-1.152l-1.044-1.452-.708-.984h-.048l-.684.984-1.008 1.452h-1.104zm10.171.144c-.448 0-.852-.076-1.212-.228a2.638 2.638 0 01-.912-.648 3.103 3.103 0 01-.576-1.02 4.119 4.119 0 01-.204-1.332c0-.496.068-.944.204-1.344.144-.4.34-.74.588-1.02.248-.288.544-.508.888-.66.352-.152.74-.228 1.164-.228.416 0 .792.076 1.128.228.344.152.636.364.876.636.24.264.424.58.552.948.128.368.192.772.192 1.212v.456h-4.584v.288c0 .272.044.524.132.756.088.232.212.432.372.6.168.168.368.3.6.396.24.088.504.132.792.132.416 0 .776-.096 1.08-.288.304-.192.536-.456.696-.792l.708.48c-.184.416-.492.76-.924 1.032-.424.264-.944.396-1.56.396zm-.06-5.688a1.839 1.839 0 00-1.32.54 1.93 1.93 0 00-.384.6 2.019 2.019 0 00-.132.744v.084h3.552v-.132c0-.272-.044-.52-.132-.744a1.61 1.61 0 00-.348-.576 1.389 1.389 0 00-.54-.384 1.77 1.77 0 00-.696-.132zm4.507 4.728h2.16v-7.248h-2.16v-.816h3.12v8.064h2.16V140h-5.28v-.816zm9.908.96c-.648 0-1.208-.108-1.68-.324a3.763 3.763 0 01-1.188-.888l.648-.564c.296.312.62.552.972.72.352.168.776.252 1.272.252.48 0 .872-.084 1.176-.252.312-.176.468-.448.468-.816a.745.745 0 00-.096-.396.638.638 0 00-.24-.264 1.227 1.227 0 00-.348-.144 3.046 3.046 0 00-.408-.096l-.972-.144a10.613 10.613 0 01-.708-.132 2.431 2.431 0 01-.684-.264 1.76 1.76 0 01-.528-.504c-.136-.208-.204-.48-.204-.816 0-.312.06-.58.18-.804.128-.232.304-.424.528-.576.224-.16.488-.276.792-.348.304-.08.636-.12.996-.12.56 0 1.044.088 1.452.264.416.176.772.42 1.068.732l-.624.588a1.758 1.758 0 00-.276-.264 1.465 1.465 0 00-.396-.252 2.24 2.24 0 00-.54-.192 3.222 3.222 0 00-.72-.072c-.488 0-.864.084-1.128.252-.256.168-.384.412-.384.732 0 .16.028.296.084.408a.759.759 0 00.252.252c.104.064.22.116.348.156.136.032.272.06.408.084l.972.144c.224.032.46.076.708.132.248.056.476.148.684.276.208.12.38.284.516.492.144.208.216.48.216.816 0 .616-.24 1.092-.72 1.428-.472.336-1.104.504-1.896.504z" fill="#000"/>
  <path fill="#E0F7FF" d="M156 119h60v32h-60z"/>
  <path d="M165.494 140v-8.376h3.048c.776 0 1.368.212 1.776.636.408.424.612 1.016.612 1.776s-.204 1.352-.612 1.776c-.408.424-1 .636-1.776.636h-2.04V140h-1.008zm1.008-4.428h2.016c.424 0 .752-.104.984-.312.24-.216.36-.52.36-.912v-.624c0-.392-.12-.692-.36-.9-.232-.216-.56-.324-.984-.324h-2.016v3.072zm9.091-3.132c-.28 0-.476-.056-.588-.168a.626.626 0 01-.168-.444v-.192c0-.176.056-.32.168-.432.112-.12.308-.18.588-.18.28 0 .476.06.588.18a.585.585 0 01.168.432v.192a.626.626 0 01-.168.444c-.112.112-.308.168-.588.168zm-2.712 6.744h2.232v-4.56h-2.232v-.816h3.192v5.376h2.088V140h-5.28v-.816zm6.656.816l2.304-3.144-2.244-3.048h1.152l.936 1.308.744 1.032h.048l.72-1.032.924-1.308h1.104l-2.268 3.036 2.328 3.156h-1.152l-1.044-1.452-.708-.984h-.048l-.684.984-1.008 1.452h-1.104zm10.171.144c-.448 0-.852-.076-1.212-.228a2.638 2.638 0 01-.912-.648 3.103 3.103 0 01-.576-1.02 4.119 4.119 0 01-.204-1.332c0-.496.068-.944.204-1.344.144-.4.34-.74.588-1.02.248-.288.544-.508.888-.66.352-.152.74-.228 1.164-.228.416 0 .792.076 1.128.228.344.152.636.364.876.636.24.264.424.58.552.948.128.368.192.772.192 1.212v.456h-4.584v.288c0 .272.044.524.132.756.088.232.212.432.372.6.168.168.368.3.6.396.24.088.504.132.792.132.416 0 .776-.096 1.08-.288.304-.192.536-.456.696-.792l.708.48c-.184.416-.492.76-.924 1.032-.424.264-.944.396-1.56.396zm-.06-5.688a1.839 1.839 0 00-1.32.54 1.93 1.93 0 00-.384.6 2.019 2.019 0 00-.132.744v.084h3.552v-.132c0-.272-.044-.52-.132-.744a1.61 1.61 0 00-.348-.576 1.389 1.389 0 00-.54-.384 1.77 1.77 0 00-.696-.132zm4.507 4.728h2.16v-7.248h-2.16v-.816h3.12v8.064h2.16V140h-5.28v-.816zm9.908.96c-.648 0-1.208-.108-1.68-.324a3.763 3.763 0 01-1.188-.888l.648-.564c.296.312.62.552.972.72.352.168.776.252 1.272.252.48 0 .872-.084 1.176-.252.312-.176.468-.448.468-.816a.745.745 0 00-.096-.396.638.638 0 00-.24-.264 1.227 1.227 0 00-.348-.144 3.046 3.046 0 00-.408-.096l-.972-.144a10.613 10.613 0 01-.708-.132 2.431 2.431 0 01-.684-.264 1.76 1.76 0 01-.528-.504c-.136-.208-.204-.48-.204-.816 0-.312.06-.58.18-.804.128-.232.304-.424.528-.576.224-.16.488-.276.792-.348.304-.08.636-.12.996-.12.56 0 1.044.088 1.452.264.416.176.772.42 1.068.732l-.624.588a1.758 1.758 0 00-.276-.264 1.465 1.465 0 00-.396-.252 2.24 2.24 0 00-.54-.192 3.222 3.222 0 00-.72-.072c-.488 0-.864.084-1.128.252-.256.168-.384.412-.384.732 0 .16.028.296.084.408a.759.759 0 00.252.252c.104.064.22.116.348.156.136.032.272.06.408.084l.972.144c.224.032.46.076.708.132.248.056.476.148.684.276.208.12.38.284.516.492.144.208.216.48.216.816 0 .616-.24 1.092-.72 1.428-.472.336-1.104.504-1.896.504z" fill="#000"/>
  <path fill="#E0F7FF" d="M58 54h52v32H58z"/>
  <path d="M67.092 75v-8.376h5.28v.876H68.1v2.82h3.912v.876H68.1V75h-1.008zm10.099-7.56c-.28 0-.476-.056-.588-.168a.626.626 0 01-.168-.444v-.192c0-.176.056-.32.168-.432.112-.12.308-.18.588-.18.28 0 .476.06.588.18a.585.585 0 01.168.432v.192a.626.626 0 01-.168.444c-.112.112-.308.168-.588.168zm-2.712 6.744h2.232v-4.56h-2.232v-.816h3.192v5.376h2.088V75h-5.28v-.816zm12.655 1.524c0 .624-.26 1.084-.78 1.38-.52.304-1.3.456-2.34.456-1 0-1.72-.132-2.16-.396-.432-.264-.648-.644-.648-1.14 0-.336.088-.596.264-.78.176-.184.424-.32.744-.408v-.144a1.074 1.074 0 01-.408-.336.873.873 0 01-.144-.516c0-.32.104-.56.312-.72.216-.16.484-.28.804-.36v-.048a2.016 2.016 0 01-.9-.744 2.105 2.105 0 01-.312-1.152c0-.312.056-.6.168-.864.112-.264.272-.488.48-.672.216-.192.472-.34.768-.444.296-.104.624-.156.984-.156.464 0 .872.084 1.224.252v-.108c0-.24.056-.44.168-.6.112-.16.304-.24.576-.24h1.14v.84h-1.392v.42c.224.192.396.42.516.684.12.264.18.56.18.888 0 .312-.06.6-.18.864a1.963 1.963 0 01-.48.684 2.235 2.235 0 01-.768.432 2.952 2.952 0 01-.984.156 3.615 3.615 0 01-.588-.048 1.546 1.546 0 00-.3.084.973.973 0 00-.288.144.754.754 0 00-.216.204.47.47 0 00-.084.276c0 .184.092.308.276.372.184.056.424.084.72.084h1.368c.8 0 1.38.152 1.74.456.36.296.54.696.54 1.2zm-.9.048c0-.248-.1-.448-.3-.6-.2-.144-.548-.216-1.044-.216h-2.148c-.416.168-.624.448-.624.84 0 .272.108.504.324.696.216.2.576.3 1.08.3h.936c.56 0 .996-.088 1.308-.264.312-.168.468-.42.468-.756zm-2.268-3.564c.48 0 .832-.112 1.056-.336.232-.224.348-.52.348-.888v-.348c0-.368-.116-.66-.348-.876-.224-.224-.576-.336-1.056-.336-.48 0-.832.112-1.056.336-.224.216-.336.508-.336.876v.348c0 .368.112.664.336.888.224.224.576.336 1.056.336zM88.246 75v-6.192h.888v.72h.048c.096-.24.232-.444.408-.612.176-.168.436-.252.78-.252.36 0 .628.092.804.276.176.176.284.408.324.696h.036c.112-.28.272-.512.48-.696.208-.184.496-.276.864-.276.504 0 .84.176 1.008.528.176.352.264.856.264 1.512V75h-.888v-4.14c0-.528-.056-.892-.168-1.092-.104-.208-.3-.312-.588-.312a.823.823 0 00-.624.252c-.16.16-.24.408-.24.744V75h-.888v-4.14c0-.528-.056-.892-.168-1.092-.104-.208-.296-.312-.576-.312a.862.862 0 00-.636.252c-.16.16-.24.408-.24.744V75h-.888zm12.487 0c-.376 0-.644-.096-.804-.288a1.399 1.399 0 01-.3-.72h-.06c-.136.36-.356.644-.66.852-.296.2-.696.3-1.2.3-.648 0-1.164-.168-1.548-.504-.384-.336-.576-.796-.576-1.38 0-.576.208-1.02.624-1.332.424-.312 1.104-.468 2.04-.468h1.32v-.612c0-.456-.128-.796-.384-1.02-.256-.232-.62-.348-1.092-.348-.416 0-.756.084-1.02.252a1.8 1.8 0 00-.636.66l-.648-.48c.08-.16.188-.316.324-.468a1.94 1.94 0 01.504-.396 2.5 2.5 0 01.684-.276c.256-.072.54-.108.852-.108.728 0 1.304.184 1.728.552.432.368.648.88.648 1.536v3.408h.864V75h-.66zm-2.856-.66c.248 0 .472-.028.672-.084.208-.064.388-.144.54-.24.152-.104.268-.224.348-.36a.86.86 0 00.132-.456v-1.02h-1.32c-.576 0-.996.08-1.26.24a.767.767 0 00-.396.696v.252c0 .32.112.564.336.732.232.16.548.24.948.24z" fill="#000"/>
  <path fill="#E0F7FF" d="M0 94h74v32H0z"/>
  <path d="M13.99 115l-.707-2.388h-2.94L9.635 115H8.59l2.568-8.376h1.332L15.059 115H13.99zm-2.123-7.308h-.108l-1.176 4.044h2.46l-1.176-4.044zm8.647 6.3h-.048c-.4.768-1.036 1.152-1.908 1.152-.76 0-1.356-.284-1.788-.852-.424-.568-.636-1.364-.636-2.388 0-1.024.212-1.82.636-2.388.432-.568 1.028-.852 1.788-.852.872 0 1.508.384 1.908 1.152h.048v-3.696h.96V115h-.96v-1.008zm-1.584.3c.216 0 .42-.028.612-.084.192-.056.36-.136.504-.24.144-.112.256-.244.336-.396.088-.16.132-.344.132-.552v-2.232a1.06 1.06 0 00-.132-.54 1.073 1.073 0 00-.336-.396 1.492 1.492 0 00-.504-.252 2.176 2.176 0 00-.612-.084c-.56 0-.996.172-1.308.516-.304.336-.456.784-.456 1.344v1.056c0 .56.152 1.012.456 1.356.312.336.748.504 1.308.504zm7.28.852c-.433 0-.825-.076-1.177-.228a2.548 2.548 0 01-.888-.648 3.055 3.055 0 01-.552-1.02 4.398 4.398 0 01-.192-1.344c0-.488.064-.932.192-1.332s.312-.74.552-1.02c.248-.288.544-.508.888-.66a2.937 2.937 0 011.176-.228c.432 0 .82.076 1.164.228.352.152.648.372.888.66.248.28.436.62.564 1.02.128.4.192.844.192 1.332 0 .496-.064.944-.192 1.344a2.943 2.943 0 01-.564 1.02 2.41 2.41 0 01-.888.648 2.851 2.851 0 01-1.164.228zm0-.828c.535 0 .967-.16 1.295-.48.328-.32.492-.816.492-1.488v-.888c0-.672-.164-1.168-.492-1.488-.328-.32-.76-.48-1.296-.48s-.968.16-1.296.48c-.328.32-.492.816-.492 1.488v.888c0 .672.164 1.168.492 1.488.328.32.76.48 1.296.48zm4.735-8.196h.96v3.696h.048c.4-.768 1.036-1.152 1.908-1.152.76 0 1.352.284 1.776.852.432.568.648 1.364.648 2.388 0 1.024-.216 1.82-.648 2.388-.424.568-1.016.852-1.776.852-.872 0-1.508-.384-1.908-1.152h-.048V115h-.96v-8.88zm2.544 8.172c.56 0 .992-.168 1.296-.504.312-.344.468-.796.468-1.356v-1.056c0-.56-.156-1.008-.468-1.344-.304-.344-.736-.516-1.296-.516-.216 0-.42.028-.612.084-.192.056-.36.14-.504.252-.144.104-.26.236-.348.396-.08.152-.12.332-.12.54v2.232c0 .208.04.392.12.552.088.152.204.284.348.396.144.104.312.184.504.24.192.056.396.084.612.084zm7.219.852c-.448 0-.852-.076-1.212-.228a2.638 2.638 0 01-.912-.648 3.103 3.103 0 01-.576-1.02 4.119 4.119 0 01-.204-1.332c0-.496.068-.944.204-1.344.144-.4.34-.74.588-1.02.248-.288.544-.508.888-.66.352-.152.74-.228 1.164-.228.416 0 .792.076 1.128.228.344.152.636.364.876.636.24.264.424.58.552.948.128.368.192.772.192 1.212v.456h-4.584v.288c0 .272.044.524.132.756.088.232.212.432.372.6.168.168.368.3.6.396.24.088.504.132.792.132.416 0 .776-.096 1.08-.288.304-.192.536-.456.696-.792l.708.48c-.184.416-.492.76-.924 1.032-.424.264-.944.396-1.56.396zm-.06-5.688a1.839 1.839 0 00-1.32.54 1.93 1.93 0 00-.384.6 2.019 2.019 0 00-.132.744v.084h3.552v-.132c0-.272-.044-.52-.132-.744a1.61 1.61 0 00-.348-.576 1.389 1.389 0 00-.54-.384 1.77 1.77 0 00-.696-.132zM52.123 115l2.304-3.144-2.244-3.048h1.152l.936 1.308.744 1.032h.048l.72-1.032.924-1.308h1.104l-2.268 3.036L57.87 115h-1.152l-1.044-1.452-.708-.984h-.048l-.684.984L53.227 115h-1.104zm7.603-8.376h2.34c1.024 0 1.788.352 2.292 1.056.504.704.756 1.748.756 3.132 0 1.384-.252 2.428-.756 3.132-.504.704-1.268 1.056-2.292 1.056h-2.34v-8.376zm2.292 7.5c.672 0 1.176-.232 1.512-.696.344-.464.516-1.12.516-1.968v-1.296c0-.848-.172-1.504-.516-1.968-.336-.464-.84-.696-1.512-.696h-1.284v6.624h1.284z" fill="#000"/>
  <path fill="#E0F7FF" d="M29 134h81v32H29z"/>
  <path d="M38.201 155v-8.376h3.048c.776 0 1.368.212 1.776.636.408.424.612 1.016.612 1.776s-.204 1.352-.612 1.776c-.408.424-1 .636-1.776.636h-2.04V155h-1.008zm1.008-4.428h2.016c.424 0 .752-.104.984-.312.24-.216.36-.52.36-.912v-.624c0-.392-.12-.692-.36-.9-.232-.216-.56-.324-.984-.324H39.21v3.072zm6.283-4.452h.96v3.696h.048c.064-.152.144-.296.24-.432a1.54 1.54 0 01.348-.372c.144-.104.312-.188.504-.252s.416-.096.672-.096c.648 0 1.168.208 1.56.624.392.408.588.988.588 1.74V155h-.96v-3.804c0-.568-.124-.988-.372-1.26-.248-.28-.612-.42-1.092-.42-.192 0-.38.024-.564.072-.184.048-.348.12-.492.216-.144.096-.26.22-.348.372a1.035 1.035 0 00-.132.528V155h-.96v-8.88zm9.62 9.024c-.432 0-.824-.076-1.176-.228a2.548 2.548 0 01-.888-.648 3.055 3.055 0 01-.552-1.02 4.398 4.398 0 01-.192-1.344c0-.488.064-.932.192-1.332s.312-.74.552-1.02c.248-.288.544-.508.888-.66a2.937 2.937 0 011.176-.228c.432 0 .82.076 1.164.228.352.152.648.372.888.66.248.28.436.62.564 1.02.128.4.192.844.192 1.332 0 .496-.064.944-.192 1.344a2.943 2.943 0 01-.564 1.02 2.41 2.41 0 01-.888.648 2.851 2.851 0 01-1.164.228zm0-.828c.536 0 .968-.16 1.296-.48.328-.32.492-.816.492-1.488v-.888c0-.672-.164-1.168-.492-1.488-.328-.32-.76-.48-1.296-.48s-.968.16-1.296.48c-.328.32-.492.816-.492 1.488v.888c0 .672.164 1.168.492 1.488.328.32.76.48 1.296.48zm7.495.684c-.472 0-.82-.132-1.044-.396-.216-.264-.324-.604-.324-1.02v-3.96h-2.064v-.816h1.536c.208 0 .352-.04.432-.12.088-.088.132-.236.132-.444v-1.62h.924v2.184h2.82v.816h-2.82v4.56h2.82V155h-2.412zm6.895.144c-.432 0-.824-.076-1.176-.228a2.548 2.548 0 01-.888-.648 3.055 3.055 0 01-.552-1.02 4.398 4.398 0 01-.192-1.344c0-.488.064-.932.192-1.332s.312-.74.552-1.02c.248-.288.544-.508.888-.66a2.937 2.937 0 011.176-.228c.432 0 .82.076 1.164.228.352.152.648.372.888.66.248.28.436.62.564 1.02.128.4.192.844.192 1.332 0 .496-.064.944-.192 1.344a2.943 2.943 0 01-.564 1.02 2.41 2.41 0 01-.888.648 2.851 2.851 0 01-1.164.228zm0-.828c.536 0 .968-.16 1.296-.48.328-.32.492-.816.492-1.488v-.888c0-.672-.164-1.168-.492-1.488-.328-.32-.76-.48-1.296-.48s-.968.16-1.296.48c-.328.32-.492.816-.492 1.488v.888c0 .672.164 1.168.492 1.488.328.32.76.48 1.296.48zm7.268.828c-.648 0-1.208-.108-1.68-.324a3.763 3.763 0 01-1.188-.888l.648-.564c.296.312.62.552.972.72.352.168.776.252 1.272.252.48 0 .872-.084 1.176-.252.312-.176.468-.448.468-.816a.745.745 0 00-.096-.396.638.638 0 00-.24-.264 1.227 1.227 0 00-.348-.144 3.046 3.046 0 00-.408-.096l-.972-.144a10.613 10.613 0 01-.708-.132 2.431 2.431 0 01-.684-.264 1.76 1.76 0 01-.528-.504c-.136-.208-.204-.48-.204-.816 0-.312.06-.58.18-.804.128-.232.304-.424.528-.576.224-.16.488-.276.792-.348.304-.08.636-.12.996-.12.56 0 1.044.088 1.452.264.416.176.772.42 1.068.732l-.624.588a1.758 1.758 0 00-.276-.264 1.465 1.465 0 00-.396-.252 2.24 2.24 0 00-.54-.192 3.222 3.222 0 00-.72-.072c-.488 0-.864.084-1.128.252-.256.168-.384.412-.384.732 0 .16.028.296.084.408a.759.759 0 00.252.252c.104.064.22.116.348.156.136.032.272.06.408.084l.972.144c.224.032.46.076.708.132.248.056.476.148.684.276.208.12.38.284.516.492.144.208.216.48.216.816 0 .616-.24 1.092-.72 1.428-.472.336-1.104.504-1.896.504zm4.699-9.024h.96v3.696h.048c.064-.152.144-.296.24-.432a1.54 1.54 0 01.348-.372c.144-.104.312-.188.504-.252s.416-.096.672-.096c.648 0 1.168.208 1.56.624.392.408.588.988.588 1.74V155h-.96v-3.804c0-.568-.124-.988-.372-1.26-.248-.28-.612-.42-1.092-.42-.192 0-.38.024-.564.072-.184.048-.348.12-.492.216-.144.096-.26.22-.348.372a1.035 1.035 0 00-.132.528V155h-.96v-8.88zm9.62 9.024c-.433 0-.825-.076-1.177-.228a2.548 2.548 0 01-.888-.648 3.055 3.055 0 01-.552-1.02 4.398 4.398 0 01-.192-1.344c0-.488.064-.932.192-1.332s.312-.74.552-1.02c.248-.288.544-.508.888-.66a2.937 2.937 0 011.176-.228c.432 0 .82.076 1.164.228.352.152.648.372.888.66.248.28.436.62.564 1.02.128.4.192.844.192 1.332 0 .496-.064.944-.192 1.344a2.943 2.943 0 01-.564 1.02 2.41 2.41 0 01-.888.648 2.851 2.851 0 01-1.164.228zm0-.828c.535 0 .967-.16 1.295-.48.328-.32.492-.816.492-1.488v-.888c0-.672-.164-1.168-.492-1.488-.328-.32-.76-.48-1.296-.48s-.968.16-1.296.48c-.328.32-.492.816-.492 1.488v.888c0 .672.164 1.168.492 1.488.328.32.76.48 1.296.48zm4.735-5.508h.96v1.008h.048c.4-.768 1.036-1.152 1.908-1.152.76 0 1.352.284 1.776.852.432.568.648 1.364.648 2.388 0 1.024-.216 1.82-.648 2.388-.424.568-1.016.852-1.776.852-.872 0-1.508-.384-1.908-1.152h-.048v3.408h-.96v-8.592zm2.544 5.484c.56 0 .992-.168 1.296-.504.312-.344.468-.796.468-1.356v-1.056c0-.56-.156-1.008-.468-1.344-.304-.344-.736-.516-1.296-.516-.216 0-.42.028-.612.084-.192.056-.36.14-.504.252-.144.104-.26.236-.348.396-.08.152-.12.332-.12.54v2.232c0 .208.04.392.12.552.088.152.204.284.348.396.144.104.312.184.504.24.192.056.396.084.612.084z" fill="#000"/>
  <path fill="#E0F7FF" d="M72 174h60v32H72z"/>
  <path d="M83.99 195.144c-.752 0-1.368-.136-1.848-.408a3.817 3.817 0 01-1.188-1.068l.732-.6c.328.408.672.712 1.032.912.368.2.804.3 1.308.3.608 0 1.072-.14 1.392-.42.32-.28.48-.672.48-1.176 0-.408-.116-.724-.348-.948-.232-.232-.636-.396-1.212-.492l-.936-.156a3.646 3.646 0 01-1.032-.324 2.18 2.18 0 01-.66-.516 1.96 1.96 0 01-.36-.672 2.74 2.74 0 01-.108-.768c0-.768.252-1.348.756-1.74.504-.392 1.184-.588 2.04-.588.672 0 1.236.112 1.692.336.464.224.836.54 1.116.948l-.708.612a2.873 2.873 0 00-.84-.744c-.328-.192-.752-.288-1.272-.288-.568 0-1.004.12-1.308.36-.304.24-.456.6-.456 1.08 0 .376.112.684.336.924.232.232.644.4 1.236.504l.9.156c.408.072.752.18 1.032.324.28.144.504.316.672.516.176.2.3.424.372.672.072.248.108.508.108.78 0 .776-.256 1.384-.768 1.824-.504.44-1.224.66-2.16.66zm4.88-9.024h.96v5.604h.047l1.08-1.02 2.064-1.896h1.176l-2.568 2.424L94.497 195H93.31l-2.412-3.216-1.068.972V195h-.96v-8.88zm9.643 9.024c-.448 0-.852-.076-1.212-.228a2.638 2.638 0 01-.912-.648 3.103 3.103 0 01-.576-1.02 4.119 4.119 0 01-.204-1.332c0-.496.068-.944.204-1.344.144-.4.34-.74.588-1.02.248-.288.544-.508.888-.66.352-.152.74-.228 1.164-.228.416 0 .792.076 1.128.228a2.5 2.5 0 01.876.636c.24.264.424.58.552.948.128.368.192.772.192 1.212v.456h-4.584v.288c0 .272.044.524.132.756.088.232.212.432.372.6.168.168.368.3.6.396.24.088.504.132.792.132.416 0 .776-.096 1.08-.288.304-.192.536-.456.696-.792l.708.48c-.184.416-.492.76-.924 1.032-.424.264-.944.396-1.56.396zm-.06-5.688a1.839 1.839 0 00-1.32.54 1.93 1.93 0 00-.384.6 2.019 2.019 0 00-.132.744v.084h3.552v-.132c0-.272-.044-.52-.132-.744a1.616 1.616 0 00-.348-.576 1.389 1.389 0 00-.54-.384 1.77 1.77 0 00-.696-.132zM105.9 195c-.472 0-.82-.132-1.044-.396-.216-.264-.324-.604-.324-1.02v-3.96h-2.064v-.816h1.536c.208 0 .352-.04.432-.12.088-.088.132-.236.132-.444v-1.62h.924v2.184h2.82v.816h-2.82v4.56h2.82V195H105.9zm7.111.144a3 3 0 01-1.2-.228 2.56 2.56 0 01-.876-.66c-.24-.28-.424-.62-.552-1.02-.12-.4-.18-.844-.18-1.332 0-.488.064-.932.192-1.332s.312-.74.552-1.02c.24-.288.532-.508.876-.66a2.882 2.882 0 011.176-.228c.6 0 1.088.132 1.464.396.376.264.652.608.828 1.032l-.768.408c-.112-.32-.3-.568-.564-.744-.256-.176-.576-.264-.96-.264-.28 0-.532.048-.756.144-.216.088-.4.216-.552.384a1.716 1.716 0 00-.348.6 2.54 2.54 0 00-.108.756v1.056c0 .272.036.524.108.756a1.597 1.597 0 00.912.996c.224.088.48.132.768.132.416 0 .76-.096 1.032-.288.272-.192.488-.456.648-.792l.684.468c-.184.416-.472.76-.864 1.032-.384.272-.888.408-1.512.408zm4.556-9.024h.96v3.696h.048c.064-.152.144-.296.24-.432a1.54 1.54 0 01.348-.372c.144-.104.312-.188.504-.252s.416-.096.672-.096c.648 0 1.168.208 1.56.624.392.408.588.988.588 1.74V195h-.96v-3.804c0-.568-.124-.988-.372-1.26-.248-.28-.612-.42-1.092-.42-.192 0-.38.024-.564.072-.184.048-.348.12-.492.216-.144.096-.26.22-.348.372a1.035 1.035 0 00-.132.528V195h-.96v-8.88z" fill="#000"/>
  <path d="M110 150c20.417 0 25.583-15 46-15" stroke="#04A4F4" stroke-width="2" stroke-dasharray="4 6"/>
  <circle cx="156" cy="135" r="3" fill="#fff" stroke="#04A4F4" stroke-width="2"/>
  <circle cx="110" cy="150" r="3" fill="#fff" stroke="#04A4F4" stroke-width="2"/>
  <path d="M132 190c14.583 0 9.417-55 24-55" stroke="#04A4F4" stroke-width="2" stroke-dasharray="4 6"/>
  <circle cx="156" cy="135" r="3" fill="#fff" stroke="#04A4F4" stroke-width="2"/>
  <circle cx="132" cy="190" r="3" fill="#fff" stroke="#04A4F4" stroke-width="2"/>
  <path d="M74 110c36.25 0 45.75 25 82 25" stroke="#04A4F4" stroke-width="2" stroke-dasharray="4 6"/>
  <circle cx="156" cy="135" r="3" fill="#fff" stroke="#04A4F4" stroke-width="2"/>
  <circle cx="74" cy="110" r="3" fill="#fff" stroke="#04A4F4" stroke-width="2"/>
  <path d="M110 70c24.583 0 21.417 65 46 65" stroke="#04A4F4" stroke-width="2" stroke-dasharray="4 6"/>
  <circle cx="156" cy="135" r="3" fill="#fff" stroke="#04A4F4" stroke-width="2"/>
  <circle cx="110" cy="70" r="3" fill="#fff" stroke="#04A4F4" stroke-width="2"/>
  <path d="M264 119l-10.097-5.602.197 11.545L264 119zm-48 12c.688 0 1.362-.012 2.02-.034l-.069-1.999A56.35 56.35 0 01216 129v2zm8.067-.585a49.964 49.964 0 003.971-.765l-.456-1.947a48.4 48.4 0 01-3.813.734l.298 1.978zm9.781-2.469a96.797 96.797 0 003.758-1.405l-.735-1.86c-1.209.477-2.428.94-3.679 1.376l.656 1.889zm9.281-3.627a96.832 96.832 0 013.679-1.376l-.656-1.889a96.797 96.797 0 00-3.758 1.405l.735 1.86zm9.289-3.022a48.4 48.4 0 013.813-.734l-.298-1.978a49.964 49.964 0 00-3.971.765l.456 1.947z" fill="#04A4F4"/>
  <circle cx="216" cy="130" r="3" fill="#fff" stroke="#04A4F4" stroke-width="2"/>
  <path d="M368 96l-10.791-4.11 1.836 11.4L368 96zm-48 24c9.649 0 15.98-4.32 21.66-9.137 5.727-4.858 10.658-10.052 17.78-12.486l-.647-1.892c-7.587 2.592-12.92 8.182-18.427 12.853C334.812 114.048 328.938 118 320 118v2z" fill="#45BD62"/>
  <circle cx="320" cy="119" r="3" fill="#fff" stroke="#45BD62" stroke-width="2"/>
  <defs>
    <linearGradient id="Ud9RZpg1Aa" x1="277" y1="125" x2="307" y2="125" gradientUnits="userSpaceOnUse">
      <stop stop-color="#1877F2"/>
      <stop offset="1" stop-color="#04A4F4"/>
    </linearGradient>
    <linearGradient id="Ud9RZpg1Ab" x1="285" y1="125" x2="299" y2="125" gradientUnits="userSpaceOnUse">
      <stop stop-color="#F02849"/>
      <stop offset="1" stop-color="#F5533D"/>
    </linearGradient>
    <linearGradient id="Ud9RZpg1Ac" x1="281" y1="125" x2="303" y2="125" gradientUnits="userSpaceOnUse">
      <stop stop-color="#45BD62"/>
      <stop offset="1" stop-color="#2ABBA7"/>
    </linearGradient>
  </defs>
</svg>
