<svg xmlns="http://www.w3.org/2000/svg" data-name="Layer 1" viewBox="0 0 108.6 24.45">
  <path d="M54 6.25c-4.13 0-7.1 2.69-7.1 6.72s3.35 6.72 7.47 6.72a7.72 7.72 0 006-2.64l-2.83-1.65a4.3 4.3 0 01-3.19 1.3 4 4 0 01-3.87-2.42h10.46a7 7 0 00.13-1.28c0-4-3-6.72-7.09-6.72zm-3.54 5.42a3.78 3.78 0 017.06 0zm43.73-5.42c-4.12 0-7.1 2.69-7.1 6.72s3.35 6.72 7.47 6.72a7.72 7.72 0 006-2.64l-2.81-1.65a4.28 4.28 0 01-3.19 1.3 4 4 0 01-3.87-2.42h10.46a6.26 6.26 0 00.13-1.31c0-4-3-6.72-7.09-6.72zm-3.53 5.42a3.78 3.78 0 017.06 0zM76.08 13a3.78 3.78 0 007 1.9L86 16.52a6.9 6.9 0 01-6.15 3.17c-4.13 0-7.1-2.68-7.1-6.72s3-6.72 7.1-6.72A6.91 6.91 0 0186 9.42l-2.9 1.66a3.78 3.78 0 00-7 1.89zm30.81-10.86v17.18h-3.37V2.14zM15.1.28l13.8 23.9H1.31zm34.5 1.86L39.25 20.07 28.91 2.14h3.88l6.46 11.21 6.47-11.21zm22 4.48v3.62a4.17 4.17 0 00-1.19-.18 3.57 3.57 0 00-3.74 3.73v5.53h-3.36V6.62h3.36v3.44c0-1.9 2.21-3.44 4.93-3.44z"/>
</svg>
