<svg fill="none" xmlns="http://www.w3.org/2000/svg" viewBox="0 0 114 40">
  <path d="M47.011 26h2.46v-3.773h2.069c2.676 0 4.233-1.596 4.233-3.92 0-2.313-1.529-3.943-4.17-3.943H47.01V26zm2.46-5.744v-3.881h1.66c1.42 0 2.108.773 2.108 1.932 0 1.153-.688 1.949-2.097 1.949h-1.67zm10.435-5.892h-2.42V26h2.42V14.364zm5.315 11.778c1.409 0 2.142-.813 2.477-1.54h.102V26h2.386v-8.727h-2.414v1.466h-.074c-.324-.71-1.023-1.58-2.483-1.58-1.915 0-3.534 1.489-3.534 4.489 0 2.92 1.55 4.494 3.54 4.494zm.767-1.926c-1.188 0-1.836-1.057-1.836-2.58 0-1.511.637-2.55 1.836-2.55 1.176 0 1.835.994 1.835 2.55 0 1.557-.67 2.58-1.835 2.58zm13.61-4.455c-.216-1.608-1.511-2.602-3.716-2.602-2.233 0-3.705 1.034-3.699 2.716-.006 1.307.818 2.153 2.523 2.494l1.511.302c.762.153 1.108.431 1.12.869-.012.517-.574.886-1.42.886-.865 0-1.438-.37-1.586-1.08l-2.38.126c.226 1.67 1.647 2.698 3.96 2.698 2.26 0 3.88-1.153 3.886-2.875-.006-1.26-.83-2.017-2.523-2.363l-1.58-.318c-.812-.177-1.113-.455-1.108-.875-.005-.523.586-.864 1.336-.864.84 0 1.34.46 1.46 1.023l2.216-.137zM81.48 26h2.42v-5.239c0-.965.614-1.608 1.42-1.608.796 0 1.33.546 1.33 1.404V26h2.347v-5.33c0-.903.517-1.517 1.398-1.517.772 0 1.352.483 1.352 1.455V26h2.415v-5.87c0-1.891-1.125-2.97-2.75-2.97-1.279 0-2.273.652-2.631 1.652h-.09c-.28-1.01-1.171-1.653-2.37-1.653-1.176 0-2.068.625-2.432 1.654h-.102v-1.54H81.48V26zm14.754 0h2.42v-8.727h-2.42V26zm1.216-9.852c.721 0 1.312-.551 1.312-1.227 0-.671-.59-1.222-1.312-1.222-.716 0-1.307.551-1.307 1.222 0 .676.59 1.227 1.307 1.227zm7.246 10.023c2.324 0 3.784-1.364 3.898-3.37h-2.284c-.142.932-.756 1.455-1.585 1.455-1.131 0-1.864-.95-1.864-2.62 0-1.647.739-2.59 1.864-2.59.886 0 1.454.585 1.585 1.454h2.284c-.102-2.017-1.631-3.34-3.909-3.34-2.648 0-4.284 1.834-4.284 4.51 0 2.654 1.608 4.5 4.295 4.5z" fill="#050505"/>
  <rect width="40" height="40" rx="10" fill="#F5F7FA"/>
  <path fill-rule="evenodd" clip-rule="evenodd" d="M34 26h-2v-1c0-6.627-5.373-12-12-12S8 18.374 8 25v1H6a1 1 0 01-1-1c0-8.284 6.716-15 15-15 8.284 0 15 6.716 15 15a1 1 0 01-1 1z" fill="url(#5ALeOwrNka)"/>
  <path d="M27 25a7 7 0 00-14 0v1h2a1 1 0 001-1 4 4 0 018 0 1 1 0 001 1h2v-1z" fill="url(#5ALeOwrNkb)"/>
  <path d="M30.999 25c0-6.075-4.924-11-10.999-11S9.001 18.926 9.001 25H9v1h3v-1a8 8 0 0116 0v1h3v-1h-.001z" fill="url(#5ALeOwrNkc)"/>
  <defs>
    <linearGradient id="5ALeOwrNka" x1="5" y1="26" x2="35" y2="26" gradientUnits="userSpaceOnUse">
      <stop stop-color="#1877F2"/>
      <stop offset="1" stop-color="#04A4F4"/>
    </linearGradient>
    <linearGradient id="5ALeOwrNkb" x1="13" y1="26" x2="27" y2="26" gradientUnits="userSpaceOnUse">
      <stop stop-color="#F02849"/>
      <stop offset="1" stop-color="#F5533D"/>
    </linearGradient>
    <linearGradient id="5ALeOwrNkc" x1="9" y1="26" x2="31" y2="26" gradientUnits="userSpaceOnUse">
      <stop stop-color="#45BD62"/>
      <stop offset="1" stop-color="#2ABBA7"/>
    </linearGradient>
  </defs>
</svg>
