<svg xmlns="http://www.w3.org/2000/svg" fill="none" viewBox="0 0 1008 254">
  <path clip-rule="evenodd" d="M615 192.697v-9.373c8.556 5.419 17.222 8.128 26 8.128 9.333 0 16.417-1.921 21.25-5.764s7.25-9.22 7.25-16.132c0-6.082-1.625-10.934-4.875-14.556-3.134-3.492-9.793-8.205-19.979-14.14l-1.146-.664c-12.111-7.023-19.778-12.898-23-17.625-3.222-4.728-4.833-10.188-4.833-16.381 0-8.405 3.277-15.537 9.833-21.398C632.056 78.93 640.806 76 651.75 76c7.111 0 14.222 1.189 21.333 3.566v8.626c-7-3.152-14.472-4.727-22.416-4.727-8.111 0-14.542 2.045-19.292 6.137-4.75 4.092-7.125 9.29-7.125 15.593 0 6.082 1.625 10.92 4.875 14.514s10.264 8.488 21.042 14.681c11.166 6.303 18.597 11.902 22.291 16.795 3.695 4.894 5.542 10.52 5.542 16.878 0 9.124-3.181 16.561-9.542 22.311-6.361 5.751-15.347 8.626-26.958 8.626-4.111 0-8.847-.636-14.208-1.908-5.361-1.271-9.459-2.737-12.292-4.395zM318.828 94.763H353V78h-88v16.763h34.089V197h19.739zM384.5 210.606L423 112h-19.5l-21.333 61.919a204.512 204.512 0 00-1.19 4.636l-.31 1.34h-.417a404.334 404.334 0 00-1.061-4.445l-.439-1.697L358.417 112H337l33.917 84.827-5.75 13.945c-3.556 7.082-8.945 10.624-16.167 10.624-2.5 0-5.278-.498-8.333-1.494v16.019c2.722.719 6.111 1.079 10.166 1.079 14.445 0 25.667-8.798 33.667-26.394zm70.147-26.2h-.333V236H435V111.991h19.314v14.931h.333C461.251 115.64 470.908 110 483.618 110c10.822 0 19.258 3.788 25.308 11.364 6.049 7.576 9.074 17.751 9.074 30.525 0 14.157-3.413 25.493-10.24 34.01-6.826 8.516-16.15 12.774-27.972 12.774-10.878 0-19.258-4.756-25.141-14.267zM454 161.889v-10.478c0-7.26 2.093-13.31 6.28-18.151 4.186-4.84 9.717-7.26 16.593-7.26 6.488 0 11.631 2.351 15.429 7.054 3.799 4.703 5.698 11.207 5.698 19.512 0 9.901-2.038 17.615-6.113 23.142-4.076 5.528-9.69 8.292-16.844 8.292-6.099 0-11.131-2.145-15.096-6.435S454 168.049 454 161.889zm151-2.159h-57.606c.221 7.86 2.628 13.92 7.222 18.182s10.907 6.393 18.94 6.393c9.024 0 17.304-2.712 24.842-8.136v15.525c-7.703 4.871-17.882 7.306-30.536 7.306-12.435 0-22.187-3.861-29.257-11.582S528 168.835 528 154.832c0-13.228 3.893-24.007 11.678-32.337S557.133 110 568.687 110s20.495 3.736 26.822 11.208S605 139.058 605 152.341zm-22.854-29.938c3.181 3.861 4.799 9.264 4.854 16.208h-39c.878-6.556 3.223-11.861 7.035-15.917 3.812-4.055 8.461-6.083 13.946-6.083 5.595 0 9.983 1.931 13.165 5.792zM726.907 199c8.813 0 16.399-1.934 22.758-5.801v-7.955c-6.359 4.53-13.833 6.795-22.423 6.795-9.372 0-16.916-3.342-22.633-10.027-5.718-6.685-8.577-15.524-8.577-26.518 0-11.38 3.124-20.647 9.372-27.802 6.247-7.154 14.391-10.731 24.431-10.731 7.308 0 14.029 1.878 20.165 5.635v-8.618c-6.136-2.652-12.467-3.978-18.993-3.978-12.607 0-22.926 4.295-30.958 12.886-8.033 8.591-12.049 19.626-12.049 33.106 0 12.817 3.57 23.189 10.71 31.116 7.14 7.928 16.539 11.892 28.197 11.892zM800 119.667c-2.54-1.834-5.521-2.75-8.944-2.75-6.681 0-12.284 3.472-16.812 10.416-4.527 6.945-6.791 16.806-6.791 29.584V197H760v-85.333h7.453v18.916h.332c1.932-6.5 4.996-11.555 9.192-15.166S786.032 110 791.553 110c3.147 0 5.963.5 8.447 1.5zm11.942-30.549c1.294 1.255 2.785 1.882 4.474 1.882 1.8 0 3.348-.656 4.642-1.967 1.295-1.311 1.942-2.88 1.942-4.704 0-1.939-.661-3.478-1.984-4.618-1.322-1.14-2.856-1.711-4.6-1.711-1.632 0-3.11.584-4.432 1.753-1.323 1.17-1.984 2.694-1.984 4.576 0 1.939.647 3.535 1.942 4.79zM812 197v-85h8v85zm33.624-15.13h.331c6.077 11.439 15.469 17.159 28.175 17.159 11.38 0 20.537-4.38 27.47-13.139s10.4-20.24 10.4-34.443c0-12.765-3.025-22.865-9.074-30.298S888.466 110 877.693 110c-6.795 0-13.024 1.699-18.686 5.098-5.663 3.399-10.013 8.22-13.052 14.465h-.331v-17.491H838V236h7.624zm.376-31.592v10.679c0 8.499 2.706 15.797 8.118 21.896 5.412 6.098 12.525 9.147 21.34 9.147 8.76 0 15.873-3.711 21.341-11.134 5.467-7.423 8.201-17.177 8.201-29.263 0-10.596-2.511-19.012-7.532-25.249-5.021-6.236-11.716-9.354-20.085-9.354-9.987 0-17.714 3.311-23.182 9.934-5.467 6.622-8.201 14.404-8.201 23.344zM948.874 199c3.461 0 7.17-.938 11.126-2.814v-7.119c-3.626 2.042-7.005 3.063-10.137 3.063-4.396 0-7.514-1.311-9.355-3.932-1.84-2.621-2.761-6.856-2.761-12.706v-55.955H960v-6.953h-22.253V88a61.184 61.184 0 01-3.791 1.242c-1.319.441-2.582.883-3.791 1.324v22.018H915v6.953h15.165v56.948c0 15.01 6.236 22.515 18.709 22.515z" fill="#3178c6" fill-rule="evenodd"/>
  <rect height="250" rx="14" stroke="#3178c6" stroke-width="4" width="1004" x="2" y="2"/>
</svg>
