<svg fill="none" xmlns="http://www.w3.org/2000/svg" viewBox="0 0 1440 760">
  <path d="M195.054 473.64s11.406-123.275-62.299-144.327c1.423-25.271-7.533-69.713-54.742-45.313C78.013 194.4 0 191.63 0 191.63V760h1440V0c-53.38 24.435-19.15 82.9-19.15 82.9-57.79 5.581-21.82 53.943-21.82 53.943-44.78 56.817 16.65 112.651 16.65 112.651S1354 227 1341.32 291.906c0 0-74.32-12.906-91.19 51.913C1233.26 408.638 1229 306 1076 306s-183.679 77.177-183.679 77.177c-139.201-30.438-131.782 83.071-131.782 83.071-45.923-8.498-31.934 49.334-31.934 49.334-113.893 32.128-90.548 121.073-90.548 121.073-25.246-30.311-54.897-3.254-54.897-3.254C563 542 497 593.5 466 618.5c-11.6-78.8-41-91.777-78.5-69-26.705-50.433-84.804-20.777-84.804-20.777-35.941-96.555-107.642-55.083-107.642-55.083z" fill="#fff"/>
</svg>
