<svg fill="none" xmlns="http://www.w3.org/2000/svg" viewBox="0 0 1101 678">
  <path d="M0 0s81.502 19.485 88.608 115.224C88.608 115.224 164 63 176 160c0 0 90.13-9 50.85 80.743 0 0 55.662 23.47 7.605 71.897 0 0 33.901 1.096 31.675 45.436 0 0 46.87-84.076 108.733-11.352 0 0 74.637-44.224 102.137 40.097 0 0 66-42.181 75.563 40.49 0 0 66.16-46.773 70.894 39.766 0 0 31.206-49.709 71.042-10.468 0 0 8-136.343 133.179-136.343 125.178 0 130.517 74.624 130.517 74.624s38.305-44.069 54.305 21.719c0 0 0-65.788 88.5-65.788V678H0V0z" fill="#fff"/>
</svg>
