<svg fill="none" xmlns="http://www.w3.org/2000/svg" viewBox="0 0 1443 458">
  <path d="M60.22 421.532C32.5 398.5 0 415.167 0 415.167V458h1442.58V7.067c-168.37-41.344-240.02 112.215-240.02 112.215-34.68-4.05-38.12 38.068-38.12 38.068-43.58-32.288-82.06 10.382-82.06 10.382-5.98-50.327-47.2-38.804-47.2-38.804-22.18-64.943-71.133-15.831-71.133-15.831-76.949-24.85-97.618 7.216-97.618 7.216-39.444-13.696-37.861 31.367-37.861 31.367-33.116-.92-27.281 28.054-27.281 28.054C691.377 121.676 656 266.5 656 266.5c-53.117-12-77 1-89.5 38.767-44-13.767-55.5 30.643-55.5 30.643s-27.133-52.729-59-57.91c-38.695-6.292-65.5 17-82 57.91-66.35-38.91-66.35 34.3-66.35 34.3-70.285-14.322-112.524 42.743-112.524 42.743C152.5 370.21 84 370.21 60.22 421.532z" fill="#fff"/>
</svg>
