<svg fill="none" xmlns="http://www.w3.org/2000/svg" viewBox="0 0 592 433">
  <path stroke="#E4E6EB" d="M295.5 0v24M290 .5h11m-11 0h11m-11 432h11m-5.5-24.5v24"/>
  <path d="M296 217l2.469-5.219-5.754.471L296 217zm-23.5-73c0 21.37 4.946 34.172 10.273 43.843 1.329 2.413 2.68 4.628 3.978 6.726 1.301 2.102 2.544 4.079 3.669 6.033 2.247 3.904 3.997 7.67 4.72 11.994l.986-.165c-.751-4.494-2.567-8.381-4.84-12.328-1.135-1.971-2.39-3.968-3.684-6.06-1.297-2.095-2.637-4.293-3.953-6.682-5.253-9.537-10.149-22.174-10.149-43.361h-1z" fill="#E4E6EB"/>
  <path d="M296 217l3.862-4.291-5.647-1.2L296 217zm64.5-73c0 8.21-3.44 15.384-8.776 21.842-5.341 6.465-12.558 12.185-20.059 17.477-3.749 2.645-7.561 5.177-11.239 7.641-3.676 2.462-7.219 4.856-10.419 7.218-6.376 4.704-11.484 9.343-13.533 14.225l.922.387c1.931-4.601 6.822-9.098 13.205-13.808 3.179-2.346 6.705-4.728 10.381-7.191 3.674-2.461 7.498-5.001 11.259-7.655 7.52-5.305 14.826-11.087 20.254-17.657 5.432-6.575 9.005-13.966 9.005-22.479h-1z" fill="#E4E6EB"/>
  <path d="M296 217l2.042-5.4-5.698.932L296 217zm-91.5-117c0 36.239 20.575 58.01 42.124 73.938 5.386 3.981 10.837 7.601 16.045 10.99 5.212 3.392 10.172 6.548 14.597 9.616 4.424 3.067 8.291 6.03 11.315 9.026 3.025 2.997 5.18 6.003 6.218 9.149l.95-.313c-1.106-3.354-3.38-6.49-6.464-9.546-3.086-3.058-7.009-6.06-11.45-9.138-4.44-3.078-9.421-6.248-14.62-9.632-5.204-3.387-10.635-6.993-15.997-10.956C225.774 157.283 205.5 135.772 205.5 100h-1zM296 217l-3.711 4.423 5.685 1.002L296 217zm-43.5 79c0-21.011 9.246-35.294 19.269-46.469 5.029-5.607 10.208-10.385 14.567-14.894 4.328-4.477 7.84-8.682 9.355-13.042l-.945-.329c-1.435 4.132-4.8 8.198-9.129 12.676-4.298 4.446-9.555 9.305-14.593 14.922C260.913 260.137 251.5 274.648 251.5 296h1z" fill="#E4E6EB"/>
  <path d="M296 217l-2.066 5.391 5.702-.906L296 217zm37.5 71c0-21.263-7.86-34.063-16.355-43.517-4.224-4.7-8.645-8.612-12.253-12.259-3.637-3.676-6.469-7.101-7.709-10.933l-.952.308c1.319 4.073 4.302 7.641 7.95 11.329 3.678 3.717 8.01 7.538 12.22 12.223 8.371 9.315 16.099 21.887 16.099 42.849h1z" fill="#E4E6EB"/>
  <path d="M296 217l-3.898 4.259 5.637 1.246L296 217zM188.5 332c0-35.607 23.87-57.092 49.246-72.732 12.7-7.828 25.693-14.144 36.269-20.06 5.275-2.951 9.944-5.801 13.636-8.678 3.686-2.872 6.442-5.804 7.834-8.932l-.913-.407c-1.295 2.908-3.899 5.717-7.535 8.55-3.631 2.829-8.247 5.65-13.51 8.594-10.499 5.873-23.591 12.245-36.305 20.081C211.771 274.103 187.5 295.848 187.5 332h1z" fill="#E4E6EB"/>
  <path d="M296 217l-3.152 4.837 5.765.311L296 217zm-13.5 115c0-35.003 2.972-58.105 6.173-74.694 1.601-8.298 3.259-14.968 4.637-20.7 1.376-5.725 2.476-10.529 2.945-15.06l-.995-.103c-.461 4.455-1.545 9.197-2.922 14.929-1.376 5.725-3.041 12.42-4.647 20.744-3.213 16.655-6.191 39.821-6.191 74.884h1z" fill="#E4E6EB"/>
  <path d="M296 217l-1.739 5.505 5.637-1.246L296 217zm108.5 115c0-36.152-24.271-57.897-49.722-73.584-12.714-7.836-25.806-14.208-36.305-20.081-5.263-2.944-9.879-5.765-13.51-8.594-3.636-2.833-6.24-5.642-7.535-8.55l-.913.407c1.392 3.128 4.147 6.06 7.834 8.932 3.692 2.877 8.361 5.727 13.636 8.678 10.576 5.916 23.569 12.232 36.269 20.06C379.63 274.908 403.5 296.393 403.5 332h1zM296 217l3.264-4.762-5.757-.446L296 217zm23.5-117c0 35.243-5.168 58.408-10.697 75.207-2.766 8.406-5.623 15.219-7.982 21.182-2.355 5.952-4.222 11.076-4.968 16.05l.989.148c.727-4.847 2.552-9.874 4.909-15.83 2.351-5.944 5.224-12.795 8.002-21.238C315.315 158.621 320.5 135.35 320.5 100h-1z" fill="#E4E6EB"/>
  <path d="M296 217l3.443-4.634-5.735-.665L296 217zm63.5-117c0 35.828-14.276 57.348-29.326 73.172-3.767 3.96-7.583 7.563-11.241 10.949-3.655 3.382-7.16 6.554-10.285 9.633-6.241 6.149-11.064 12.017-12.617 18.662l.974.228c1.483-6.344 6.113-12.039 12.344-18.178 3.111-3.064 6.597-6.218 10.263-9.611 3.662-3.389 7.497-7.011 11.286-10.994C346.071 157.909 360.5 136.153 360.5 100h-1z" fill="#E4E6EB"/>
  <rect x="141" y="200" width="55" height="32" rx="16" fill="#F5F7FA"/>
  <path d="M158.233 214.216c0 .448-.108.868-.324 1.26-.208.392-.54.708-.996.948-.448.24-1.016.36-1.704.36h-1.404V220h-1.68v-8.376h3.084c.648 0 1.2.112 1.656.336.456.224.796.532 1.02.924.232.392.348.836.348 1.332zm-3.096 1.212c.464 0 .808-.104 1.032-.312.224-.216.336-.516.336-.9 0-.816-.456-1.224-1.368-1.224h-1.332v2.436h1.332zm5.141-2.868c-.296 0-.544-.092-.744-.276a.962.962 0 01-.288-.708c0-.28.096-.512.288-.696.2-.192.448-.288.744-.288s.54.096.732.288c.2.184.3.416.3.696 0 .28-.1.516-.3.708a1.015 1.015 0 01-.732.276zm.828.792V220h-1.68v-6.648h1.68zm5.332 6.648l-1.368-2.064-1.212 2.064h-1.8l2.172-3.336-2.196-3.312h1.896l1.356 2.052 1.224-2.052h1.8l-2.184 3.312 2.208 3.336h-1.896zm8.988-3.468c0 .24-.016.456-.048.648h-4.86c.04.48.208.856.504 1.128.296.272.66.408 1.092.408.624 0 1.068-.268 1.332-.804h1.812a3.059 3.059 0 01-1.104 1.584c-.544.408-1.212.612-2.004.612-.64 0-1.216-.14-1.728-.42a3.091 3.091 0 01-1.188-1.212c-.28-.52-.42-1.12-.42-1.8 0-.688.14-1.292.42-1.812.28-.52.672-.92 1.176-1.2.504-.28 1.084-.42 1.74-.42.632 0 1.196.136 1.692.408.504.272.892.66 1.164 1.164.28.496.42 1.068.42 1.716zm-1.74-.48c-.008-.432-.164-.776-.468-1.032-.304-.264-.676-.396-1.116-.396-.416 0-.768.128-1.056.384-.28.248-.452.596-.516 1.044h3.156zm4.646-4.932V220h-1.68v-8.88h1.68zm4.204 8.988a3.568 3.568 0 01-1.464-.288 2.686 2.686 0 01-1.032-.804 2.046 2.046 0 01-.408-1.116h1.692a.928.928 0 00.372.636c.224.168.5.252.828.252.32 0 .568-.064.744-.192.184-.128.276-.292.276-.492 0-.216-.112-.376-.336-.48-.216-.112-.564-.232-1.044-.36a9.196 9.196 0 01-1.224-.372 2.176 2.176 0 01-.816-.588c-.224-.264-.336-.62-.336-1.068 0-.368.104-.704.312-1.008.216-.304.52-.544.912-.72.4-.176.868-.264 1.404-.264.792 0 1.424.2 1.896.6.472.392.732.924.78 1.596h-1.608a.844.844 0 00-.336-.624c-.192-.16-.452-.24-.78-.24-.304 0-.54.056-.708.168a.54.54 0 00-.24.468c0 .224.112.396.336.516.224.112.572.228 1.044.348.48.12.876.244 1.188.372.312.128.58.328.804.6.232.264.352.616.36 1.056 0 .384-.108.728-.324 1.032-.208.304-.512.544-.912.72-.392.168-.852.252-1.38.252z" fill="#323436"/>
  <g filter="url(#GprabcBmga)">
    <rect x="216" y="128" width="73" height="32" rx="16" fill="#fff"/>
    <path d="M228.79 148l-2.277-7.678h.979l1.089 3.839.825 2.904h.055l.825-2.904 1.089-3.839h.946L230.044 148h-1.254zm9.368 0c-.345 0-.59-.088-.737-.264a1.282 1.282 0 01-.275-.66h-.055c-.125.33-.326.59-.605.781-.271.183-.638.275-1.1.275-.594 0-1.067-.154-1.419-.462-.352-.308-.528-.73-.528-1.265 0-.528.191-.935.572-1.221.389-.286 1.012-.429 1.87-.429h1.21v-.561c0-.418-.117-.73-.352-.935-.235-.213-.568-.319-1.001-.319-.381 0-.693.077-.935.231a1.653 1.653 0 00-.583.605l-.594-.44c.073-.147.172-.29.297-.429s.279-.26.462-.363c.183-.11.392-.194.627-.253.235-.066.495-.099.781-.099.667 0 1.195.169 1.584.506.396.337.594.807.594 1.408v3.124h.792v.77h-.605zm-2.618-.605c.227 0 .433-.026.616-.077.191-.059.356-.132.495-.22a1.04 1.04 0 00.319-.33.785.785 0 00.121-.418v-.935h-1.21c-.528 0-.913.073-1.155.22a.703.703 0 00-.363.638v.231c0 .293.103.517.308.671.213.147.502.22.869.22zm4.616-.143h1.661v-4.18h-1.661v-.748h2.541v1.43h.055c.117-.447.337-.796.66-1.045.33-.257.748-.385 1.254-.385h.792v.88h-1.067c-.506 0-.917.147-1.232.44-.308.293-.462.678-.462 1.155v2.453h2.2V148h-4.741v-.748zm9.4-6.182c-.256 0-.436-.051-.539-.154a.577.577 0 01-.154-.407v-.176a.54.54 0 01.154-.396c.103-.11.283-.165.539-.165.257 0 .437.055.539.165a.536.536 0 01.154.396v.176a.573.573 0 01-.154.407c-.102.103-.282.154-.539.154zm-2.486 6.182h2.046v-4.18h-2.046v-.748h2.926v4.928h1.914V148h-4.84v-.748zm10.875.748c-.345 0-.59-.088-.737-.264a1.282 1.282 0 01-.275-.66h-.055c-.125.33-.326.59-.605.781-.271.183-.638.275-1.1.275-.594 0-1.067-.154-1.419-.462-.352-.308-.528-.73-.528-1.265 0-.528.191-.935.572-1.221.389-.286 1.012-.429 1.87-.429h1.21v-.561c0-.418-.117-.73-.352-.935-.235-.213-.568-.319-1.001-.319-.381 0-.693.077-.935.231a1.653 1.653 0 00-.583.605l-.594-.44c.073-.147.172-.29.297-.429s.279-.26.462-.363c.183-.11.392-.194.627-.253.235-.066.495-.099.781-.099.667 0 1.195.169 1.584.506.396.337.594.807.594 1.408v3.124h.792v.77h-.605zm-2.618-.605c.227 0 .433-.026.616-.077.191-.059.356-.132.495-.22a1.04 1.04 0 00.319-.33.785.785 0 00.121-.418v-.935h-1.21c-.528 0-.913.073-1.155.22a.703.703 0 00-.363.638v.231c0 .293.103.517.308.671.213.147.502.22.869.22zm4.847.605v-5.676h.88v.924h.044c.058-.139.132-.271.22-.396a1.4 1.4 0 01.319-.341c.132-.095.286-.172.462-.231a1.94 1.94 0 01.616-.088c.594 0 1.07.191 1.43.572.359.374.539.906.539 1.595V148h-.88v-3.487c0-.521-.114-.906-.341-1.155-.228-.257-.561-.385-1.001-.385-.176 0-.349.022-.517.066-.169.044-.319.11-.451.198a1.012 1.012 0 00-.319.341.945.945 0 00-.121.484V148h-.88zm9.092 0c-.432 0-.751-.121-.957-.363-.198-.242-.297-.554-.297-.935v-3.63h-1.892v-.748h1.408c.191 0 .323-.037.396-.11.081-.081.121-.216.121-.407v-1.485h.847v2.002h2.585v.748h-2.585v4.18h2.585V148h-2.211zm6.387.132c-.594 0-1.107-.099-1.54-.297a3.457 3.457 0 01-1.089-.814l.594-.517c.271.286.568.506.891.66.323.154.711.231 1.166.231.44 0 .799-.077 1.078-.231.286-.161.429-.411.429-.748a.678.678 0 00-.088-.363.585.585 0 00-.22-.242 1.106 1.106 0 00-.319-.132 2.73 2.73 0 00-.374-.088l-.891-.132a9.768 9.768 0 01-.649-.121 2.226 2.226 0 01-.627-.242 1.6 1.6 0 01-.484-.462c-.125-.191-.187-.44-.187-.748 0-.286.055-.532.165-.737a1.51 1.51 0 01.484-.528c.205-.147.447-.253.726-.319.279-.073.583-.11.913-.11.513 0 .957.081 1.331.242.381.161.708.385.979.671l-.572.539a1.597 1.597 0 00-.253-.242 1.332 1.332 0 00-.363-.231 2.058 2.058 0 00-.495-.176 2.958 2.958 0 00-.66-.066c-.447 0-.792.077-1.034.231a.753.753 0 00-.352.671c0 .147.026.271.077.374a.708.708 0 00.231.231c.095.059.202.106.319.143.125.029.249.055.374.077l.891.132c.205.029.422.07.649.121.227.051.436.136.627.253.191.11.348.26.473.451.132.191.198.44.198.748 0 .565-.22 1.001-.66 1.309-.433.308-1.012.462-1.738.462z" fill="#323436"/>
  </g>
  <g filter="url(#GprabcBmgb)">
    <rect x="297" y="128" width="80" height="32" rx="16" fill="#fff"/>
    <path d="M308.639 148v-7.678h.924v6.875h3.641V148h-4.565zm8.928-6.93c-.257 0-.436-.051-.539-.154a.573.573 0 01-.154-.407v-.176c0-.161.051-.293.154-.396.103-.11.282-.165.539-.165.257 0 .436.055.539.165a.536.536 0 01.154.396v.176a.573.573 0 01-.154.407c-.103.103-.282.154-.539.154zm-2.486 6.182h2.046v-4.18h-2.046v-.748h2.926v4.928h1.914V148h-4.84v-.748zm6.475-7.392h.88v3.388h.044c.366-.704.949-1.056 1.749-1.056.696 0 1.239.26 1.628.781.396.521.594 1.25.594 2.189 0 .939-.198 1.668-.594 2.189-.389.521-.932.781-1.628.781-.8 0-1.383-.352-1.749-1.056h-.044V148h-.88v-8.14zm2.332 7.491c.513 0 .909-.154 1.188-.462.286-.315.429-.73.429-1.243v-.968c0-.513-.143-.924-.429-1.232-.279-.315-.675-.473-1.188-.473-.198 0-.385.026-.561.077-.176.051-.33.128-.462.231a1.074 1.074 0 00-.319.363 1.04 1.04 0 00-.11.495v2.046c0 .191.036.359.11.506.08.139.187.26.319.363.132.095.286.169.462.22.176.051.363.077.561.077zm4.065-.099h1.661v-4.18h-1.661v-.748h2.541v1.43h.055c.118-.447.338-.796.66-1.045.33-.257.748-.385 1.254-.385h.792v.88h-1.067c-.506 0-.916.147-1.232.44-.308.293-.462.678-.462 1.155v2.453h2.2V148h-4.741v-.748zm11.194.748c-.345 0-.59-.088-.737-.264a1.282 1.282 0 01-.275-.66h-.055c-.125.33-.326.59-.605.781-.271.183-.638.275-1.1.275-.594 0-1.067-.154-1.419-.462-.352-.308-.528-.73-.528-1.265 0-.528.191-.935.572-1.221.389-.286 1.012-.429 1.87-.429h1.21v-.561c0-.418-.117-.73-.352-.935-.235-.213-.568-.319-1.001-.319-.381 0-.693.077-.935.231a1.653 1.653 0 00-.583.605l-.594-.44c.073-.147.172-.29.297-.429s.279-.26.462-.363c.183-.11.392-.194.627-.253.235-.066.495-.099.781-.099.667 0 1.195.169 1.584.506.396.337.594.807.594 1.408v3.124h.792v.77h-.605zm-2.618-.605c.227 0 .433-.026.616-.077.191-.059.356-.132.495-.22a1.04 1.04 0 00.319-.33.785.785 0 00.121-.418v-.935h-1.21c-.528 0-.913.073-1.155.22a.703.703 0 00-.363.638v.231c0 .293.103.517.308.671.213.147.502.22.869.22zm4.616-.143h1.661v-4.18h-1.661v-.748h2.541v1.43h.055c.117-.447.337-.796.66-1.045.33-.257.748-.385 1.254-.385h.792v.88h-1.067c-.506 0-.917.147-1.232.44-.308.293-.462.678-.462 1.155v2.453h2.2V148h-4.741v-.748zm9.401-6.182c-.257 0-.437-.051-.539-.154a.573.573 0 01-.154-.407v-.176c0-.161.051-.293.154-.396.102-.11.282-.165.539-.165.256 0 .436.055.539.165a.54.54 0 01.154.396v.176a.577.577 0 01-.154.407c-.103.103-.283.154-.539.154zm-2.486 6.182h2.046v-4.18h-2.046v-.748h2.926v4.928h1.914V148h-4.84v-.748zm8.828.88c-.41 0-.781-.07-1.111-.209a2.42 2.42 0 01-.836-.594 2.86 2.86 0 01-.528-.935 3.797 3.797 0 01-.187-1.221c0-.455.063-.865.187-1.232.132-.367.312-.678.539-.935.228-.264.499-.466.814-.605a2.673 2.673 0 011.067-.209c.382 0 .726.07 1.034.209.316.139.583.334.803.583.22.242.389.532.506.869.118.337.176.708.176 1.111v.418h-4.202v.264c0 .249.041.48.121.693.081.213.195.396.341.55.154.154.338.275.55.363.22.081.462.121.726.121.382 0 .712-.088.99-.264a1.7 1.7 0 00.638-.726l.649.44c-.168.381-.451.697-.847.946-.388.242-.865.363-1.43.363zm-.055-5.214a1.688 1.688 0 00-1.21.495 1.777 1.777 0 00-.352.55c-.08.205-.121.433-.121.682v.077h3.256v-.121c0-.249-.04-.477-.121-.682a1.468 1.468 0 00-.319-.528 1.276 1.276 0 00-.495-.352 1.613 1.613 0 00-.638-.121zm6.618 5.214c-.594 0-1.107-.099-1.54-.297a3.457 3.457 0 01-1.089-.814l.594-.517c.271.286.568.506.891.66.323.154.711.231 1.166.231.44 0 .799-.077 1.078-.231.286-.161.429-.411.429-.748a.678.678 0 00-.088-.363.585.585 0 00-.22-.242 1.106 1.106 0 00-.319-.132 2.73 2.73 0 00-.374-.088l-.891-.132a9.768 9.768 0 01-.649-.121 2.226 2.226 0 01-.627-.242 1.6 1.6 0 01-.484-.462c-.125-.191-.187-.44-.187-.748 0-.286.055-.532.165-.737a1.51 1.51 0 01.484-.528c.205-.147.447-.253.726-.319.279-.073.583-.11.913-.11.513 0 .957.081 1.331.242.381.161.708.385.979.671l-.572.539a1.597 1.597 0 00-.253-.242 1.332 1.332 0 00-.363-.231 2.058 2.058 0 00-.495-.176 2.958 2.958 0 00-.66-.066c-.447 0-.792.077-1.034.231a.753.753 0 00-.352.671c0 .147.026.271.077.374a.708.708 0 00.231.231c.095.059.202.106.319.143.125.029.249.055.374.077l.891.132c.205.029.422.07.649.121.227.051.436.136.627.253.191.11.348.26.473.451.132.191.198.44.198.748 0 .565-.22 1.001-.66 1.309-.433.308-1.012.462-1.738.462z" fill="#323436"/>
  </g>
  <g filter="url(#GprabcBmgc)">
    <rect x="189" y="84" width="86" height="32" rx="16" fill="#fff"/>
    <path d="M202.783 97.125V104h-.924v-6.875h-2.563v-.803h6.05v.803h-2.563zm7.971 1.199h.88l-2.816 6.919a2.203 2.203 0 01-.22.418.992.992 0 01-.286.297c-.11.081-.242.139-.396.176a2.016 2.016 0 01-.55.066h-.836v-.748h1.32l.638-1.562-2.288-5.566h.902l.957 2.376.847 2.156h.044l.847-2.156.957-2.376zm2.504 0h.88v.924h.044c.367-.704.95-1.056 1.749-1.056.697 0 1.239.26 1.628.781.396.52.594 1.25.594 2.189 0 .939-.198 1.668-.594 2.189-.389.521-.931.781-1.628.781-.799 0-1.382-.352-1.749-1.056h-.044v3.124h-.88v-7.876zm2.332 5.027c.513 0 .909-.154 1.188-.462.286-.315.429-.73.429-1.243v-.968c0-.513-.143-.924-.429-1.232-.279-.315-.675-.473-1.188-.473-.198 0-.385.026-.561.077-.176.051-.33.128-.462.231a1.091 1.091 0 00-.319.363c-.073.14-.11.304-.11.495v2.046c0 .191.037.359.11.506.081.139.187.26.319.363.132.095.286.169.462.22.176.051.363.077.561.077zm6.519.781c-.396 0-.756-.07-1.078-.209a2.318 2.318 0 01-.814-.594 2.798 2.798 0 01-.506-.935 4.011 4.011 0 01-.176-1.232c0-.447.058-.854.176-1.221a2.66 2.66 0 01.506-.935c.227-.264.498-.466.814-.605a2.69 2.69 0 011.078-.209c.396 0 .751.07 1.067.209.322.14.594.341.814.605.227.257.399.568.517.935.117.367.176.774.176 1.221 0 .455-.059.865-.176 1.232-.118.359-.29.671-.517.935-.22.257-.492.455-.814.594a2.621 2.621 0 01-1.067.209zm0-.759c.491 0 .887-.147 1.188-.44.3-.293.451-.748.451-1.364v-.814c0-.616-.151-1.07-.451-1.364-.301-.293-.697-.44-1.188-.44-.492 0-.888.147-1.188.44-.301.293-.451.748-.451 1.364v.814c0 .616.15 1.071.451 1.364.3.293.696.44 1.188.44zm9.466 1.276c0 .572-.238.994-.715 1.265-.476.279-1.191.418-2.145.418-.916 0-1.576-.121-1.98-.363-.396-.242-.594-.59-.594-1.045 0-.308.081-.546.242-.715.162-.169.389-.293.682-.374v-.132a.987.987 0 01-.374-.308.8.8 0 01-.132-.473c0-.293.096-.513.286-.66.198-.147.444-.257.737-.33v-.044a1.846 1.846 0 01-.825-.682 1.937 1.937 0 01-.286-1.056c0-.286.052-.55.154-.792.103-.242.25-.447.44-.616a2.09 2.09 0 01.704-.407 2.71 2.71 0 01.902-.143c.426 0 .8.077 1.122.231v-.099a.94.94 0 01.154-.55c.103-.147.279-.22.528-.22h1.045v.77h-1.276v.385c.206.176.363.385.473.627.11.242.165.513.165.814 0 .286-.055.55-.165.792a1.786 1.786 0 01-.44.627c-.19.169-.425.301-.704.396a2.713 2.713 0 01-.902.143 3.471 3.471 0 01-.539-.044 1.43 1.43 0 00-.275.077.884.884 0 00-.264.132.708.708 0 00-.198.187.433.433 0 00-.077.253c0 .169.085.282.253.341.169.051.389.077.66.077h1.254c.734 0 1.265.139 1.595.418.33.271.495.638.495 1.1zm-.825.044a.656.656 0 00-.275-.55c-.183-.132-.502-.198-.957-.198h-1.969c-.381.154-.572.411-.572.77 0 .249.099.462.297.638.198.183.528.275.99.275h.858c.514 0 .913-.081 1.199-.242.286-.154.429-.385.429-.693zm-2.079-3.267c.44 0 .763-.103.968-.308.213-.205.319-.477.319-.814v-.319c0-.337-.106-.605-.319-.803-.205-.205-.528-.308-.968-.308-.44 0-.762.103-.968.308-.205.198-.308.466-.308.803v.319c0 .337.103.609.308.814.206.205.528.308.968.308zm4.176 1.826h1.661v-4.18h-1.661v-.748h2.541v1.43h.055c.117-.447.337-.796.66-1.045.33-.257.748-.385 1.254-.385h.792v.88h-1.067c-.506 0-.917.147-1.232.44-.308.293-.462.678-.462 1.155v2.453h2.2V104h-4.741v-.748zm11.194.748c-.345 0-.591-.088-.737-.264a1.274 1.274 0 01-.275-.66h-.055c-.125.33-.327.59-.605.781-.272.183-.638.275-1.1.275-.594 0-1.067-.154-1.419-.462-.352-.308-.528-.73-.528-1.265 0-.528.19-.935.572-1.221.388-.286 1.012-.429 1.87-.429h1.21v-.561c0-.418-.118-.73-.352-.935-.235-.213-.569-.319-1.001-.319-.382 0-.693.077-.935.231a1.645 1.645 0 00-.583.605l-.594-.44c.073-.147.172-.29.297-.429.124-.14.278-.26.462-.363.183-.11.392-.194.627-.253.234-.066.495-.099.781-.099.667 0 1.195.169 1.584.506.396.337.594.807.594 1.408v3.124h.792v.77h-.605zm-2.618-.605c.227 0 .432-.026.616-.077.19-.059.355-.132.495-.22a1.05 1.05 0 00.319-.33.794.794 0 00.121-.418v-.935h-1.21c-.528 0-.913.073-1.155.22a.703.703 0 00-.363.638v.231c0 .293.102.517.308.671.212.147.502.22.869.22zm4.813-5.071h.88v.924h.044c.367-.704.95-1.056 1.749-1.056.697 0 1.24.26 1.628.781.396.52.594 1.25.594 2.189 0 .939-.198 1.668-.594 2.189-.388.521-.931.781-1.628.781-.799 0-1.382-.352-1.749-1.056h-.044v3.124h-.88v-7.876zm2.332 5.027c.514 0 .91-.154 1.188-.462.286-.315.429-.73.429-1.243v-.968c0-.513-.143-.924-.429-1.232-.278-.315-.674-.473-1.188-.473-.198 0-.385.026-.561.077-.176.051-.33.128-.462.231a1.091 1.091 0 00-.319.363c-.073.14-.11.304-.11.495v2.046c0 .191.037.359.11.506.081.139.187.26.319.363.132.095.286.169.462.22.176.051.363.077.561.077zm4.297-7.491h.88v3.388h.044c.059-.14.132-.271.22-.396a1.4 1.4 0 01.319-.341c.132-.095.286-.172.462-.231a1.94 1.94 0 01.616-.088c.594 0 1.071.19 1.43.572.359.374.539.906.539 1.595V104h-.88v-3.487c0-.52-.114-.906-.341-1.155-.227-.257-.561-.385-1.001-.385-.176 0-.348.022-.517.066-.169.044-.319.11-.451.198a1.019 1.019 0 00-.319.341.945.945 0 00-.121.484V104h-.88v-8.14zm10.655 2.464h.88l-2.816 6.919c-.066.161-.14.301-.22.418a1.005 1.005 0 01-.286.297c-.11.081-.242.139-.396.176a2.021 2.021 0 01-.55.066h-.836v-.748h1.32l.638-1.562-2.288-5.566h.902l.957 2.376.847 2.156h.044l.847-2.156.957-2.376z" fill="#323436"/>
  </g>
  <g filter="url(#GprabcBmgd)">
    <rect x="283" y="84" width="53" height="32" rx="16" fill="#fff"/>
    <path d="M293.935 104v-.737h1.914v-6.204h-1.914v-.737h4.752v.737h-1.914v6.204h1.914V104h-4.752zm9.169.132c-.41 0-.777-.07-1.1-.209a2.35 2.35 0 01-.803-.605 2.676 2.676 0 01-.506-.935 4.243 4.243 0 01-.165-1.221c0-.447.059-.854.176-1.221.118-.367.286-.678.506-.935.22-.264.488-.466.803-.605.316-.14.675-.209 1.078-.209.55 0 .998.121 1.342.363.345.242.598.557.759.946l-.704.374a1.312 1.312 0 00-.517-.682c-.234-.161-.528-.242-.88-.242-.256 0-.487.044-.693.132-.198.08-.366.198-.506.352a1.588 1.588 0 00-.319.55 2.33 2.33 0 00-.099.693v.968c0 .249.033.48.099.693a1.473 1.473 0 00.836.913c.206.081.44.121.704.121.382 0 .697-.088.946-.264.25-.176.448-.418.594-.726l.627.429a2.23 2.23 0 01-.792.946c-.352.249-.814.374-1.386.374zm6.398 0c-.396 0-.755-.07-1.078-.209a2.327 2.327 0 01-.814-.594 2.798 2.798 0 01-.506-.935 4.042 4.042 0 01-.176-1.232c0-.447.059-.854.176-1.221a2.66 2.66 0 01.506-.935c.227-.264.499-.466.814-.605.323-.14.682-.209 1.078-.209s.752.07 1.067.209c.323.14.594.341.814.605.227.257.4.568.517.935.117.367.176.774.176 1.221 0 .455-.059.865-.176 1.232a2.7 2.7 0 01-.517.935c-.22.257-.491.455-.814.594a2.618 2.618 0 01-1.067.209zm0-.759c.491 0 .887-.147 1.188-.44.301-.293.451-.748.451-1.364v-.814c0-.616-.15-1.07-.451-1.364-.301-.293-.697-.44-1.188-.44s-.887.147-1.188.44c-.301.293-.451.748-.451 1.364v.814c0 .616.15 1.071.451 1.364.301.293.697.44 1.188.44zm4.374.627v-5.676h.88v.924h.044c.059-.14.132-.271.22-.396a1.4 1.4 0 01.319-.341c.132-.095.286-.172.462-.231a1.94 1.94 0 01.616-.088c.594 0 1.071.19 1.43.572.359.374.539.906.539 1.595V104h-.88v-3.487c0-.52-.114-.906-.341-1.155-.227-.257-.561-.385-1.001-.385-.176 0-.348.022-.517.066-.169.044-.319.11-.451.198a1.019 1.019 0 00-.319.341.945.945 0 00-.121.484V104h-.88zm8.884.132c-.594 0-1.108-.099-1.54-.297a3.435 3.435 0 01-1.089-.814l.594-.517c.271.286.568.506.891.66.322.154.711.231 1.166.231.44 0 .799-.077 1.078-.231.286-.161.429-.411.429-.748a.687.687 0 00-.088-.363.592.592 0 00-.22-.242 1.118 1.118 0 00-.319-.132 2.765 2.765 0 00-.374-.088l-.891-.132a9.65 9.65 0 01-.649-.121 2.203 2.203 0 01-.627-.242 1.6 1.6 0 01-.484-.462c-.125-.191-.187-.44-.187-.748 0-.286.055-.532.165-.737a1.5 1.5 0 01.484-.528 2.04 2.04 0 01.726-.319c.278-.073.583-.11.913-.11.513 0 .957.08 1.331.242.381.161.707.385.979.671l-.572.539a1.642 1.642 0 00-.253-.242 1.364 1.364 0 00-.363-.231 2.077 2.077 0 00-.495-.176 2.958 2.958 0 00-.66-.066c-.448 0-.792.077-1.034.231a.753.753 0 00-.352.671.82.82 0 00.077.374.69.69 0 00.231.231c.095.059.201.106.319.143.124.029.249.055.374.077l.891.132c.205.029.421.07.649.121.227.051.436.136.627.253.19.11.348.26.473.451.132.191.198.44.198.748 0 .565-.22 1.001-.66 1.309-.433.308-1.012.462-1.738.462z" fill="#323436"/>
  </g>
  <g filter="url(#GprabcBmge)">
    <rect x="344" y="84" width="60" height="32" rx="16" fill="#fff"/>
    <path d="M357.975 97.125V104h-.924v-6.875h-2.563v-.803h6.05v.803h-2.563zm6.134 7.007c-.396 0-.756-.07-1.078-.209a2.318 2.318 0 01-.814-.594 2.798 2.798 0 01-.506-.935 4.011 4.011 0 01-.176-1.232c0-.447.058-.854.176-1.221a2.66 2.66 0 01.506-.935c.227-.264.498-.466.814-.605a2.69 2.69 0 011.078-.209c.396 0 .751.07 1.067.209.322.14.594.341.814.605.227.257.399.568.517.935.117.367.176.774.176 1.221 0 .455-.059.865-.176 1.232-.118.359-.29.671-.517.935-.22.257-.492.455-.814.594a2.621 2.621 0 01-1.067.209zm0-.759c.491 0 .887-.147 1.188-.44.3-.293.451-.748.451-1.364v-.814c0-.616-.151-1.07-.451-1.364-.301-.293-.697-.44-1.188-.44-.492 0-.888.147-1.188.44-.301.293-.451.748-.451 1.364v.814c0 .616.15 1.071.451 1.364.3.293.696.44 1.188.44zm4.45-7.513h.88v5.137h.044l.99-.935 1.892-1.738h1.078l-2.354 2.222 2.629 3.454h-1.089l-2.211-2.948-.979.891V104h-.88v-8.14zm8.84 8.272c-.411 0-.781-.07-1.111-.209a2.41 2.41 0 01-.836-.594 2.86 2.86 0 01-.528-.935 3.77 3.77 0 01-.187-1.221c0-.455.062-.865.187-1.232.132-.367.312-.678.539-.935.227-.264.499-.466.814-.605.323-.14.678-.209 1.067-.209.381 0 .726.07 1.034.209.315.14.583.334.803.583.22.242.389.532.506.869.117.337.176.708.176 1.111v.418h-4.202v.264c0 .249.04.48.121.693.081.213.194.396.341.55.154.154.337.275.55.363.22.081.462.121.726.121.381 0 .711-.088.99-.264.279-.176.491-.418.638-.726l.649.44c-.169.381-.451.697-.847.946-.389.242-.865.363-1.43.363zm-.055-5.214a1.684 1.684 0 00-1.21.495 1.762 1.762 0 00-.352.55 1.844 1.844 0 00-.121.682v.077h3.256v-.121c0-.249-.04-.477-.121-.682a1.477 1.477 0 00-.319-.528 1.273 1.273 0 00-.495-.352 1.621 1.621 0 00-.638-.121zm4.33 5.082v-5.676h.88v.924h.044a2.06 2.06 0 01.22-.396 1.4 1.4 0 01.319-.341c.132-.095.286-.172.462-.231a1.94 1.94 0 01.616-.088c.594 0 1.07.19 1.43.572.359.374.539.906.539 1.595V104h-.88v-3.487c0-.52-.114-.906-.341-1.155-.228-.257-.561-.385-1.001-.385-.176 0-.349.022-.517.066-.169.044-.319.11-.451.198a1.009 1.009 0 00-.319.341.945.945 0 00-.121.484V104h-.88zm8.883.132c-.594 0-1.107-.099-1.54-.297a3.457 3.457 0 01-1.089-.814l.594-.517c.272.286.569.506.891.66.323.154.712.231 1.166.231.44 0 .8-.077 1.078-.231.286-.161.429-.411.429-.748a.678.678 0 00-.088-.363.579.579 0 00-.22-.242 1.094 1.094 0 00-.319-.132 2.73 2.73 0 00-.374-.088l-.891-.132a9.768 9.768 0 01-.649-.121 2.226 2.226 0 01-.627-.242 1.612 1.612 0 01-.484-.462c-.124-.191-.187-.44-.187-.748 0-.286.055-.532.165-.737a1.52 1.52 0 01.484-.528 2.05 2.05 0 01.726-.319c.279-.073.583-.11.913-.11.514 0 .957.08 1.331.242.382.161.708.385.979.671l-.572.539a1.597 1.597 0 00-.253-.242 1.332 1.332 0 00-.363-.231 2.045 2.045 0 00-.495-.176 2.946 2.946 0 00-.66-.066c-.447 0-.792.077-1.034.231a.755.755 0 00-.352.671c0 .147.026.271.077.374a.708.708 0 00.231.231c.096.059.202.106.319.143.125.029.25.055.374.077l.891.132c.206.029.422.07.649.121.228.051.437.136.627.253.191.11.349.26.473.451.132.191.198.44.198.748 0 .565-.22 1.001-.66 1.309-.432.308-1.012.462-1.738.462z" fill="#323436"/>
  </g>
  <g filter="url(#GprabcBmgf)">
    <rect x="172" y="316" width="86" height="32" rx="16" fill="#fff"/>
    <path d="M185.574 336.132c-.938 0-1.639-.341-2.101-1.023-.454-.682-.682-1.665-.682-2.948s.228-2.266.682-2.948c.462-.682 1.163-1.023 2.101-1.023.352 0 .657.048.913.143.257.095.477.224.66.385.184.161.338.345.462.55.125.198.235.4.33.605l-.792.363a3.144 3.144 0 00-.231-.473 1.538 1.538 0 00-.319-.396 1.232 1.232 0 00-.429-.275 1.57 1.57 0 00-.594-.099c-.608 0-1.063.231-1.364.693-.293.462-.44 1.078-.44 1.848v1.254c0 .77.147 1.386.44 1.848.301.462.756.693 1.364.693.235 0 .433-.033.594-.099.169-.066.312-.154.429-.264.125-.117.231-.249.319-.396.088-.154.165-.315.231-.484l.792.363a4.862 4.862 0 01-.33.616 2.425 2.425 0 01-.462.539 2.08 2.08 0 01-.66.385 2.628 2.628 0 01-.913.143zm6.343 0c-.396 0-.755-.07-1.078-.209a2.336 2.336 0 01-.814-.594 2.816 2.816 0 01-.506-.935 4.042 4.042 0 01-.176-1.232c0-.447.059-.854.176-1.221.118-.367.286-.678.506-.935.228-.264.499-.466.814-.605a2.699 2.699 0 011.078-.209c.396 0 .752.07 1.067.209.323.139.594.341.814.605.228.257.4.568.517.935.118.367.176.774.176 1.221 0 .455-.058.865-.176 1.232a2.685 2.685 0 01-.517.935c-.22.257-.491.455-.814.594a2.618 2.618 0 01-1.067.209zm0-.759c.492 0 .888-.147 1.188-.44.301-.293.451-.748.451-1.364v-.814c0-.616-.15-1.071-.451-1.364-.3-.293-.696-.44-1.188-.44-.491 0-.887.147-1.188.44-.3.293-.451.748-.451 1.364v.814c0 .616.151 1.071.451 1.364.301.293.697.44 1.188.44zm3.89.627v-5.676h.814v.66h.044c.088-.22.213-.407.374-.561.161-.154.4-.231.715-.231.33 0 .576.084.737.253.161.161.26.374.297.638h.033c.103-.257.249-.469.44-.638.191-.169.455-.253.792-.253.462 0 .77.161.924.484.161.323.242.785.242 1.386V336h-.814v-3.795c0-.484-.051-.818-.154-1.001-.095-.191-.275-.286-.539-.286a.754.754 0 00-.572.231c-.147.147-.22.374-.22.682V336h-.814v-3.795c0-.484-.051-.818-.154-1.001-.095-.191-.271-.286-.528-.286a.79.79 0 00-.583.231c-.147.147-.22.374-.22.682V336h-.814zm7.047-5.676h.88v.924h.044c.366-.704.949-1.056 1.749-1.056.696 0 1.239.26 1.628.781.396.521.594 1.25.594 2.189 0 .939-.198 1.668-.594 2.189-.389.521-.932.781-1.628.781-.8 0-1.383-.352-1.749-1.056h-.044v3.124h-.88v-7.876zm2.332 5.027c.513 0 .909-.154 1.188-.462.286-.315.429-.73.429-1.243v-.968c0-.513-.143-.924-.429-1.232-.279-.315-.675-.473-1.188-.473-.198 0-.385.026-.561.077-.176.051-.33.128-.462.231a1.074 1.074 0 00-.319.363 1.04 1.04 0 00-.11.495v2.046c0 .191.036.359.11.506.08.139.187.26.319.363.132.095.286.169.462.22.176.051.363.077.561.077zm6.518.781c-.396 0-.755-.07-1.078-.209a2.336 2.336 0 01-.814-.594 2.816 2.816 0 01-.506-.935 4.042 4.042 0 01-.176-1.232c0-.447.059-.854.176-1.221.118-.367.286-.678.506-.935.228-.264.499-.466.814-.605a2.699 2.699 0 011.078-.209c.396 0 .752.07 1.067.209.323.139.594.341.814.605.228.257.4.568.517.935.118.367.176.774.176 1.221 0 .455-.058.865-.176 1.232a2.685 2.685 0 01-.517.935c-.22.257-.491.455-.814.594a2.618 2.618 0 01-1.067.209zm0-.759c.492 0 .888-.147 1.188-.44.301-.293.451-.748.451-1.364v-.814c0-.616-.15-1.071-.451-1.364-.3-.293-.696-.44-1.188-.44-.491 0-.887.147-1.188.44-.3.293-.451.748-.451 1.364v.814c0 .616.151 1.071.451 1.364.301.293.697.44 1.188.44zm4.374.627v-5.676h.88v.924h.044c.059-.139.132-.271.22-.396a1.4 1.4 0 01.319-.341c.132-.095.286-.172.462-.231a1.94 1.94 0 01.616-.088c.594 0 1.071.191 1.43.572.359.374.539.906.539 1.595V336h-.88v-3.487c0-.521-.114-.906-.341-1.155-.227-.257-.561-.385-1.001-.385-.176 0-.348.022-.517.066-.169.044-.319.11-.451.198a1.022 1.022 0 00-.319.341.945.945 0 00-.121.484V336h-.88zm8.917.132c-.411 0-.781-.07-1.111-.209a2.4 2.4 0 01-.836-.594 2.824 2.824 0 01-.528-.935 3.77 3.77 0 01-.187-1.221c0-.455.062-.865.187-1.232.132-.367.311-.678.539-.935.227-.264.498-.466.814-.605a2.666 2.666 0 011.067-.209c.381 0 .726.07 1.034.209.315.139.583.334.803.583.22.242.388.532.506.869.117.337.176.708.176 1.111v.418h-4.202v.264c0 .249.04.48.121.693.08.213.194.396.341.55.154.154.337.275.55.363.22.081.462.121.726.121.381 0 .711-.088.99-.264.278-.176.491-.418.638-.726l.649.44c-.169.381-.451.697-.847.946-.389.242-.866.363-1.43.363zm-.055-5.214a1.684 1.684 0 00-1.21.495 1.759 1.759 0 00-.352.55 1.844 1.844 0 00-.121.682v.077h3.256v-.121c0-.249-.041-.477-.121-.682a1.497 1.497 0 00-.319-.528 1.276 1.276 0 00-.495-.352 1.62 1.62 0 00-.638-.121zm4.329 5.082v-5.676h.88v.924h.044c.059-.139.132-.271.22-.396a1.42 1.42 0 01.319-.341c.132-.095.286-.172.462-.231.176-.059.382-.088.616-.088.594 0 1.071.191 1.43.572.36.374.539.906.539 1.595V336h-.88v-3.487c0-.521-.113-.906-.341-1.155-.227-.257-.561-.385-1.001-.385-.176 0-.348.022-.517.066-.168.044-.319.11-.451.198a.955.955 0 00-.44.825V336h-.88zm9.093 0c-.433 0-.752-.121-.957-.363-.198-.242-.297-.554-.297-.935v-3.63h-1.892v-.748h1.408c.191 0 .323-.037.396-.11.081-.081.121-.216.121-.407v-1.485h.847v2.002h2.585v.748h-2.585v4.18h2.585V336h-2.211zm6.387.132c-.594 0-1.108-.099-1.54-.297a3.435 3.435 0 01-1.089-.814l.594-.517c.271.286.568.506.891.66.322.154.711.231 1.166.231.44 0 .799-.077 1.078-.231.286-.161.429-.411.429-.748a.687.687 0 00-.088-.363.592.592 0 00-.22-.242 1.118 1.118 0 00-.319-.132 2.765 2.765 0 00-.374-.088l-.891-.132a9.65 9.65 0 01-.649-.121 2.203 2.203 0 01-.627-.242 1.6 1.6 0 01-.484-.462c-.125-.191-.187-.44-.187-.748 0-.286.055-.532.165-.737a1.5 1.5 0 01.484-.528c.205-.147.447-.253.726-.319.278-.073.583-.11.913-.11.513 0 .957.081 1.331.242.381.161.707.385.979.671l-.572.539a1.642 1.642 0 00-.253-.242 1.364 1.364 0 00-.363-.231 2.09 2.09 0 00-.495-.176 2.958 2.958 0 00-.66-.066c-.448 0-.792.077-1.034.231a.753.753 0 00-.352.671.82.82 0 00.077.374.69.69 0 00.231.231c.095.059.201.106.319.143.124.029.249.055.374.077l.891.132c.205.029.421.07.649.121.227.051.436.136.627.253.19.11.348.26.473.451.132.191.198.44.198.748 0 .565-.22 1.001-.66 1.309-.433.308-1.012.462-1.738.462z" fill="#323436"/>
  </g>
  <g filter="url(#GprabcBmgg)">
    <rect x="266" y="316" width="53" height="32" rx="16" fill="#fff"/>
    <path d="M277.001 336v-7.678h2.794c.711 0 1.254.194 1.628.583.374.389.561.931.561 1.628 0 .697-.187 1.239-.561 1.628-.374.389-.917.583-1.628.583h-1.87V336h-.924zm.924-4.059h1.848c.388 0 .689-.095.902-.286.22-.198.33-.477.33-.836v-.572c0-.359-.11-.634-.33-.825-.213-.198-.514-.297-.902-.297h-1.848v2.816zm5.528 3.311h1.661v-4.18h-1.661v-.748h2.541v1.43h.055c.118-.447.338-.796.66-1.045.33-.257.748-.385 1.254-.385h.792v.88h-1.067c-.506 0-.916.147-1.232.44-.308.293-.462.678-.462 1.155v2.453h2.2V336h-4.741v-.748zm9.049.88c-.396 0-.755-.07-1.078-.209a2.327 2.327 0 01-.814-.594 2.798 2.798 0 01-.506-.935 4.042 4.042 0 01-.176-1.232c0-.447.059-.854.176-1.221a2.66 2.66 0 01.506-.935c.227-.264.499-.466.814-.605a2.699 2.699 0 011.078-.209c.396 0 .752.07 1.067.209.323.139.594.341.814.605.227.257.4.568.517.935.117.367.176.774.176 1.221 0 .455-.059.865-.176 1.232a2.7 2.7 0 01-.517.935c-.22.257-.491.455-.814.594a2.618 2.618 0 01-1.067.209zm0-.759c.491 0 .887-.147 1.188-.44.301-.293.451-.748.451-1.364v-.814c0-.616-.15-1.071-.451-1.364-.301-.293-.697-.44-1.188-.44s-.887.147-1.188.44c-.301.293-.451.748-.451 1.364v.814c0 .616.15 1.071.451 1.364.301.293.697.44 1.188.44zm4.341-5.049h.88v.924h.044c.367-.704.95-1.056 1.749-1.056.697 0 1.239.26 1.628.781.396.521.594 1.25.594 2.189 0 .939-.198 1.668-.594 2.189-.389.521-.931.781-1.628.781-.799 0-1.382-.352-1.749-1.056h-.044v3.124h-.88v-7.876zm2.332 5.027c.513 0 .909-.154 1.188-.462.286-.315.429-.73.429-1.243v-.968c0-.513-.143-.924-.429-1.232-.279-.315-.675-.473-1.188-.473-.198 0-.385.026-.561.077-.176.051-.33.128-.462.231a1.085 1.085 0 00-.319.363c-.073.139-.11.304-.11.495v2.046c0 .191.037.359.11.506.081.139.187.26.319.363.132.095.286.169.462.22.176.051.363.077.561.077zm6.585.781c-.594 0-1.108-.099-1.54-.297a3.435 3.435 0 01-1.089-.814l.594-.517c.271.286.568.506.891.66.322.154.711.231 1.166.231.44 0 .799-.077 1.078-.231.286-.161.429-.411.429-.748a.687.687 0 00-.088-.363.592.592 0 00-.22-.242 1.118 1.118 0 00-.319-.132 2.765 2.765 0 00-.374-.088l-.891-.132a9.65 9.65 0 01-.649-.121 2.203 2.203 0 01-.627-.242 1.6 1.6 0 01-.484-.462c-.125-.191-.187-.44-.187-.748 0-.286.055-.532.165-.737a1.5 1.5 0 01.484-.528c.205-.147.447-.253.726-.319.278-.073.583-.11.913-.11.513 0 .957.081 1.331.242.381.161.707.385.979.671l-.572.539a1.642 1.642 0 00-.253-.242 1.364 1.364 0 00-.363-.231 2.09 2.09 0 00-.495-.176 2.958 2.958 0 00-.66-.066c-.448 0-.792.077-1.034.231a.753.753 0 00-.352.671.82.82 0 00.077.374.69.69 0 00.231.231c.095.059.201.106.319.143.124.029.249.055.374.077l.891.132c.205.029.421.07.649.121.227.051.436.136.627.253.19.11.348.26.473.451.132.191.198.44.198.748 0 .565-.22 1.001-.66 1.309-.433.308-1.012.462-1.738.462z" fill="#323436"/>
  </g>
  <g filter="url(#GprabcBmgh)">
    <rect x="327" y="316" width="93" height="32" rx="16" fill="#fff"/>
    <path d="M340.502 336.132c-.69 0-1.254-.125-1.694-.374a3.503 3.503 0 01-1.089-.979l.671-.55c.3.374.616.653.946.836.337.183.737.275 1.199.275.557 0 .982-.128 1.276-.385.293-.257.44-.616.44-1.078 0-.374-.107-.664-.319-.869-.213-.213-.583-.363-1.111-.451l-.858-.143a3.335 3.335 0 01-.946-.297 1.995 1.995 0 01-.605-.473 1.8 1.8 0 01-.33-.616 2.51 2.51 0 01-.099-.704c0-.704.231-1.236.693-1.595.462-.359 1.085-.539 1.87-.539.616 0 1.133.103 1.551.308.425.205.766.495 1.023.869l-.649.561a2.642 2.642 0 00-.77-.682c-.301-.176-.69-.264-1.166-.264-.521 0-.921.11-1.199.33-.279.22-.418.55-.418.99 0 .345.102.627.308.847.212.213.59.367 1.133.462l.825.143c.374.066.689.165.946.297.256.132.462.29.616.473.161.183.275.389.341.616.066.227.099.466.099.715 0 .711-.235 1.269-.704 1.672-.462.403-1.122.605-1.98.605zm6.892-.132c-.432 0-.751-.121-.957-.363-.198-.242-.297-.554-.297-.935v-3.63h-1.892v-.748h1.408c.191 0 .323-.037.396-.11.081-.081.121-.216.121-.407v-1.485h.847v2.002h2.585v.748h-2.585v4.18h2.585V336h-2.211zm8.158-5.676h.88l-2.816 6.919a2.203 2.203 0 01-.22.418 1.005 1.005 0 01-.286.297c-.11.081-.242.139-.396.176a2.016 2.016 0 01-.55.066h-.836v-.748h1.32l.638-1.562-2.288-5.566h.902l.957 2.376.847 2.156h.044l.847-2.156.957-2.376zm2.339 4.928h1.98v-6.644h-1.98v-.748h2.86v7.392h1.98V336h-4.84v-.748zm9.114.88c-.41 0-.781-.07-1.111-.209a2.42 2.42 0 01-.836-.594 2.86 2.86 0 01-.528-.935 3.797 3.797 0 01-.187-1.221c0-.455.063-.865.187-1.232.132-.367.312-.678.539-.935.228-.264.499-.466.814-.605a2.673 2.673 0 011.067-.209c.382 0 .726.07 1.034.209.316.139.583.334.803.583.22.242.389.532.506.869.118.337.176.708.176 1.111v.418h-4.202v.264c0 .249.041.48.121.693.081.213.195.396.341.55.154.154.338.275.55.363.22.081.462.121.726.121.382 0 .712-.088.99-.264a1.7 1.7 0 00.638-.726l.649.44c-.168.381-.451.697-.847.946-.388.242-.865.363-1.43.363zm-.055-5.214a1.688 1.688 0 00-1.21.495 1.777 1.777 0 00-.352.55c-.08.205-.121.433-.121.682v.077h3.256v-.121c0-.249-.04-.477-.121-.682a1.468 1.468 0 00-.319-.528 1.276 1.276 0 00-.495-.352 1.613 1.613 0 00-.638-.121zm9.423 5.731c0 .572-.238.994-.715 1.265-.477.279-1.192.418-2.145.418-.917 0-1.577-.121-1.98-.363-.396-.242-.594-.59-.594-1.045 0-.308.081-.546.242-.715.161-.169.389-.293.682-.374v-.132a.987.987 0 01-.374-.308.8.8 0 01-.132-.473c0-.293.095-.513.286-.66.198-.147.444-.257.737-.33v-.044a1.846 1.846 0 01-.825-.682 1.928 1.928 0 01-.286-1.056c0-.286.051-.55.154-.792.103-.242.249-.447.44-.616.198-.176.433-.312.704-.407.271-.095.572-.143.902-.143.425 0 .799.077 1.122.231v-.099c0-.22.051-.403.154-.55.103-.147.279-.22.528-.22h1.045v.77h-1.276v.385a1.8 1.8 0 01.473.627c.11.242.165.513.165.814 0 .286-.055.55-.165.792a1.8 1.8 0 01-.44.627 2.038 2.038 0 01-.704.396 2.713 2.713 0 01-.902.143 3.471 3.471 0 01-.539-.044 1.41 1.41 0 00-.275.077.884.884 0 00-.264.132.682.682 0 00-.198.187.433.433 0 00-.077.253c0 .169.084.282.253.341.169.051.389.077.66.077h1.254c.733 0 1.265.139 1.595.418.33.271.495.638.495 1.1zm-.825.044a.659.659 0 00-.275-.55c-.183-.132-.502-.198-.957-.198h-1.969c-.381.154-.572.411-.572.77 0 .249.099.462.297.638.198.183.528.275.99.275h.858c.513 0 .913-.081 1.199-.242.286-.154.429-.385.429-.693zm-2.079-3.267c.44 0 .763-.103.968-.308.213-.205.319-.477.319-.814v-.319c0-.337-.106-.605-.319-.803-.205-.205-.528-.308-.968-.308-.44 0-.763.103-.968.308-.205.198-.308.466-.308.803v.319c0 .337.103.609.308.814.205.205.528.308.968.308zm7.971 1.65h-.044a2.479 2.479 0 01-.22.407 1.397 1.397 0 01-.33.33 1.555 1.555 0 01-.451.231 1.94 1.94 0 01-.616.088c-.594 0-1.071-.187-1.43-.561-.359-.381-.539-.917-.539-1.606v-3.641h.88v3.487c0 .521.114.909.341 1.166.227.249.561.374 1.001.374.176 0 .348-.022.517-.066.169-.044.319-.11.451-.198.132-.088.238-.198.319-.33a.966.966 0 00.121-.495v-3.938h.88V336h-.88v-.924zm5.606-6.006c-.257 0-.437-.051-.539-.154a.573.573 0 01-.154-.407v-.176c0-.161.051-.293.154-.396.102-.11.282-.165.539-.165.256 0 .436.055.539.165a.54.54 0 01.154.396v.176a.577.577 0 01-.154.407c-.103.103-.283.154-.539.154zm-2.486 6.182h2.046v-4.18h-2.046v-.748h2.926v4.928h1.914V336h-4.84v-.748zm10.104-.176h-.044c-.366.704-.949 1.056-1.749 1.056-.696 0-1.243-.26-1.639-.781-.388-.521-.583-1.25-.583-2.189 0-.939.195-1.668.583-2.189.396-.521.943-.781 1.639-.781.8 0 1.383.352 1.749 1.056h.044v-3.388h.88V336h-.88v-.924zm-1.452.275c.198 0 .385-.026.561-.077.176-.051.33-.125.462-.22.132-.103.235-.224.308-.363a1.03 1.03 0 00.121-.506v-2.046a.966.966 0 00-.121-.495.975.975 0 00-.308-.363 1.355 1.355 0 00-.462-.231 2.006 2.006 0 00-.561-.077c-.513 0-.913.158-1.199.473-.278.308-.418.719-.418 1.232v.968c0 .513.14.928.418 1.243.286.308.686.462 1.199.462zm6.772.781c-.411 0-.781-.07-1.111-.209a2.41 2.41 0 01-.836-.594 2.86 2.86 0 01-.528-.935 3.77 3.77 0 01-.187-1.221c0-.455.062-.865.187-1.232.132-.367.312-.678.539-.935.227-.264.499-.466.814-.605a2.67 2.67 0 011.067-.209c.381 0 .726.07 1.034.209.315.139.583.334.803.583.22.242.389.532.506.869.117.337.176.708.176 1.111v.418h-4.202v.264c0 .249.04.48.121.693.081.213.194.396.341.55.154.154.337.275.55.363.22.081.462.121.726.121.381 0 .711-.088.99-.264.279-.176.491-.418.638-.726l.649.44c-.169.381-.451.697-.847.946-.389.242-.865.363-1.43.363zm-.055-5.214a1.684 1.684 0 00-1.21.495 1.759 1.759 0 00-.352.55 1.844 1.844 0 00-.121.682v.077h3.256v-.121c0-.249-.04-.477-.121-.682a1.482 1.482 0 00-.319-.528 1.276 1.276 0 00-.495-.352 1.616 1.616 0 00-.638-.121zm6.618 5.214c-.594 0-1.108-.099-1.54-.297a3.435 3.435 0 01-1.089-.814l.594-.517c.271.286.568.506.891.66.322.154.711.231 1.166.231.44 0 .799-.077 1.078-.231.286-.161.429-.411.429-.748a.687.687 0 00-.088-.363.592.592 0 00-.22-.242 1.118 1.118 0 00-.319-.132 2.765 2.765 0 00-.374-.088l-.891-.132a9.65 9.65 0 01-.649-.121 2.203 2.203 0 01-.627-.242 1.6 1.6 0 01-.484-.462c-.125-.191-.187-.44-.187-.748 0-.286.055-.532.165-.737a1.5 1.5 0 01.484-.528c.205-.147.447-.253.726-.319.278-.073.583-.11.913-.11.513 0 .957.081 1.331.242.381.161.707.385.979.671l-.572.539a1.642 1.642 0 00-.253-.242 1.364 1.364 0 00-.363-.231 2.09 2.09 0 00-.495-.176 2.958 2.958 0 00-.66-.066c-.448 0-.792.077-1.034.231a.753.753 0 00-.352.671.82.82 0 00.077.374.69.69 0 00.231.231c.095.059.201.106.319.143.124.029.249.055.374.077l.891.132c.205.029.421.07.649.121.227.051.436.136.627.253.19.11.348.26.473.451.132.191.198.44.198.748 0 .565-.22 1.001-.66 1.309-.433.308-1.012.462-1.738.462z" fill="#323436"/>
  </g>
  <g filter="url(#GprabcBmgi)">
    <rect x="236" y="272" width="73" height="32" rx="16" fill="#fff"/>
    <path d="M250.913 288.513h-2.992V292h-.924v-7.678h.924v3.388h2.992v-3.388h.924V292h-.924v-3.487zm5.562-3.388V292h-.924v-6.875h-2.563v-.803h6.05v.803h-2.563zm7.839 3.025v-2.431h-.088l-1.617 3.949-1.617-3.949h-.088V292h-.847v-7.678h1.188l1.353 3.388h.066l1.353-3.388h1.144V292h-.847v-3.85zm2.91 3.85v-7.678h.924v6.875h3.641V292h-4.565zm6.266 1.518l3.828-9.878h.792l-3.828 9.878h-.792zm10.886-9.196v5.687c0 .323-.055.616-.165.88a1.83 1.83 0 01-.473.671 2.13 2.13 0 01-.715.429 2.815 2.815 0 01-.913.143c-.587 0-1.071-.15-1.452-.451-.382-.308-.631-.737-.748-1.287l.88-.187c.036.154.084.301.143.44.066.132.15.249.253.352.11.095.242.172.396.231.154.059.337.088.55.088.418 0 .74-.117.968-.352.234-.242.352-.616.352-1.122v-4.719h-2.772v-.803h3.696zm4.593 7.81c-.689 0-1.254-.125-1.694-.374a3.503 3.503 0 01-1.089-.979l.671-.55c.301.374.616.653.946.836.338.183.737.275 1.199.275.558 0 .983-.128 1.276-.385.294-.257.44-.616.44-1.078 0-.374-.106-.664-.319-.869-.212-.213-.583-.363-1.111-.451l-.858-.143a3.346 3.346 0 01-.946-.297 2.007 2.007 0 01-.605-.473 1.8 1.8 0 01-.33-.616 2.51 2.51 0 01-.099-.704c0-.704.231-1.236.693-1.595.462-.359 1.086-.539 1.87-.539.616 0 1.133.103 1.551.308.426.205.767.495 1.023.869l-.649.561a2.617 2.617 0 00-.77-.682c-.3-.176-.689-.264-1.166-.264-.52 0-.92.11-1.199.33-.278.22-.418.55-.418.99 0 .345.103.627.308.847.213.213.591.367 1.133.462l.825.143c.374.066.69.165.946.297.257.132.462.29.616.473.162.183.275.389.341.616.066.227.099.466.099.715 0 .711-.234 1.269-.704 1.672-.462.403-1.122.605-1.98.605zm9.643-.132h-1.045l-.913-1.529-1.012-1.672h-.044l-1.045 1.672-.968 1.529h-1.012l2.508-3.916-2.365-3.762h1.045l.891 1.485.957 1.551h.044l.946-1.551.924-1.485h1.012l-2.376 3.751 2.453 3.927z" fill="#323436"/>
  </g>
  <g filter="url(#GprabcBmgj)">
    <rect x="317" y="272" width="40" height="32" rx="16" fill="#fff"/>
    <path d="M330.659 292.132c-.938 0-1.639-.341-2.101-1.023-.454-.682-.682-1.665-.682-2.948s.228-2.266.682-2.948c.462-.682 1.163-1.023 2.101-1.023.352 0 .657.048.913.143.257.095.477.224.66.385.184.161.338.345.462.55.125.198.235.4.33.605l-.792.363a3.144 3.144 0 00-.231-.473 1.538 1.538 0 00-.319-.396 1.232 1.232 0 00-.429-.275 1.57 1.57 0 00-.594-.099c-.608 0-1.063.231-1.364.693-.293.462-.44 1.078-.44 1.848v1.254c0 .77.147 1.386.44 1.848.301.462.756.693 1.364.693.235 0 .433-.033.594-.099.169-.066.312-.154.429-.264.125-.117.231-.249.319-.396.088-.154.165-.315.231-.484l.792.363a4.862 4.862 0 01-.33.616 2.425 2.425 0 01-.462.539 2.08 2.08 0 01-.66.385 2.628 2.628 0 01-.913.143zm6.321 0c-.689 0-1.254-.125-1.694-.374a3.503 3.503 0 01-1.089-.979l.671-.55c.301.374.616.653.946.836.337.183.737.275 1.199.275.557 0 .983-.128 1.276-.385.293-.257.44-.616.44-1.078 0-.374-.106-.664-.319-.869-.213-.213-.583-.363-1.111-.451l-.858-.143a3.346 3.346 0 01-.946-.297 2.007 2.007 0 01-.605-.473 1.8 1.8 0 01-.33-.616 2.51 2.51 0 01-.099-.704c0-.704.231-1.236.693-1.595.462-.359 1.085-.539 1.87-.539.616 0 1.133.103 1.551.308.425.205.766.495 1.023.869l-.649.561a2.63 2.63 0 00-.77-.682c-.301-.176-.689-.264-1.166-.264-.521 0-.92.11-1.199.33-.279.22-.418.55-.418.99 0 .345.103.627.308.847.213.213.59.367 1.133.462l.825.143c.374.066.689.165.946.297.257.132.462.29.616.473.161.183.275.389.341.616.066.227.099.466.099.715 0 .711-.235 1.269-.704 1.672-.462.403-1.122.605-1.98.605zm6.596 0c-.689 0-1.254-.125-1.694-.374a3.503 3.503 0 01-1.089-.979l.671-.55c.301.374.616.653.946.836.337.183.737.275 1.199.275.557 0 .983-.128 1.276-.385.293-.257.44-.616.44-1.078 0-.374-.106-.664-.319-.869-.213-.213-.583-.363-1.111-.451l-.858-.143a3.346 3.346 0 01-.946-.297 2.007 2.007 0 01-.605-.473 1.8 1.8 0 01-.33-.616 2.51 2.51 0 01-.099-.704c0-.704.231-1.236.693-1.595.462-.359 1.085-.539 1.87-.539.616 0 1.133.103 1.551.308.425.205.766.495 1.023.869l-.649.561a2.63 2.63 0 00-.77-.682c-.301-.176-.689-.264-1.166-.264-.521 0-.92.11-1.199.33-.279.22-.418.55-.418.99 0 .345.103.627.308.847.213.213.59.367 1.133.462l.825.143c.374.066.689.165.946.297.257.132.462.29.616.473.161.183.275.389.341.616.066.227.099.466.099.715 0 .711-.235 1.269-.704 1.672-.462.403-1.122.605-1.98.605z" fill="#323436"/>
  </g>
  <g filter="url(#GprabcBmgk)">
    <path fill="#fff" d="M492 120h60v32h-60z"/>
    <path d="M507.097 138.977h-.055a3.42 3.42 0 01-.231.429 1.502 1.502 0 01-.825.627 2.093 2.093 0 01-.682.099c-.836 0-1.459-.337-1.87-1.012-.403-.675-.605-1.643-.605-2.904 0-1.32.224-2.321.671-3.003.447-.682 1.137-1.023 2.068-1.023.359 0 .671.048.935.143.264.095.488.224.671.385.191.161.348.345.473.55.125.198.227.4.308.605l-.792.363a3.144 3.144 0 00-.231-.473 1.37 1.37 0 00-.308-.396 1.232 1.232 0 00-.429-.275 1.628 1.628 0 00-.594-.099c-.616 0-1.071.231-1.364.693-.286.462-.429 1.078-.429 1.848v1.188c0 .389.029.744.088 1.067.059.315.154.59.286.825.139.235.315.418.528.55.22.125.488.187.803.187.499 0 .887-.15 1.166-.451.279-.301.418-.689.418-1.166v-.792h-1.617v-.737h2.475V140h-.858v-1.023zm7.157 1.023c-.345 0-.591-.088-.737-.264a1.274 1.274 0 01-.275-.66h-.055c-.125.33-.327.59-.605.781-.272.183-.638.275-1.1.275-.594 0-1.067-.154-1.419-.462-.352-.308-.528-.73-.528-1.265 0-.528.19-.935.572-1.221.388-.286 1.012-.429 1.87-.429h1.21v-.561c0-.418-.118-.73-.352-.935-.235-.213-.569-.319-1.001-.319-.382 0-.693.077-.935.231a1.645 1.645 0 00-.583.605l-.594-.44c.073-.147.172-.29.297-.429a1.77 1.77 0 01.462-.363c.183-.11.392-.194.627-.253.234-.066.495-.099.781-.099.667 0 1.195.169 1.584.506.396.337.594.807.594 1.408v3.124h.792v.77h-.605zm-2.618-.605c.227 0 .432-.026.616-.077.19-.059.355-.132.495-.22a1.05 1.05 0 00.319-.33.794.794 0 00.121-.418v-.935h-1.21c-.528 0-.913.073-1.155.22a.703.703 0 00-.363.638v.231c0 .293.102.517.308.671.212.147.502.22.869.22zm7.343.605c-.432 0-.751-.121-.957-.363-.198-.242-.297-.554-.297-.935v-3.63h-1.892v-.748h1.408c.191 0 .323-.037.396-.11.081-.081.121-.216.121-.407v-1.485h.847v2.002h2.585v.748h-2.585v4.18h2.585V140h-2.211zm6.387.132c-.594 0-1.107-.099-1.54-.297a3.457 3.457 0 01-1.089-.814l.594-.517c.271.286.568.506.891.66.323.154.711.231 1.166.231.44 0 .799-.077 1.078-.231.286-.161.429-.411.429-.748a.678.678 0 00-.088-.363.585.585 0 00-.22-.242 1.106 1.106 0 00-.319-.132 2.73 2.73 0 00-.374-.088l-.891-.132a9.768 9.768 0 01-.649-.121 2.226 2.226 0 01-.627-.242 1.6 1.6 0 01-.484-.462c-.125-.191-.187-.44-.187-.748 0-.286.055-.532.165-.737a1.51 1.51 0 01.484-.528c.205-.147.447-.253.726-.319.279-.073.583-.11.913-.11.513 0 .957.081 1.331.242.381.161.708.385.979.671l-.572.539a1.597 1.597 0 00-.253-.242 1.332 1.332 0 00-.363-.231 2.058 2.058 0 00-.495-.176 2.958 2.958 0 00-.66-.066c-.447 0-.792.077-1.034.231a.753.753 0 00-.352.671c0 .147.026.271.077.374a.708.708 0 00.231.231c.095.059.202.106.319.143.125.029.249.055.374.077l.891.132c.205.029.422.07.649.121.227.051.436.136.627.253.191.11.348.26.473.451.132.191.198.44.198.748 0 .565-.22 1.001-.66 1.309-.433.308-1.012.462-1.738.462zm4.275-8.272h.88v3.388h.044c.366-.704.949-1.056 1.749-1.056.696 0 1.239.26 1.628.781.396.521.594 1.25.594 2.189 0 .939-.198 1.668-.594 2.189-.389.521-.932.781-1.628.781-.8 0-1.383-.352-1.749-1.056h-.044V140h-.88v-8.14zm2.332 7.491c.513 0 .909-.154 1.188-.462.286-.315.429-.73.429-1.243v-.968c0-.513-.143-.924-.429-1.232-.279-.315-.675-.473-1.188-.473-.198 0-.385.026-.561.077-.176.051-.33.128-.462.231a1.074 1.074 0 00-.319.363 1.04 1.04 0 00-.11.495v2.046c0 .191.036.359.11.506.08.139.187.26.319.363.132.095.286.169.462.22.176.051.363.077.561.077zm8.355-5.027h.88l-2.816 6.919a2.203 2.203 0 01-.22.418.992.992 0 01-.286.297c-.11.081-.242.139-.396.176a2.016 2.016 0 01-.55.066h-.836v-.748h1.32l.638-1.562-2.288-5.566h.902l.957 2.376.847 2.156h.044l.847-2.156.957-2.376z" fill="#323436"/>
  </g>
  <g filter="url(#GprabcBmgl)">
    <path fill="#fff" d="M485 160h67v32h-67z"/>
    <path d="M497.208 173.499h-.077V180h-.836v-7.678h1.309l2.618 6.435h.077v-6.435h.836V180h-1.309l-2.618-6.501zm8.202 6.633c-.411 0-.781-.07-1.111-.209a2.4 2.4 0 01-.836-.594 2.824 2.824 0 01-.528-.935 3.77 3.77 0 01-.187-1.221c0-.455.062-.865.187-1.232.132-.367.311-.678.539-.935.227-.264.498-.466.814-.605a2.666 2.666 0 011.067-.209c.381 0 .726.07 1.034.209.315.139.583.334.803.583.22.242.388.532.506.869.117.337.176.708.176 1.111v.418h-4.202v.264c0 .249.04.48.121.693.08.213.194.396.341.55.154.154.337.275.55.363.22.081.462.121.726.121.381 0 .711-.088.99-.264.278-.176.491-.418.638-.726l.649.44c-.169.381-.451.697-.847.946-.389.242-.866.363-1.43.363zm-.055-5.214a1.684 1.684 0 00-1.21.495 1.759 1.759 0 00-.352.55 1.844 1.844 0 00-.121.682v.077h3.256v-.121c0-.249-.041-.477-.121-.682a1.497 1.497 0 00-.319-.528 1.276 1.276 0 00-.495-.352 1.62 1.62 0 00-.638-.121zm6.826 5.082c-.432 0-.751-.121-.957-.363-.198-.242-.297-.554-.297-.935v-3.63h-1.892v-.748h1.408c.191 0 .323-.037.396-.11.081-.081.121-.216.121-.407v-1.485h.847v2.002h2.585v.748h-2.585v4.18h2.585V180h-2.211zm3.901-.748h1.98v-6.644h-1.98v-.748h2.86v7.392h1.98V180h-4.84v-.748zm9.368-6.182c-.257 0-.436-.051-.539-.154a.573.573 0 01-.154-.407v-.176c0-.161.051-.293.154-.396.103-.11.282-.165.539-.165.257 0 .436.055.539.165a.536.536 0 01.154.396v.176a.573.573 0 01-.154.407c-.103.103-.282.154-.539.154zm-2.486 6.182h2.046v-4.18h-2.046v-.748h2.926v4.928h1.914V180h-4.84v-.748zm6.343 0h1.914v-4.18h-2.024v-.748h2.024v-1.166c0-.381.099-.693.297-.935.205-.242.524-.363.957-.363h1.903v.748h-2.277v1.716h2.277v.748h-2.277v4.18h2.024V180h-4.818v-.748zm10.819-4.928h.88l-2.816 6.919a2.203 2.203 0 01-.22.418.992.992 0 01-.286.297c-.11.081-.242.139-.396.176a2.016 2.016 0 01-.55.066h-.836v-.748h1.32l.638-1.562-2.288-5.566h.902l.957 2.376.847 2.156h.044l.847-2.156.957-2.376z" fill="#323436"/>
  </g>
  <g filter="url(#GprabcBmgm)">
    <path fill="#fff" d="M505 200h47v32h-47z"/>
    <path d="M517.102 213.499h-.077V220h-.836v-7.678h1.309l2.618 6.435h.077v-6.435h.836V220h-1.309l-2.618-6.501zm8.201 6.633c-.41 0-.781-.07-1.111-.209a2.42 2.42 0 01-.836-.594 2.86 2.86 0 01-.528-.935 3.797 3.797 0 01-.187-1.221c0-.455.063-.865.187-1.232.132-.367.312-.678.539-.935.228-.264.499-.466.814-.605a2.673 2.673 0 011.067-.209c.382 0 .726.07 1.034.209.316.139.583.334.803.583.22.242.389.532.506.869.118.337.176.708.176 1.111v.418h-4.202v.264c0 .249.041.48.121.693.081.213.195.396.341.55.154.154.338.275.55.363.22.081.462.121.726.121.382 0 .712-.088.99-.264a1.7 1.7 0 00.638-.726l.649.44c-.168.381-.451.697-.847.946-.388.242-.865.363-1.43.363zm-.055-5.214a1.688 1.688 0 00-1.21.495 1.777 1.777 0 00-.352.55c-.08.205-.121.433-.121.682v.077h3.256v-.121c0-.249-.04-.477-.121-.682a1.468 1.468 0 00-.319-.528 1.276 1.276 0 00-.495-.352 1.613 1.613 0 00-.638-.121zm3.923 5.082l2.112-2.882-2.057-2.794h1.056l.858 1.199.682.946h.044l.66-.946.847-1.199h1.012l-2.079 2.783L534.44 220h-1.056l-.957-1.331-.649-.902h-.044l-.627.902-.924 1.331h-1.012zm9.5 0c-.433 0-.752-.121-.957-.363-.198-.242-.297-.554-.297-.935v-3.63h-1.892v-.748h1.408c.19 0 .322-.037.396-.11.08-.081.121-.216.121-.407v-1.485h.847v2.002h2.585v.748h-2.585v4.18h2.585V220h-2.211z" fill="#323436"/>
  </g>
  <g filter="url(#GprabcBmgn)">
    <path fill="#fff" d="M499 240h53v32h-53z"/>
    <path d="M510.925 260h-.924v-7.678h2.794c.711 0 1.254.194 1.628.583.374.389.561.931.561 1.628 0 .623-.162 1.122-.484 1.496-.323.374-.792.59-1.408.649L515.05 260h-1.034l-1.87-3.278h-1.221V260zm1.848-4.059c.388 0 .689-.095.902-.286.22-.198.33-.477.33-.836v-.572c0-.359-.11-.634-.33-.825-.213-.198-.514-.297-.902-.297h-1.848v2.816h1.848zm6.232 4.191c-.41 0-.781-.07-1.111-.209a2.42 2.42 0 01-.836-.594 2.86 2.86 0 01-.528-.935 3.797 3.797 0 01-.187-1.221c0-.455.063-.865.187-1.232.132-.367.312-.678.539-.935.228-.264.499-.466.814-.605a2.673 2.673 0 011.067-.209c.382 0 .726.07 1.034.209.316.139.583.334.803.583.22.242.389.532.506.869.118.337.176.708.176 1.111v.418h-4.202v.264c0 .249.041.48.121.693.081.213.195.396.341.55.154.154.338.275.55.363.22.081.462.121.726.121.382 0 .712-.088.99-.264a1.7 1.7 0 00.638-.726l.649.44c-.168.381-.451.697-.847.946-.388.242-.865.363-1.43.363zm-.055-5.214a1.688 1.688 0 00-1.21.495 1.777 1.777 0 00-.352.55c-.08.205-.121.433-.121.682v.077h3.256v-.121c0-.249-.04-.477-.121-.682a1.468 1.468 0 00-.319-.528 1.276 1.276 0 00-.495-.352 1.613 1.613 0 00-.638-.121zm8.697 5.082c-.345 0-.59-.088-.737-.264a1.282 1.282 0 01-.275-.66h-.055c-.125.33-.326.59-.605.781-.271.183-.638.275-1.1.275-.594 0-1.067-.154-1.419-.462-.352-.308-.528-.73-.528-1.265 0-.528.191-.935.572-1.221.389-.286 1.012-.429 1.87-.429h1.21v-.561c0-.418-.117-.73-.352-.935-.235-.213-.568-.319-1.001-.319-.381 0-.693.077-.935.231a1.653 1.653 0 00-.583.605l-.594-.44c.073-.147.172-.29.297-.429s.279-.26.462-.363c.183-.11.392-.194.627-.253.235-.066.495-.099.781-.099.667 0 1.195.169 1.584.506.396.337.594.807.594 1.408v3.124h.792v.77h-.605zm-2.618-.605c.227 0 .433-.026.616-.077.191-.059.356-.132.495-.22a1.04 1.04 0 00.319-.33.785.785 0 00.121-.418v-.935h-1.21c-.528 0-.913.073-1.155.22a.703.703 0 00-.363.638v.231c0 .293.103.517.308.671.213.147.502.22.869.22zm7.267.737c-.411 0-.777-.07-1.1-.209a2.35 2.35 0 01-.803-.605 2.66 2.66 0 01-.506-.935 4.243 4.243 0 01-.165-1.221c0-.447.059-.854.176-1.221a2.66 2.66 0 01.506-.935c.22-.264.488-.466.803-.605a2.648 2.648 0 011.078-.209c.55 0 .997.121 1.342.363.345.242.598.557.759.946l-.704.374a1.317 1.317 0 00-.517-.682c-.235-.161-.528-.242-.88-.242a1.74 1.74 0 00-.693.132 1.37 1.37 0 00-.506.352 1.57 1.57 0 00-.319.55 2.33 2.33 0 00-.099.693v.968c0 .249.033.48.099.693a1.464 1.464 0 00.836.913c.205.081.44.121.704.121.381 0 .697-.088.946-.264.249-.176.447-.418.594-.726l.627.429a2.245 2.245 0 01-.792.946c-.352.249-.814.374-1.386.374zm6.673-.132c-.433 0-.752-.121-.957-.363-.198-.242-.297-.554-.297-.935v-3.63h-1.892v-.748h1.408c.19 0 .322-.037.396-.11.08-.081.121-.216.121-.407v-1.485h.847v2.002h2.585v.748h-2.585v4.18h2.585V260h-2.211z" fill="#323436"/>
  </g>
  <g filter="url(#GprabcBmgo)">
    <path fill="#fff" d="M466 280h86v32h-86z"/>
    <path d="M479.783 293.125V300h-.924v-6.875h-2.563v-.803h6.05v.803h-2.563zm7.971 1.199h.88l-2.816 6.919a2.203 2.203 0 01-.22.418.992.992 0 01-.286.297c-.11.081-.242.139-.396.176a2.016 2.016 0 01-.55.066h-.836v-.748h1.32l.638-1.562-2.288-5.566h.902l.957 2.376.847 2.156h.044l.847-2.156.957-2.376zm2.504 0h.88v.924h.044c.367-.704.95-1.056 1.749-1.056.697 0 1.239.26 1.628.781.396.521.594 1.25.594 2.189 0 .939-.198 1.668-.594 2.189-.389.521-.931.781-1.628.781-.799 0-1.382-.352-1.749-1.056h-.044v3.124h-.88v-7.876zm2.332 5.027c.513 0 .909-.154 1.188-.462.286-.315.429-.73.429-1.243v-.968c0-.513-.143-.924-.429-1.232-.279-.315-.675-.473-1.188-.473-.198 0-.385.026-.561.077-.176.051-.33.128-.462.231a1.085 1.085 0 00-.319.363c-.073.139-.11.304-.11.495v2.046c0 .191.037.359.11.506.081.139.187.26.319.363.132.095.286.169.462.22.176.051.363.077.561.077zm6.618.781c-.411 0-.781-.07-1.111-.209a2.4 2.4 0 01-.836-.594 2.824 2.824 0 01-.528-.935 3.77 3.77 0 01-.187-1.221c0-.455.062-.865.187-1.232.132-.367.311-.678.539-.935.227-.264.498-.466.814-.605a2.666 2.666 0 011.067-.209c.381 0 .726.07 1.034.209.315.139.583.334.803.583.22.242.388.532.506.869.117.337.176.708.176 1.111v.418h-4.202v.264c0 .249.04.48.121.693.08.213.194.396.341.55.154.154.337.275.55.363.22.081.462.121.726.121.381 0 .711-.088.99-.264.278-.176.491-.418.638-.726l.649.44c-.169.381-.451.697-.847.946-.389.242-.866.363-1.43.363zm-.055-5.214a1.684 1.684 0 00-1.21.495 1.759 1.759 0 00-.352.55 1.844 1.844 0 00-.121.682v.077h3.256v-.121c0-.249-.041-.477-.121-.682a1.497 1.497 0 00-.319-.528 1.276 1.276 0 00-.495-.352 1.62 1.62 0 00-.638-.121zm6.529 5.214c-.689 0-1.254-.125-1.694-.374a3.503 3.503 0 01-1.089-.979l.671-.55c.301.374.616.653.946.836.338.183.737.275 1.199.275.558 0 .983-.128 1.276-.385.294-.257.44-.616.44-1.078 0-.374-.106-.664-.319-.869-.212-.213-.583-.363-1.111-.451l-.858-.143a3.346 3.346 0 01-.946-.297 2.007 2.007 0 01-.605-.473 1.8 1.8 0 01-.33-.616 2.51 2.51 0 01-.099-.704c0-.704.231-1.236.693-1.595.462-.359 1.086-.539 1.87-.539.616 0 1.133.103 1.551.308.426.205.767.495 1.023.869l-.649.561a2.617 2.617 0 00-.77-.682c-.3-.176-.689-.264-1.166-.264-.52 0-.92.11-1.199.33-.278.22-.418.55-.418.99 0 .345.103.627.308.847.213.213.591.367 1.133.462l.825.143c.374.066.69.165.946.297.257.132.462.29.616.473.162.183.275.389.341.616.066.227.099.466.099.715 0 .711-.234 1.269-.704 1.672-.462.403-1.122.605-1.98.605zm6.816 0c-.411 0-.777-.07-1.1-.209a2.35 2.35 0 01-.803-.605 2.66 2.66 0 01-.506-.935 4.243 4.243 0 01-.165-1.221c0-.447.059-.854.176-1.221a2.66 2.66 0 01.506-.935c.22-.264.488-.466.803-.605a2.648 2.648 0 011.078-.209c.55 0 .997.121 1.342.363.345.242.598.557.759.946l-.704.374a1.317 1.317 0 00-.517-.682c-.235-.161-.528-.242-.88-.242a1.74 1.74 0 00-.693.132 1.37 1.37 0 00-.506.352 1.57 1.57 0 00-.319.55 2.33 2.33 0 00-.099.693v.968c0 .249.033.48.099.693a1.464 1.464 0 00.836.913c.205.081.44.121.704.121.381 0 .697-.088.946-.264.249-.176.447-.418.594-.726l.627.429a2.245 2.245 0 01-.792.946c-.352.249-.814.374-1.386.374zm3.945-.88h1.661v-4.18h-1.661v-.748h2.541v1.43h.055c.117-.447.337-.796.66-1.045.33-.257.748-.385 1.254-.385h.792v.88h-1.067c-.506 0-.917.147-1.232.44-.308.293-.462.678-.462 1.155v2.453h2.2V300h-4.741v-.748zm9.4-6.182c-.256 0-.436-.051-.539-.154a.577.577 0 01-.154-.407v-.176a.54.54 0 01.154-.396c.103-.11.283-.165.539-.165.257 0 .437.055.539.165a.536.536 0 01.154.396v.176a.573.573 0 01-.154.407c-.102.103-.282.154-.539.154zm-2.486 6.182h2.046v-4.18h-2.046v-.748h2.926v4.928h1.914V300h-4.84v-.748zm6.475-4.928h.88v.924h.044c.367-.704.95-1.056 1.749-1.056.697 0 1.239.26 1.628.781.396.521.594 1.25.594 2.189 0 .939-.198 1.668-.594 2.189-.389.521-.931.781-1.628.781-.799 0-1.382-.352-1.749-1.056h-.044v3.124h-.88v-7.876zm2.332 5.027c.513 0 .909-.154 1.188-.462.286-.315.429-.73.429-1.243v-.968c0-.513-.143-.924-.429-1.232-.279-.315-.675-.473-1.188-.473-.198 0-.385.026-.561.077-.176.051-.33.128-.462.231a1.085 1.085 0 00-.319.363c-.073.139-.11.304-.11.495v2.046c0 .191.037.359.11.506.081.139.187.26.319.363.132.095.286.169.462.22.176.051.363.077.561.077zm6.794.649c-.433 0-.752-.121-.957-.363-.198-.242-.297-.554-.297-.935v-3.63h-1.892v-.748h1.408c.19 0 .322-.037.396-.11.08-.081.121-.216.121-.407v-1.485h.847v2.002h2.585v.748h-2.585v4.18h2.585V300h-2.211z" fill="#323436"/>
  </g>
  <g filter="url(#GprabcBmgp)">
    <path fill="#fff" d="M40 200h53v32H40z"/>
    <path d="M51 220v-7.678h4.84v.803h-3.915v2.585h3.586v.803h-3.586V220H51zm9.258-6.93c-.256 0-.436-.051-.539-.154a.575.575 0 01-.154-.407v-.176a.54.54 0 01.154-.396c.103-.11.283-.165.54-.165.256 0 .436.055.538.165a.537.537 0 01.154.396v.176a.574.574 0 01-.154.407c-.102.103-.282.154-.539.154zm-2.486 6.182h2.046v-4.18h-2.046v-.748h2.926v4.928h1.914V220h-4.84v-.748zm11.601 1.397c0 .572-.238.994-.715 1.265-.477.279-1.192.418-2.145.418-.916 0-1.577-.121-1.98-.363-.396-.242-.594-.59-.594-1.045 0-.308.08-.546.242-.715.162-.169.389-.293.682-.374v-.132a.985.985 0 01-.374-.308.8.8 0 01-.132-.473c0-.293.096-.513.286-.66.198-.147.444-.257.737-.33v-.044a1.846 1.846 0 01-.825-.682 1.932 1.932 0 01-.286-1.056c0-.286.051-.55.154-.792.103-.242.25-.447.44-.616.198-.176.433-.312.704-.407.272-.095.572-.143.902-.143.425 0 .8.077 1.122.231v-.099c0-.22.052-.403.154-.55.103-.147.279-.22.528-.22h1.045v.77h-1.276v.385c.206.176.363.385.473.627.11.242.165.513.165.814 0 .286-.055.55-.165.792-.103.242-.25.451-.44.627-.19.169-.425.301-.704.396a2.715 2.715 0 01-.902.143 3.465 3.465 0 01-.539-.044 1.41 1.41 0 00-.275.077.877.877 0 00-.264.132.693.693 0 00-.198.187.43.43 0 00-.077.253c0 .169.085.282.253.341.169.051.389.077.66.077h1.254c.733 0 1.265.139 1.595.418.33.271.495.638.495 1.1zm-.825.044a.658.658 0 00-.275-.55c-.183-.132-.502-.198-.957-.198h-1.969c-.381.154-.572.411-.572.77 0 .249.1.462.297.638.198.183.528.275.99.275h.858c.513 0 .913-.081 1.2-.242.285-.154.428-.385.428-.693zm-2.079-3.267c.44 0 .763-.103.968-.308.213-.205.32-.477.32-.814v-.319c0-.337-.107-.605-.32-.803-.205-.205-.528-.308-.968-.308-.44 0-.762.103-.968.308-.205.198-.308.466-.308.803v.319c0 .337.103.609.308.814.206.205.528.308.968.308zM70.392 220v-5.676h.814v.66h.044a1.57 1.57 0 01.374-.561c.161-.154.4-.231.715-.231.33 0 .576.084.737.253.161.161.26.374.297.638h.033c.102-.257.25-.469.44-.638.19-.169.454-.253.792-.253.462 0 .77.161.924.484.161.323.242.785.242 1.386V220h-.814v-3.795c0-.484-.051-.818-.154-1.001-.096-.191-.275-.286-.54-.286a.754.754 0 00-.571.231c-.147.147-.22.374-.22.682V220h-.814v-3.795c0-.484-.052-.818-.154-1.001-.096-.191-.272-.286-.528-.286a.79.79 0 00-.583.231c-.147.147-.22.374-.22.682V220h-.814zm11.447 0c-.345 0-.59-.088-.737-.264a1.281 1.281 0 01-.275-.66h-.055c-.125.33-.327.59-.605.781-.272.183-.638.275-1.1.275-.594 0-1.067-.154-1.42-.462-.351-.308-.527-.73-.527-1.265 0-.528.19-.935.572-1.221.388-.286 1.012-.429 1.87-.429h1.21v-.561c0-.418-.118-.73-.352-.935-.235-.213-.569-.319-1.001-.319-.382 0-.693.077-.935.231a1.65 1.65 0 00-.583.605l-.594-.44c.073-.147.172-.29.297-.429a1.79 1.79 0 01.462-.363 2.3 2.3 0 01.627-.253 2.88 2.88 0 01.78-.099c.668 0 1.196.169 1.585.506.396.337.594.807.594 1.408v3.124h.792v.77h-.605zm-2.618-.605c.227 0 .432-.026.616-.077.19-.059.355-.132.495-.22a1.04 1.04 0 00.319-.33.789.789 0 00.12-.418v-.935h-1.21c-.527 0-.912.073-1.154.22a.703.703 0 00-.363.638v.231c0 .293.102.517.308.671.212.147.502.22.869.22z" fill="#323436"/>
  </g>
  <g filter="url(#GprabcBmgq)">
    <path fill="#fff" d="M40 160h73v32H40z"/>
    <path d="M55.408 180l-.649-2.189h-2.695L51.415 180h-.957l2.354-7.678h1.221L56.387 180h-.979zm-1.947-6.699h-.099l-1.078 3.707h2.255l-1.078-3.707zm7.927 5.775h-.044c-.367.704-.95 1.056-1.75 1.056-.696 0-1.242-.26-1.638-.781-.389-.521-.583-1.25-.583-2.189 0-.939.194-1.668.583-2.189.396-.521.942-.781 1.639-.781.8 0 1.382.352 1.749 1.056h.044v-3.388h.88V180h-.88v-.924zm-1.452.275c.198 0 .385-.026.56-.077.177-.051.33-.125.463-.22.132-.103.235-.224.308-.363.08-.147.12-.315.12-.506v-2.046a.969.969 0 00-.12-.495.978.978 0 00-.308-.363 1.355 1.355 0 00-.462-.231 2.006 2.006 0 00-.561-.077c-.513 0-.913.158-1.2.473-.278.308-.417.719-.417 1.232v.968c0 .513.14.928.418 1.243.286.308.686.462 1.199.462zm6.673.781c-.396 0-.756-.07-1.078-.209a2.327 2.327 0 01-.814-.594 2.803 2.803 0 01-.506-.935 4.033 4.033 0 01-.176-1.232c0-.447.058-.854.176-1.221a2.66 2.66 0 01.506-.935c.227-.264.498-.466.814-.605a2.698 2.698 0 011.078-.209c.396 0 .751.07 1.067.209.322.139.594.341.814.605.227.257.4.568.517.935.117.367.176.774.176 1.221 0 .455-.06.865-.176 1.232a2.7 2.7 0 01-.517.935 2.2 2.2 0 01-.814.594 2.619 2.619 0 01-1.067.209zm0-.759c.49 0 .887-.147 1.188-.44.3-.293.45-.748.45-1.364v-.814c0-.616-.15-1.071-.45-1.364-.301-.293-.697-.44-1.188-.44-.492 0-.888.147-1.188.44-.301.293-.451.748-.451 1.364v.814c0 .616.15 1.071.45 1.364.301.293.697.44 1.189.44zm4.34-7.513h.88v3.388h.044c.367-.704.95-1.056 1.75-1.056.696 0 1.239.26 1.627.781.396.521.594 1.25.594 2.189 0 .939-.198 1.668-.594 2.189-.388.521-.931.781-1.628.781-.799 0-1.382-.352-1.749-1.056h-.044V180h-.88v-8.14zm2.332 7.491c.514 0 .91-.154 1.188-.462.286-.315.43-.73.43-1.243v-.968c0-.513-.144-.924-.43-1.232-.278-.315-.674-.473-1.188-.473-.198 0-.385.026-.56.077a1.36 1.36 0 00-.463.231 1.082 1.082 0 00-.319.363c-.073.139-.11.304-.11.495v2.046c0 .191.037.359.11.506.081.139.187.26.32.363.131.095.285.169.461.22.176.051.363.077.561.077zm6.618.781c-.41 0-.781-.07-1.111-.209a2.41 2.41 0 01-.836-.594 2.849 2.849 0 01-.528-.935 3.777 3.777 0 01-.187-1.221c0-.455.062-.865.187-1.232.132-.367.312-.678.539-.935.227-.264.499-.466.814-.605a2.67 2.67 0 011.067-.209c.381 0 .726.07 1.034.209.315.139.583.334.803.583.22.242.389.532.506.869.117.337.176.708.176 1.111v.418h-4.202v.264c0 .249.04.48.121.693.08.213.194.396.341.55.154.154.337.275.55.363.22.081.462.121.726.121.381 0 .711-.088.99-.264.279-.176.491-.418.638-.726l.649.44c-.169.381-.451.697-.847.946-.389.242-.865.363-1.43.363zm-.055-5.214a1.685 1.685 0 00-1.21.495 1.764 1.764 0 00-.352.55 1.85 1.85 0 00-.121.682v.077h3.256v-.121c0-.249-.04-.477-.121-.682a1.482 1.482 0 00-.319-.528 1.276 1.276 0 00-.495-.352 1.616 1.616 0 00-.638-.121zM96.016 180h-1.045l-.913-1.529-1.012-1.672h-.044l-1.045 1.672L90.99 180h-1.012l2.508-3.916-2.365-3.762h1.045l.891 1.485.957 1.551h.044l.946-1.551.924-1.485h1.012l-2.376 3.751L96.016 180zm1.316-7.678h2.145c.939 0 1.639.323 2.101.968.462.645.693 1.602.693 2.871s-.231 2.226-.693 2.871c-.462.645-1.162.968-2.1.968h-2.146v-7.678zm2.101 6.875c.616 0 1.078-.213 1.386-.638.315-.425.473-1.027.473-1.804v-1.188c0-.777-.158-1.379-.473-1.804-.308-.425-.77-.638-1.386-.638h-1.177v6.072h1.177z" fill="#323436"/>
  </g>
  <g filter="url(#GprabcBmgr)">
    <path fill="#fff" d="M40 240h80v32H40z"/>
    <path d="M51.31 260v-7.678h2.793c.712 0 1.254.194 1.628.583.374.389.561.931.561 1.628 0 .697-.187 1.239-.56 1.628-.375.389-.917.583-1.629.583h-1.87V260h-.924zm.923-4.059h1.848c.389 0 .69-.095.902-.286.22-.198.33-.477.33-.836v-.572c0-.359-.11-.634-.33-.825-.212-.198-.513-.297-.902-.297h-1.848v2.816zm5.76-4.081h.88v3.388h.044c.059-.139.132-.271.22-.396a1.4 1.4 0 01.319-.341c.132-.095.286-.172.462-.231a1.94 1.94 0 01.616-.088c.594 0 1.07.191 1.43.572.36.374.539.906.539 1.595V260h-.88v-3.487c0-.521-.114-.906-.341-1.155-.227-.257-.561-.385-1.001-.385a2.04 2.04 0 00-.517.066 1.48 1.48 0 00-.451.198 1.019 1.019 0 00-.319.341.95.95 0 00-.121.484V260h-.88v-8.14zm8.818 8.272c-.396 0-.756-.07-1.078-.209a2.328 2.328 0 01-.814-.594 2.805 2.805 0 01-.506-.935 4.033 4.033 0 01-.176-1.232c0-.447.058-.854.176-1.221a2.66 2.66 0 01.506-.935c.227-.264.498-.466.814-.605a2.698 2.698 0 011.078-.209c.396 0 .751.07 1.067.209.322.139.594.341.814.605.227.257.4.568.517.935.117.367.176.774.176 1.221 0 .455-.059.865-.176 1.232a2.7 2.7 0 01-.517.935 2.2 2.2 0 01-.814.594 2.619 2.619 0 01-1.067.209zm0-.759c.491 0 .887-.147 1.188-.44.3-.293.45-.748.45-1.364v-.814c0-.616-.15-1.071-.45-1.364-.3-.293-.697-.44-1.188-.44-.492 0-.888.147-1.188.44-.3.293-.451.748-.451 1.364v.814c0 .616.15 1.071.45 1.364.301.293.697.44 1.189.44zm6.87.627c-.432 0-.751-.121-.957-.363-.198-.242-.297-.554-.297-.935v-3.63h-1.892v-.748h1.408c.191 0 .323-.037.396-.11.081-.081.121-.216.121-.407v-1.485h.847v2.002h2.585v.748h-2.585v4.18h2.585V260h-2.21zm6.321.132c-.396 0-.755-.07-1.078-.209a2.328 2.328 0 01-.814-.594 2.805 2.805 0 01-.506-.935 4.033 4.033 0 01-.176-1.232c0-.447.059-.854.176-1.221.118-.367.286-.678.506-.935.228-.264.499-.466.814-.605a2.698 2.698 0 011.078-.209c.396 0 .752.07 1.067.209.323.139.594.341.814.605.228.257.4.568.517.935.117.367.176.774.176 1.221 0 .455-.058.865-.176 1.232a2.7 2.7 0 01-.517.935 2.2 2.2 0 01-.814.594 2.619 2.619 0 01-1.067.209zm0-.759c.492 0 .888-.147 1.188-.44.3-.293.451-.748.451-1.364v-.814c0-.616-.15-1.071-.45-1.364-.302-.293-.698-.44-1.189-.44-.491 0-.887.147-1.188.44-.3.293-.45.748-.45 1.364v.814c0 .616.15 1.071.45 1.364.3.293.697.44 1.188.44zm6.662.759c-.594 0-1.108-.099-1.54-.297a3.448 3.448 0 01-1.09-.814l.595-.517c.271.286.568.506.89.66.323.154.712.231 1.167.231.44 0 .8-.077 1.078-.231.286-.161.429-.411.429-.748a.681.681 0 00-.088-.363.586.586 0 00-.22-.242 1.107 1.107 0 00-.32-.132 2.744 2.744 0 00-.373-.088l-.891-.132a9.72 9.72 0 01-.65-.121 2.217 2.217 0 01-.626-.242 1.604 1.604 0 01-.484-.462c-.125-.191-.187-.44-.187-.748 0-.286.055-.532.165-.737a1.51 1.51 0 01.484-.528c.205-.147.447-.253.726-.319.278-.073.583-.11.913-.11.513 0 .957.081 1.33.242.382.161.709.385.98.671l-.572.539a1.615 1.615 0 00-.253-.242 1.345 1.345 0 00-.363-.231 2.07 2.07 0 00-.495-.176 2.954 2.954 0 00-.66-.066c-.447 0-.792.077-1.034.231a.754.754 0 00-.352.671c0 .147.026.271.077.374a.7.7 0 00.23.231c.096.059.203.106.32.143.125.029.25.055.374.077l.89.132c.206.029.422.07.65.121.227.051.436.136.627.253.19.11.348.26.473.451.132.191.198.44.198.748 0 .565-.22 1.001-.66 1.309-.433.308-1.012.462-1.738.462zm4.308-8.272h.88v3.388h.044a2.11 2.11 0 01.22-.396 1.4 1.4 0 01.319-.341c.132-.095.286-.172.462-.231a1.94 1.94 0 01.616-.088c.594 0 1.07.191 1.43.572.359.374.539.906.539 1.595V260h-.88v-3.487c0-.521-.114-.906-.341-1.155-.228-.257-.561-.385-1.001-.385a2.04 2.04 0 00-.517.066c-.17.044-.32.11-.451.198a1.018 1.018 0 00-.32.341.948.948 0 00-.12.484V260h-.88v-8.14zm8.817 8.272c-.396 0-.755-.07-1.078-.209a2.326 2.326 0 01-.814-.594 2.803 2.803 0 01-.506-.935 4.03 4.03 0 01-.176-1.232c0-.447.059-.854.176-1.221.118-.367.286-.678.506-.935.228-.264.499-.466.814-.605a2.697 2.697 0 011.078-.209c.396 0 .752.07 1.067.209.323.139.594.341.814.605.228.257.4.568.517.935.118.367.176.774.176 1.221 0 .455-.058.865-.176 1.232a2.685 2.685 0 01-.517.935c-.22.257-.491.455-.814.594a2.618 2.618 0 01-1.067.209zm0-.759c.492 0 .888-.147 1.188-.44.301-.293.451-.748.451-1.364v-.814c0-.616-.15-1.071-.451-1.364-.3-.293-.696-.44-1.188-.44-.491 0-.887.147-1.188.44-.3.293-.45.748-.45 1.364v.814c0 .616.15 1.071.45 1.364.3.293.697.44 1.188.44zm4.341-5.049h.88v.924h.044c.367-.704.95-1.056 1.749-1.056.697 0 1.239.26 1.628.781.396.521.594 1.25.594 2.189 0 .939-.198 1.668-.594 2.189-.389.521-.931.781-1.628.781-.799 0-1.382-.352-1.749-1.056h-.044v3.124h-.88v-7.876zm2.332 5.027c.513 0 .909-.154 1.188-.462.286-.315.429-.73.429-1.243v-.968c0-.513-.143-.924-.429-1.232-.279-.315-.675-.473-1.188-.473-.198 0-.385.026-.561.077-.176.051-.33.128-.462.231a1.085 1.085 0 00-.319.363c-.073.139-.11.304-.11.495v2.046c0 .191.037.359.11.506.081.139.187.26.319.363.132.095.286.169.462.22.176.051.363.077.561.077z" fill="#323436"/>
  </g>
  <g filter="url(#GprabcBmgs)">
    <path fill="#fff" d="M40 280h60v32H40z"/>
    <path d="M53.49 300.132c-.688 0-1.253-.125-1.693-.374a3.503 3.503 0 01-1.09-.979l.672-.55c.3.374.616.653.946.836.337.183.737.275 1.199.275.557 0 .983-.128 1.276-.385.293-.257.44-.616.44-1.078 0-.374-.106-.664-.32-.869-.212-.213-.582-.363-1.11-.451l-.858-.143a3.343 3.343 0 01-.946-.297 2.003 2.003 0 01-.605-.473 1.8 1.8 0 01-.33-.616 2.51 2.51 0 01-.1-.704c0-.704.232-1.236.694-1.595.462-.359 1.085-.539 1.87-.539.616 0 1.133.103 1.55.308.426.205.767.495 1.024.869l-.65.561a2.63 2.63 0 00-.77-.682c-.3-.176-.688-.264-1.165-.264-.52 0-.92.11-1.2.33-.278.22-.417.55-.417.99 0 .345.103.627.308.847.213.213.59.367 1.133.462l.825.143c.374.066.69.165.946.297.257.132.462.29.616.473.161.183.275.389.34.616.067.227.1.466.1.715 0 .711-.235 1.269-.704 1.672-.462.403-1.122.605-1.98.605zm4.474-8.272h.88v5.137h.044l.99-.935 1.892-1.738h1.078l-2.354 2.222L63.123 300h-1.09l-2.21-2.948-.98.891V300h-.88v-8.14zm8.84 8.272a2.84 2.84 0 01-1.112-.209 2.41 2.41 0 01-.836-.594 2.849 2.849 0 01-.528-.935 3.777 3.777 0 01-.187-1.221c0-.455.063-.865.187-1.232.132-.367.312-.678.54-.935.227-.264.498-.466.813-.605a2.67 2.67 0 011.067-.209c.382 0 .726.07 1.034.209.316.139.583.334.803.583.22.242.389.532.506.869.118.337.176.708.176 1.111v.418h-4.202v.264c0 .249.04.48.121.693.081.213.195.396.341.55.154.154.338.275.55.363.22.081.462.121.726.121.382 0 .712-.088.99-.264a1.7 1.7 0 00.638-.726l.65.44c-.17.381-.452.697-.848.946-.388.242-.865.363-1.43.363zm-.056-5.214a1.685 1.685 0 00-1.21.495 1.764 1.764 0 00-.352.55 1.85 1.85 0 00-.12.682v.077h3.255v-.121c0-.249-.04-.477-.12-.682a1.482 1.482 0 00-.32-.528 1.276 1.276 0 00-.495-.352 1.616 1.616 0 00-.638-.121zM73.575 300c-.433 0-.752-.121-.957-.363-.198-.242-.297-.554-.297-.935v-3.63h-1.892v-.748h1.408c.19 0 .323-.037.396-.11.08-.081.121-.216.121-.407v-1.485h.847v2.002h2.585v.748h-2.585v4.18h2.585V300h-2.211zm6.519.132c-.411 0-.778-.07-1.1-.209a2.348 2.348 0 01-.803-.605 2.664 2.664 0 01-.506-.935 4.243 4.243 0 01-.165-1.221c0-.447.058-.854.176-1.221a2.66 2.66 0 01.506-.935c.22-.264.487-.466.803-.605a2.648 2.648 0 011.078-.209c.55 0 .997.121 1.342.363.344.242.597.557.759.946l-.704.374a1.315 1.315 0 00-.517-.682c-.235-.161-.528-.242-.88-.242a1.74 1.74 0 00-.693.132 1.373 1.373 0 00-.506.352 1.57 1.57 0 00-.32.55 2.33 2.33 0 00-.098.693v.968c0 .249.033.48.099.693a1.464 1.464 0 00.836.913c.205.081.44.121.704.121.381 0 .696-.088.946-.264.249-.176.447-.418.594-.726l.627.429a2.24 2.24 0 01-.792.946c-.352.249-.814.374-1.386.374zm4.175-8.272h.88v3.388h.044c.06-.139.132-.271.22-.396.088-.132.195-.246.32-.341a1.7 1.7 0 01.461-.231 1.94 1.94 0 01.616-.088c.594 0 1.071.191 1.43.572.36.374.54.906.54 1.595V300h-.88v-3.487c0-.521-.114-.906-.342-1.155-.227-.257-.56-.385-1-.385a2.04 2.04 0 00-.518.066 1.47 1.47 0 00-.45.198 1.019 1.019 0 00-.32.341.948.948 0 00-.12.484V300h-.88v-8.14z" fill="#323436"/>
  </g>
  <rect x="265" y="40" width="62" height="32" rx="16" fill="#F5F7FA"/>
  <path d="M278.779 51.624c.88 0 1.652.172 2.316.516a3.63 3.63 0 011.548 1.476c.368.632.552 1.368.552 2.208 0 .84-.184 1.576-.552 2.208a3.673 3.673 0 01-1.548 1.452c-.664.344-1.436.516-2.316.516h-2.928v-8.376h2.928zm-.06 6.948c.88 0 1.56-.24 2.04-.72s.72-1.156.72-2.028c0-.872-.24-1.552-.72-2.04-.48-.496-1.16-.744-2.04-.744h-1.188v5.532h1.188zm11.914-2.04c0 .24-.016.456-.048.648h-4.86c.04.48.208.856.504 1.128.296.272.66.408 1.092.408.624 0 1.068-.268 1.332-.804h1.812a3.059 3.059 0 01-1.104 1.584c-.544.408-1.212.612-2.004.612-.64 0-1.216-.14-1.728-.42a3.091 3.091 0 01-1.188-1.212c-.28-.52-.42-1.12-.42-1.8 0-.688.14-1.292.42-1.812.28-.52.672-.92 1.176-1.2.504-.28 1.084-.42 1.74-.42.632 0 1.196.136 1.692.408.504.272.892.66 1.164 1.164.28.496.42 1.068.42 1.716zm-1.74-.48c-.008-.432-.164-.776-.468-1.032-.304-.264-.676-.396-1.116-.396-.416 0-.768.128-1.056.384-.28.248-.452.596-.516 1.044h3.156zm5.51 4.056a3.568 3.568 0 01-1.464-.288 2.686 2.686 0 01-1.032-.804 2.046 2.046 0 01-.408-1.116h1.692a.928.928 0 00.372.636c.224.168.5.252.828.252.32 0 .568-.064.744-.192.184-.128.276-.292.276-.492 0-.216-.112-.376-.336-.48-.216-.112-.564-.232-1.044-.36a9.196 9.196 0 01-1.224-.372 2.176 2.176 0 01-.816-.588c-.224-.264-.336-.62-.336-1.068 0-.368.104-.704.312-1.008.216-.304.52-.544.912-.72.4-.176.868-.264 1.404-.264.792 0 1.424.2 1.896.6.472.392.732.924.78 1.596h-1.608a.844.844 0 00-.336-.624c-.192-.16-.452-.24-.78-.24-.304 0-.54.056-.708.168a.54.54 0 00-.24.468c0 .224.112.396.336.516.224.112.572.228 1.044.348.48.12.876.244 1.188.372.312.128.58.328.804.6.232.264.352.616.36 1.056 0 .384-.108.728-.324 1.032-.208.304-.512.544-.912.72-.392.168-.852.252-1.38.252zm4.847-7.548c-.296 0-.544-.092-.744-.276a.962.962 0 01-.288-.708c0-.28.096-.512.288-.696.2-.192.448-.288.744-.288s.54.096.732.288c.2.184.3.416.3.696 0 .28-.1.516-.3.708a1.015 1.015 0 01-.732.276zm.828.792V60h-1.68v-6.648h1.68zm4.264-.108c.496 0 .932.1 1.308.3.376.192.672.444.888.756v-.948h1.692v6.696c0 .616-.124 1.164-.372 1.644-.248.488-.62.872-1.116 1.152-.496.288-1.096.432-1.8.432-.944 0-1.72-.22-2.328-.66-.6-.44-.94-1.04-1.02-1.8h1.668c.088.304.276.544.564.72.296.184.652.276 1.068.276.488 0 .884-.148 1.188-.444.304-.288.456-.728.456-1.32v-1.032a2.539 2.539 0 01-.9.78 2.633 2.633 0 01-1.296.312c-.56 0-1.072-.144-1.536-.432a3.06 3.06 0 01-1.104-1.212c-.264-.528-.396-1.132-.396-1.812 0-.672.132-1.268.396-1.788.272-.52.636-.92 1.092-1.2.464-.28.98-.42 1.548-.42zm2.196 3.432c0-.408-.08-.756-.24-1.044a1.642 1.642 0 00-.648-.672 1.699 1.699 0 00-.876-.24c-.312 0-.6.076-.864.228-.264.152-.48.376-.648.672-.16.288-.24.632-.24 1.032s.08.752.24 1.056c.168.296.384.524.648.684.272.16.56.24.864.24.312 0 .604-.076.876-.228.272-.16.488-.384.648-.672.16-.296.24-.648.24-1.056zm7.017-3.42c.792 0 1.432.252 1.92.756.488.496.732 1.192.732 2.088V60h-1.68v-3.672c0-.528-.132-.932-.396-1.212-.264-.288-.624-.432-1.08-.432-.464 0-.832.144-1.104.432-.264.28-.396.684-.396 1.212V60h-1.68v-6.648h1.68v.828c.224-.288.508-.512.852-.672a2.64 2.64 0 011.152-.252z" fill="#323436"/>
  <rect x="245" y="360" width="103" height="32" rx="16" fill="#F5F7FA"/>
  <path d="M259.111 371.624c.88 0 1.652.172 2.316.516a3.63 3.63 0 011.548 1.476c.368.632.552 1.368.552 2.208 0 .84-.184 1.576-.552 2.208a3.673 3.673 0 01-1.548 1.452c-.664.344-1.436.516-2.316.516h-2.928v-8.376h2.928zm-.06 6.948c.88 0 1.56-.24 2.04-.72s.72-1.156.72-2.028c0-.872-.24-1.552-.72-2.04-.48-.496-1.16-.744-2.04-.744h-1.188v5.532h1.188zm11.914-2.04c0 .24-.016.456-.048.648h-4.86c.04.48.208.856.504 1.128.296.272.66.408 1.092.408.624 0 1.068-.268 1.332-.804h1.812a3.059 3.059 0 01-1.104 1.584c-.544.408-1.212.612-2.004.612-.64 0-1.216-.14-1.728-.42a3.091 3.091 0 01-1.188-1.212c-.28-.52-.42-1.12-.42-1.8 0-.688.14-1.292.42-1.812.28-.52.672-.92 1.176-1.2.504-.28 1.084-.42 1.74-.42.632 0 1.196.136 1.692.408.504.272.892.66 1.164 1.164.28.496.42 1.068.42 1.716zm-1.74-.48c-.008-.432-.164-.776-.468-1.032-.304-.264-.676-.396-1.116-.396-.416 0-.768.128-1.056.384-.28.248-.452.596-.516 1.044h3.156zm5.738 2.4l1.68-5.1h1.788l-2.46 6.648h-2.04l-2.448-6.648h1.8l1.68 5.1zm10.592-1.92c0 .24-.016.456-.048.648h-4.86c.04.48.208.856.504 1.128.296.272.66.408 1.092.408.624 0 1.068-.268 1.332-.804h1.812a3.059 3.059 0 01-1.104 1.584c-.544.408-1.212.612-2.004.612-.64 0-1.216-.14-1.728-.42a3.091 3.091 0 01-1.188-1.212c-.28-.52-.42-1.12-.42-1.8 0-.688.14-1.292.42-1.812.28-.52.672-.92 1.176-1.2.504-.28 1.084-.42 1.74-.42.632 0 1.196.136 1.692.408.504.272.892.66 1.164 1.164.28.496.42 1.068.42 1.716zm-1.74-.48c-.008-.432-.164-.776-.468-1.032-.304-.264-.676-.396-1.116-.396-.416 0-.768.128-1.056.384-.28.248-.452.596-.516 1.044h3.156zm4.646-4.932V380h-1.68v-8.88h1.68zm4.612 8.988c-.64 0-1.216-.14-1.728-.42a3.15 3.15 0 01-1.212-1.212c-.288-.52-.432-1.12-.432-1.8 0-.68.148-1.28.444-1.8.304-.52.716-.92 1.236-1.2a3.53 3.53 0 011.74-.432c.64 0 1.22.144 1.74.432.52.28.928.68 1.224 1.2.304.52.456 1.12.456 1.8 0 .68-.156 1.28-.468 1.8-.304.52-.72.924-1.248 1.212-.52.28-1.104.42-1.752.42zm0-1.464c.304 0 .588-.072.852-.216.272-.152.488-.376.648-.672.16-.296.24-.656.24-1.08 0-.632-.168-1.116-.504-1.452a1.609 1.609 0 00-1.212-.516c-.48 0-.884.172-1.212.516-.32.336-.48.82-.48 1.452s.156 1.12.468 1.464c.32.336.72.504 1.2.504zm6.38-4.332a2.51 2.51 0 01.888-.756c.384-.208.82-.312 1.308-.312a2.876 2.876 0 012.628 1.62c.272.512.408 1.108.408 1.788 0 .68-.136 1.284-.408 1.812-.264.52-.628.924-1.092 1.212a2.816 2.816 0 01-1.536.432c-.488 0-.92-.1-1.296-.3a2.786 2.786 0 01-.9-.756v4.116h-1.68v-9.816h1.68v.96zm3.516 2.34c0-.4-.084-.744-.252-1.032a1.701 1.701 0 00-1.512-.9c-.304 0-.592.08-.864.24-.264.152-.48.376-.648.672-.16.296-.24.644-.24 1.044s.08.748.24 1.044c.168.296.384.524.648.684.272.152.56.228.864.228.312 0 .6-.08.864-.24.272-.16.488-.388.648-.684.168-.296.252-.648.252-1.056zm11.193-3.396c.816 0 1.472.252 1.968.756.504.496.756 1.192.756 2.088v3.9h-1.68v-3.672c0-.52-.132-.916-.396-1.188-.264-.28-.624-.42-1.08-.42-.456 0-.82.14-1.092.42-.264.272-.396.668-.396 1.188V380h-1.68v-3.672c0-.52-.132-.916-.396-1.188-.264-.28-.624-.42-1.08-.42-.464 0-.832.14-1.104.42-.264.272-.396.668-.396 1.188V380h-1.68v-6.648h1.68v.804c.216-.28.492-.5.828-.66.344-.16.72-.24 1.128-.24.52 0 .984.112 1.392.336.408.216.724.528.948.936.216-.384.528-.692.936-.924a2.715 2.715 0 011.344-.348zm10.498 3.276c0 .24-.016.456-.048.648h-4.86c.04.48.208.856.504 1.128.296.272.66.408 1.092.408.624 0 1.068-.268 1.332-.804h1.812a3.059 3.059 0 01-1.104 1.584c-.544.408-1.212.612-2.004.612-.64 0-1.216-.14-1.728-.42a3.091 3.091 0 01-1.188-1.212c-.28-.52-.42-1.12-.42-1.8 0-.688.14-1.292.42-1.812.28-.52.672-.92 1.176-1.2.504-.28 1.084-.42 1.74-.42.632 0 1.196.136 1.692.408.504.272.892.66 1.164 1.164.28.496.42 1.068.42 1.716zm-1.74-.48c-.008-.432-.164-.776-.468-1.032-.304-.264-.676-.396-1.116-.396-.416 0-.768.128-1.056.384-.28.248-.452.596-.516 1.044h3.156zm6.651-2.796c.792 0 1.432.252 1.92.756.488.496.732 1.192.732 2.088v3.9h-1.68v-3.672c0-.528-.132-.932-.396-1.212-.264-.288-.624-.432-1.08-.432-.464 0-.832.144-1.104.432-.264.28-.396.684-.396 1.212V380h-1.68v-6.648h1.68v.828c.224-.288.508-.512.852-.672a2.64 2.64 0 011.152-.252zm6.205 1.476v3.216c0 .224.052.388.156.492.112.096.296.144.552.144h.78V380h-1.056c-1.416 0-2.124-.688-2.124-2.064v-3.204h-.792v-1.38h.792v-1.644h1.692v1.644h1.488v1.38h-1.488z" fill="#323436"/>
  <rect x="380" y="200" width="87" height="32" rx="16" fill="#F5F7FA"/>
  <path d="M397.102 214.216c0 .448-.108.868-.324 1.26-.208.392-.54.708-.996.948-.448.24-1.016.36-1.704.36h-1.404V220h-1.68v-8.376h3.084c.648 0 1.2.112 1.656.336.456.224.796.532 1.02.924.232.392.348.836.348 1.332zm-3.096 1.212c.464 0 .808-.104 1.032-.312.224-.216.336-.516.336-.9 0-.816-.456-1.224-1.368-1.224h-1.332v2.436h1.332zm5.969-1.044c.216-.352.496-.628.84-.828.352-.2.752-.3 1.2-.3v1.764h-.444c-.528 0-.928.124-1.2.372-.264.248-.396.68-.396 1.296V220h-1.68v-6.648h1.68v1.032zm6.123 5.724c-.64 0-1.216-.14-1.728-.42a3.15 3.15 0 01-1.212-1.212c-.288-.52-.432-1.12-.432-1.8 0-.68.148-1.28.444-1.8.304-.52.716-.92 1.236-1.2a3.53 3.53 0 011.74-.432c.64 0 1.22.144 1.74.432.52.28.928.68 1.224 1.2.304.52.456 1.12.456 1.8 0 .68-.156 1.28-.468 1.8-.304.52-.72.924-1.248 1.212-.52.28-1.104.42-1.752.42zm0-1.464c.304 0 .588-.072.852-.216.272-.152.488-.376.648-.672.16-.296.24-.656.24-1.08 0-.632-.168-1.116-.504-1.452a1.609 1.609 0 00-1.212-.516c-.48 0-.884.172-1.212.516-.32.336-.48.82-.48 1.452s.156 1.12.468 1.464c.32.336.72.504 1.2.504zm4.269-1.992c0-.672.132-1.268.396-1.788.272-.52.64-.92 1.104-1.2.464-.28.98-.42 1.548-.42.432 0 .844.096 1.236.288.392.184.704.432.936.744v-3.156h1.704V220h-1.704v-.984c-.208.328-.5.592-.876.792-.376.2-.812.3-1.308.3-.56 0-1.072-.144-1.536-.432a3.06 3.06 0 01-1.104-1.212c-.264-.528-.396-1.132-.396-1.812zm5.232.024c0-.408-.08-.756-.24-1.044a1.642 1.642 0 00-.648-.672 1.699 1.699 0 00-.876-.24c-.312 0-.6.076-.864.228-.264.152-.48.376-.648.672-.16.288-.24.632-.24 1.032s.08.752.24 1.056c.168.296.384.524.648.684.272.16.56.24.864.24.312 0 .604-.076.876-.228.272-.16.488-.384.648-.672.16-.296.24-.648.24-1.056zm9.609-3.324V220h-1.692v-.84a2.26 2.26 0 01-.852.684c-.344.16-.72.24-1.128.24-.52 0-.98-.108-1.38-.324a2.413 2.413 0 01-.948-.972c-.224-.432-.336-.944-.336-1.536v-3.9h1.68v3.66c0 .528.132.936.396 1.224.264.28.624.42 1.08.42.464 0 .828-.14 1.092-.42.264-.288.396-.696.396-1.224v-3.66h1.692zm1.225 3.324c0-.688.14-1.288.42-1.8.28-.52.668-.92 1.164-1.2.496-.288 1.064-.432 1.704-.432.824 0 1.504.208 2.04.624.544.408.908.984 1.092 1.728h-1.812a1.282 1.282 0 00-.492-.672c-.224-.168-.504-.252-.84-.252-.48 0-.86.176-1.14.528-.28.344-.42.836-.42 1.476 0 .632.14 1.124.42 1.476.28.344.66.516 1.14.516.68 0 1.124-.304 1.332-.912h1.812c-.184.72-.548 1.292-1.092 1.716-.544.424-1.224.636-2.04.636-.64 0-1.208-.14-1.704-.42a3.054 3.054 0 01-1.164-1.2c-.28-.52-.42-1.124-.42-1.812zm9.607-1.944v3.216c0 .224.052.388.156.492.112.096.296.144.552.144h.78V220h-1.056c-1.416 0-2.124-.688-2.124-2.064v-3.204h-.792v-1.38h.792v-1.644h1.692v1.644h1.488v1.38h-1.488zm3.548-2.172c-.296 0-.544-.092-.744-.276a.962.962 0 01-.288-.708c0-.28.096-.512.288-.696.2-.192.448-.288.744-.288s.54.096.732.288c.2.184.3.416.3.696 0 .28-.1.516-.3.708a1.015 1.015 0 01-.732.276zm.828.792V220h-1.68v-6.648h1.68zm4.612 6.756c-.64 0-1.216-.14-1.728-.42a3.15 3.15 0 01-1.212-1.212c-.288-.52-.432-1.12-.432-1.8 0-.68.148-1.28.444-1.8.304-.52.716-.92 1.236-1.2a3.53 3.53 0 011.74-.432c.64 0 1.22.144 1.74.432.52.28.928.68 1.224 1.2.304.52.456 1.12.456 1.8 0 .68-.156 1.28-.468 1.8-.304.52-.72.924-1.248 1.212-.52.28-1.104.42-1.752.42zm0-1.464c.304 0 .588-.072.852-.216.272-.152.488-.376.648-.672.16-.296.24-.656.24-1.08 0-.632-.168-1.116-.504-1.452a1.609 1.609 0 00-1.212-.516c-.48 0-.884.172-1.212.516-.32.336-.48.82-.48 1.452s.156 1.12.468 1.464c.32.336.72.504 1.2.504zm8.384-5.388c.792 0 1.432.252 1.92.756.488.496.732 1.192.732 2.088v3.9h-1.68v-3.672c0-.528-.132-.932-.396-1.212-.264-.288-.624-.432-1.08-.432-.464 0-.832.144-1.104.432-.264.28-.396.684-.396 1.212V220h-1.68v-6.648h1.68v.828c.224-.288.508-.512.852-.672a2.64 2.64 0 011.152-.252z" fill="#323436"/>
  <path d="M471 217l5 2.887v-5.774L471 217zm30 0l-5-2.887v5.774l5-2.887zm-25.5.5h21v-1h-21v1zm-152.394-5.947a1 1 0 101.788.894l-1.788-.894zM376 212l-1.407-11.461-9.222 6.949L376 212zm-52 0l.894.448v-.001l.003-.005.014-.028.064-.12c.058-.108.148-.271.269-.48.242-.417.612-1.021 1.111-1.747a33.359 33.359 0 014.58-5.339C335.057 200.849 341.323 197 350 197v-2c-9.323 0-16.057 4.151-20.435 8.272a35.376 35.376 0 00-4.858 5.661c-.531.774-.928 1.42-1.193 1.878-.133.228-.233.41-.301.536l-.077.147-.021.041a.066.066 0 00-.006.012l-.002.003-.001.002.894.448zm26-15c9.264 0 15.783 4.389 19.874 8.517l1.421-1.408C366.959 199.734 359.958 195 350 195v2zm26.894 23.447a1 1 0 10-1.788-.894l1.788.894zM324 220l1.407 11.461 9.222-6.949L324 220zm52 0l-.894-.448v.001l-.003.005-.014.028-.064.12c-.058.108-.148.271-.269.48a27.417 27.417 0 01-1.111 1.747 33.359 33.359 0 01-4.58 5.339C364.943 231.151 358.677 235 350 235v2c9.323 0 16.057-4.151 20.435-8.272a35.376 35.376 0 004.858-5.661c.531-.774.928-1.42 1.193-1.878.133-.228.233-.41.301-.536l.077-.147.021-.041a.066.066 0 00.006-.012l.002-.003.001-.002L376 220zm-26 15c-9.264 0-15.783-4.389-19.874-8.517l-1.421 1.408C333.041 232.266 340.042 237 350 237v-2z" fill="#E4E6EB"/>
  <path d="M97 216h40m-20-40c30 0 44 20 44 20m-37 60c20 0 27-20 27-20m-47 60c50-8 57-60 57-60" stroke="#E4E6EB" stroke-dasharray="4 4"/>
  <path d="M268 216l-5-2.887v5.774l5-2.887zm-68 .5h1.889v-1H200v1zm5.667 0h3.777v-1h-3.777v1zm7.555 0H217v-1h-3.778v1zm7.556 0h3.778v-1h-3.778v1zm7.555 0h3.778v-1h-3.778v1zm7.556 0h3.778v-1h-3.778v1zm7.555 0h3.778v-1h-3.778v1zm7.556 0h3.778v-1H251v1zm7.556 0h3.777v-1h-3.777v1zM457 236l-.012 5.773 5.006-2.876L457 236zm38 20l-4.897-3.058-.2 5.77L495 256zm-36.168-15.812c3.827 5.497 13.002 14.833 31.637 16.155l.071-.998c-18.275-1.296-27.197-10.427-30.888-15.728l-.82.571zM447 236l-4.222 3.938 5.521 1.688L447 236zm15 60l-2.299-5.296-3.437 4.639L462 296zm-16.799-55.826c-1.37 5.172-3.182 14.4-2.143 24.407 1.038 10.015 4.936 20.835 15.005 29.124l.636-.772c-9.814-8.078-13.627-18.625-14.647-28.455-1.02-9.839.762-18.936 2.116-24.048l-.967-.256zM457 196l4.288-3.866-5.492-1.781L457 196zm24-20l-5.216-2.476.464 5.755L481 176zm-22.151 15.911c2.123-5.144 7.103-13.274 17.749-15.057l-.166-.986c-11.15 1.868-16.332 10.391-18.507 15.662l.924.381zM447 196l3.369-4.689-5.745-.573L447 196zm41-60l-5.77-.19 2.72 5.092L488 136zm-40.058 55.593c1.503-10.457 8.051-36.919 36.334-53.037l-.495-.869c-28.67 16.338-35.306 43.168-36.829 53.763l.99.143z" fill="#E4E6EB"/>
  <path d="M0 216.5h24M.5 222v-11m591 11v-11m-23.5 5.5h24" stroke="#E4E6EB"/>
  <rect x="274" y="194" width="44" height="44" rx="12" fill="#310F75" stroke="#fff" stroke-width="4"/>
  <path fill-rule="evenodd" clip-rule="evenodd" d="M310 222h-2v-1c0-6.627-5.373-11.999-12-11.999s-11.999 5.372-11.999 11.999l-.001 1h-2a1 1 0 01-1-1c0-8.284 6.716-15 15-15 8.284 0 15 6.716 15 15a1 1 0 01-1 1z" fill="url(#GprabcBmgt)"/>
  <path d="M302.999 221A7 7 0 00289 221v1h2a1 1 0 001-1 4 4 0 018 0 1 1 0 001 1h2l-.001-1z" fill="url(#GprabcBmgu)"/>
  <path d="M306.999 221c0-6.075-4.924-10.999-10.999-10.999s-10.999 4.924-10.999 10.999H285v1h3v-1a8 8 0 0116 0v1h3v-1h-.001z" fill="url(#GprabcBmgv)"/>
  <defs>
    <filter id="GprabcBmga" x="208" y="124" width="89" height="48" filterUnits="userSpaceOnUse" color-interpolation-filters="sRGB">
      <feFlood flood-opacity="0" result="BackgroundImageFix"/>
      <feColorMatrix in="SourceAlpha" values="0 0 0 0 0 0 0 0 0 0 0 0 0 0 0 0 0 0 127 0"/>
      <feOffset dy="4"/>
      <feGaussianBlur stdDeviation="4"/>
      <feColorMatrix values="0 0 0 0 0 0 0 0 0 0 0 0 0 0 0 0 0 0 0.05 0"/>
      <feBlend in2="BackgroundImageFix" result="effect1_dropShadow"/>
      <feBlend in="SourceGraphic" in2="effect1_dropShadow" result="shape"/>
    </filter>
    <filter id="GprabcBmgb" x="289" y="124" width="96" height="48" filterUnits="userSpaceOnUse" color-interpolation-filters="sRGB">
      <feFlood flood-opacity="0" result="BackgroundImageFix"/>
      <feColorMatrix in="SourceAlpha" values="0 0 0 0 0 0 0 0 0 0 0 0 0 0 0 0 0 0 127 0"/>
      <feOffset dy="4"/>
      <feGaussianBlur stdDeviation="4"/>
      <feColorMatrix values="0 0 0 0 0 0 0 0 0 0 0 0 0 0 0 0 0 0 0.05 0"/>
      <feBlend in2="BackgroundImageFix" result="effect1_dropShadow"/>
      <feBlend in="SourceGraphic" in2="effect1_dropShadow" result="shape"/>
    </filter>
    <filter id="GprabcBmgc" x="181" y="80" width="102" height="48" filterUnits="userSpaceOnUse" color-interpolation-filters="sRGB">
      <feFlood flood-opacity="0" result="BackgroundImageFix"/>
      <feColorMatrix in="SourceAlpha" values="0 0 0 0 0 0 0 0 0 0 0 0 0 0 0 0 0 0 127 0"/>
      <feOffset dy="4"/>
      <feGaussianBlur stdDeviation="4"/>
      <feColorMatrix values="0 0 0 0 0 0 0 0 0 0 0 0 0 0 0 0 0 0 0.05 0"/>
      <feBlend in2="BackgroundImageFix" result="effect1_dropShadow"/>
      <feBlend in="SourceGraphic" in2="effect1_dropShadow" result="shape"/>
    </filter>
    <filter id="GprabcBmgd" x="275" y="80" width="69" height="48" filterUnits="userSpaceOnUse" color-interpolation-filters="sRGB">
      <feFlood flood-opacity="0" result="BackgroundImageFix"/>
      <feColorMatrix in="SourceAlpha" values="0 0 0 0 0 0 0 0 0 0 0 0 0 0 0 0 0 0 127 0"/>
      <feOffset dy="4"/>
      <feGaussianBlur stdDeviation="4"/>
      <feColorMatrix values="0 0 0 0 0 0 0 0 0 0 0 0 0 0 0 0 0 0 0.05 0"/>
      <feBlend in2="BackgroundImageFix" result="effect1_dropShadow"/>
      <feBlend in="SourceGraphic" in2="effect1_dropShadow" result="shape"/>
    </filter>
    <filter id="GprabcBmge" x="336" y="80" width="76" height="48" filterUnits="userSpaceOnUse" color-interpolation-filters="sRGB">
      <feFlood flood-opacity="0" result="BackgroundImageFix"/>
      <feColorMatrix in="SourceAlpha" values="0 0 0 0 0 0 0 0 0 0 0 0 0 0 0 0 0 0 127 0"/>
      <feOffset dy="4"/>
      <feGaussianBlur stdDeviation="4"/>
      <feColorMatrix values="0 0 0 0 0 0 0 0 0 0 0 0 0 0 0 0 0 0 0.05 0"/>
      <feBlend in2="BackgroundImageFix" result="effect1_dropShadow"/>
      <feBlend in="SourceGraphic" in2="effect1_dropShadow" result="shape"/>
    </filter>
    <filter id="GprabcBmgf" x="164" y="312" width="102" height="48" filterUnits="userSpaceOnUse" color-interpolation-filters="sRGB">
      <feFlood flood-opacity="0" result="BackgroundImageFix"/>
      <feColorMatrix in="SourceAlpha" values="0 0 0 0 0 0 0 0 0 0 0 0 0 0 0 0 0 0 127 0"/>
      <feOffset dy="4"/>
      <feGaussianBlur stdDeviation="4"/>
      <feColorMatrix values="0 0 0 0 0 0 0 0 0 0 0 0 0 0 0 0 0 0 0.05 0"/>
      <feBlend in2="BackgroundImageFix" result="effect1_dropShadow"/>
      <feBlend in="SourceGraphic" in2="effect1_dropShadow" result="shape"/>
    </filter>
    <filter id="GprabcBmgg" x="258" y="312" width="69" height="48" filterUnits="userSpaceOnUse" color-interpolation-filters="sRGB">
      <feFlood flood-opacity="0" result="BackgroundImageFix"/>
      <feColorMatrix in="SourceAlpha" values="0 0 0 0 0 0 0 0 0 0 0 0 0 0 0 0 0 0 127 0"/>
      <feOffset dy="4"/>
      <feGaussianBlur stdDeviation="4"/>
      <feColorMatrix values="0 0 0 0 0 0 0 0 0 0 0 0 0 0 0 0 0 0 0.05 0"/>
      <feBlend in2="BackgroundImageFix" result="effect1_dropShadow"/>
      <feBlend in="SourceGraphic" in2="effect1_dropShadow" result="shape"/>
    </filter>
    <filter id="GprabcBmgh" x="319" y="312" width="109" height="48" filterUnits="userSpaceOnUse" color-interpolation-filters="sRGB">
      <feFlood flood-opacity="0" result="BackgroundImageFix"/>
      <feColorMatrix in="SourceAlpha" values="0 0 0 0 0 0 0 0 0 0 0 0 0 0 0 0 0 0 127 0"/>
      <feOffset dy="4"/>
      <feGaussianBlur stdDeviation="4"/>
      <feColorMatrix values="0 0 0 0 0 0 0 0 0 0 0 0 0 0 0 0 0 0 0.05 0"/>
      <feBlend in2="BackgroundImageFix" result="effect1_dropShadow"/>
      <feBlend in="SourceGraphic" in2="effect1_dropShadow" result="shape"/>
    </filter>
    <filter id="GprabcBmgi" x="228" y="268" width="89" height="48" filterUnits="userSpaceOnUse" color-interpolation-filters="sRGB">
      <feFlood flood-opacity="0" result="BackgroundImageFix"/>
      <feColorMatrix in="SourceAlpha" values="0 0 0 0 0 0 0 0 0 0 0 0 0 0 0 0 0 0 127 0"/>
      <feOffset dy="4"/>
      <feGaussianBlur stdDeviation="4"/>
      <feColorMatrix values="0 0 0 0 0 0 0 0 0 0 0 0 0 0 0 0 0 0 0.05 0"/>
      <feBlend in2="BackgroundImageFix" result="effect1_dropShadow"/>
      <feBlend in="SourceGraphic" in2="effect1_dropShadow" result="shape"/>
    </filter>
    <filter id="GprabcBmgj" x="309" y="268" width="56" height="48" filterUnits="userSpaceOnUse" color-interpolation-filters="sRGB">
      <feFlood flood-opacity="0" result="BackgroundImageFix"/>
      <feColorMatrix in="SourceAlpha" values="0 0 0 0 0 0 0 0 0 0 0 0 0 0 0 0 0 0 127 0"/>
      <feOffset dy="4"/>
      <feGaussianBlur stdDeviation="4"/>
      <feColorMatrix values="0 0 0 0 0 0 0 0 0 0 0 0 0 0 0 0 0 0 0.05 0"/>
      <feBlend in2="BackgroundImageFix" result="effect1_dropShadow"/>
      <feBlend in="SourceGraphic" in2="effect1_dropShadow" result="shape"/>
    </filter>
    <filter id="GprabcBmgk" x="484" y="116" width="76" height="48" filterUnits="userSpaceOnUse" color-interpolation-filters="sRGB">
      <feFlood flood-opacity="0" result="BackgroundImageFix"/>
      <feColorMatrix in="SourceAlpha" values="0 0 0 0 0 0 0 0 0 0 0 0 0 0 0 0 0 0 127 0"/>
      <feOffset dy="4"/>
      <feGaussianBlur stdDeviation="4"/>
      <feColorMatrix values="0 0 0 0 0 0 0 0 0 0 0 0 0 0 0 0 0 0 0.05 0"/>
      <feBlend in2="BackgroundImageFix" result="effect1_dropShadow"/>
      <feBlend in="SourceGraphic" in2="effect1_dropShadow" result="shape"/>
    </filter>
    <filter id="GprabcBmgl" x="477" y="156" width="83" height="48" filterUnits="userSpaceOnUse" color-interpolation-filters="sRGB">
      <feFlood flood-opacity="0" result="BackgroundImageFix"/>
      <feColorMatrix in="SourceAlpha" values="0 0 0 0 0 0 0 0 0 0 0 0 0 0 0 0 0 0 127 0"/>
      <feOffset dy="4"/>
      <feGaussianBlur stdDeviation="4"/>
      <feColorMatrix values="0 0 0 0 0 0 0 0 0 0 0 0 0 0 0 0 0 0 0.05 0"/>
      <feBlend in2="BackgroundImageFix" result="effect1_dropShadow"/>
      <feBlend in="SourceGraphic" in2="effect1_dropShadow" result="shape"/>
    </filter>
    <filter id="GprabcBmgm" x="497" y="196" width="63" height="48" filterUnits="userSpaceOnUse" color-interpolation-filters="sRGB">
      <feFlood flood-opacity="0" result="BackgroundImageFix"/>
      <feColorMatrix in="SourceAlpha" values="0 0 0 0 0 0 0 0 0 0 0 0 0 0 0 0 0 0 127 0"/>
      <feOffset dy="4"/>
      <feGaussianBlur stdDeviation="4"/>
      <feColorMatrix values="0 0 0 0 0 0 0 0 0 0 0 0 0 0 0 0 0 0 0.05 0"/>
      <feBlend in2="BackgroundImageFix" result="effect1_dropShadow"/>
      <feBlend in="SourceGraphic" in2="effect1_dropShadow" result="shape"/>
    </filter>
    <filter id="GprabcBmgn" x="491" y="236" width="69" height="48" filterUnits="userSpaceOnUse" color-interpolation-filters="sRGB">
      <feFlood flood-opacity="0" result="BackgroundImageFix"/>
      <feColorMatrix in="SourceAlpha" values="0 0 0 0 0 0 0 0 0 0 0 0 0 0 0 0 0 0 127 0"/>
      <feOffset dy="4"/>
      <feGaussianBlur stdDeviation="4"/>
      <feColorMatrix values="0 0 0 0 0 0 0 0 0 0 0 0 0 0 0 0 0 0 0.05 0"/>
      <feBlend in2="BackgroundImageFix" result="effect1_dropShadow"/>
      <feBlend in="SourceGraphic" in2="effect1_dropShadow" result="shape"/>
    </filter>
    <filter id="GprabcBmgo" x="458" y="276" width="102" height="48" filterUnits="userSpaceOnUse" color-interpolation-filters="sRGB">
      <feFlood flood-opacity="0" result="BackgroundImageFix"/>
      <feColorMatrix in="SourceAlpha" values="0 0 0 0 0 0 0 0 0 0 0 0 0 0 0 0 0 0 127 0"/>
      <feOffset dy="4"/>
      <feGaussianBlur stdDeviation="4"/>
      <feColorMatrix values="0 0 0 0 0 0 0 0 0 0 0 0 0 0 0 0 0 0 0.05 0"/>
      <feBlend in2="BackgroundImageFix" result="effect1_dropShadow"/>
      <feBlend in="SourceGraphic" in2="effect1_dropShadow" result="shape"/>
    </filter>
    <filter id="GprabcBmgp" x="32" y="196" width="69" height="48" filterUnits="userSpaceOnUse" color-interpolation-filters="sRGB">
      <feFlood flood-opacity="0" result="BackgroundImageFix"/>
      <feColorMatrix in="SourceAlpha" values="0 0 0 0 0 0 0 0 0 0 0 0 0 0 0 0 0 0 127 0"/>
      <feOffset dy="4"/>
      <feGaussianBlur stdDeviation="4"/>
      <feColorMatrix values="0 0 0 0 0 0 0 0 0 0 0 0 0 0 0 0 0 0 0.05 0"/>
      <feBlend in2="BackgroundImageFix" result="effect1_dropShadow"/>
      <feBlend in="SourceGraphic" in2="effect1_dropShadow" result="shape"/>
    </filter>
    <filter id="GprabcBmgq" x="32" y="156" width="89" height="48" filterUnits="userSpaceOnUse" color-interpolation-filters="sRGB">
      <feFlood flood-opacity="0" result="BackgroundImageFix"/>
      <feColorMatrix in="SourceAlpha" values="0 0 0 0 0 0 0 0 0 0 0 0 0 0 0 0 0 0 127 0"/>
      <feOffset dy="4"/>
      <feGaussianBlur stdDeviation="4"/>
      <feColorMatrix values="0 0 0 0 0 0 0 0 0 0 0 0 0 0 0 0 0 0 0.05 0"/>
      <feBlend in2="BackgroundImageFix" result="effect1_dropShadow"/>
      <feBlend in="SourceGraphic" in2="effect1_dropShadow" result="shape"/>
    </filter>
    <filter id="GprabcBmgr" x="32" y="236" width="96" height="48" filterUnits="userSpaceOnUse" color-interpolation-filters="sRGB">
      <feFlood flood-opacity="0" result="BackgroundImageFix"/>
      <feColorMatrix in="SourceAlpha" values="0 0 0 0 0 0 0 0 0 0 0 0 0 0 0 0 0 0 127 0"/>
      <feOffset dy="4"/>
      <feGaussianBlur stdDeviation="4"/>
      <feColorMatrix values="0 0 0 0 0 0 0 0 0 0 0 0 0 0 0 0 0 0 0.05 0"/>
      <feBlend in2="BackgroundImageFix" result="effect1_dropShadow"/>
      <feBlend in="SourceGraphic" in2="effect1_dropShadow" result="shape"/>
    </filter>
    <filter id="GprabcBmgs" x="32" y="276" width="76" height="48" filterUnits="userSpaceOnUse" color-interpolation-filters="sRGB">
      <feFlood flood-opacity="0" result="BackgroundImageFix"/>
      <feColorMatrix in="SourceAlpha" values="0 0 0 0 0 0 0 0 0 0 0 0 0 0 0 0 0 0 127 0"/>
      <feOffset dy="4"/>
      <feGaussianBlur stdDeviation="4"/>
      <feColorMatrix values="0 0 0 0 0 0 0 0 0 0 0 0 0 0 0 0 0 0 0.05 0"/>
      <feBlend in2="BackgroundImageFix" result="effect1_dropShadow"/>
      <feBlend in="SourceGraphic" in2="effect1_dropShadow" result="shape"/>
    </filter>
    <linearGradient id="GprabcBmgt" x1="281" y1="222" x2="311" y2="222" gradientUnits="userSpaceOnUse">
      <stop stop-color="#1877F2"/>
      <stop offset="1" stop-color="#04A4F4"/>
    </linearGradient>
    <linearGradient id="GprabcBmgu" x1="289" y1="222" x2="303" y2="222" gradientUnits="userSpaceOnUse">
      <stop stop-color="#F02849"/>
      <stop offset="1" stop-color="#F5533D"/>
    </linearGradient>
    <linearGradient id="GprabcBmgv" x1="285" y1="222" x2="307" y2="222" gradientUnits="userSpaceOnUse">
      <stop stop-color="#45BD62"/>
      <stop offset="1" stop-color="#2ABBA7"/>
    </linearGradient>
  </defs>
</svg>
